<svg width="969px" height="369px"
 viewBox="0.00 0.00 969.44 369.43" xmlns="http://www.w3.org/2000/svg" xmlns:xlink="http://www.w3.org/1999/xlink">
<g id="graph0" class="graph" transform="scale(1.0 1.0) rotate(0) translate(4 365.4264)">
<title>%3</title>
<!-- 232824863 -->
<g id="node1" class="node">
<title>232824863</title>
<ellipse fill="none" stroke="#000000" stroke-width="2" cx="934.4356" cy="-217.2132" rx="27" ry="21.4286"/>
<text text-anchor="middle" x="934.4356" y="-212.2132" font-family="Helvetica,sans-Serif" font-size="20.00" fill="#000000">+</text>
</g>
<!-- 761960786 -->
<g id="node2" class="node">
<title>761960786</title>
<ellipse fill="none" stroke="#000000" stroke-width="2" cx="835.3732" cy="-247.2132" rx="27" ry="21.4286"/>
<text text-anchor="middle" x="835.3732" y="-242.2132" font-family="Helvetica,sans-Serif" font-size="20.00" fill="#000000">+</text>
</g>
<!-- 761960786&#45;&gt;232824863 -->
<g id="edge1" class="edge">
<title>761960786&#45;&gt;232824863</title>
<path fill="none" stroke="#0000ff" stroke-width="2" d="M860.6272,-239.5653C872.3875,-236.0038 886.5736,-231.7077 899.3534,-227.8375"/>
<polygon fill="#0000ff" stroke="#0000ff" stroke-width="2" points="900.6715,-231.0954 909.2278,-224.8471 898.6426,-224.3958 900.6715,-231.0954"/>
</g>
<!-- 959447386 -->
<g id="node3" class="node">
<title>959447386</title>
<ellipse fill="none" stroke="#000000" stroke-width="2" cx="736.3107" cy="-220.2132" rx="27" ry="21.4286"/>
<text text-anchor="middle" x="736.3107" y="-215.2132" font-family="Helvetica,sans-Serif" font-size="20.00" fill="#000000">d</text>
</g>
<!-- 959447386&#45;&gt;761960786 -->
<g id="edge2" class="edge">
<title>959447386&#45;&gt;761960786</title>
<path fill="none" stroke="#0000ff" stroke-width="2" d="M761.8218,-227.1664C773.4019,-230.3226 787.2932,-234.1087 799.8695,-237.5365"/>
<polygon fill="#0000ff" stroke="#0000ff" stroke-width="2" points="799.0358,-240.9369 809.6043,-240.1898 800.8766,-234.1832 799.0358,-240.9369"/>
</g>
<!-- 466002798 -->
<g id="node4" class="node">
<title>466002798</title>
<ellipse fill="none" stroke="#000000" stroke-width="2" cx="646.3107" cy="-220.2132" rx="27" ry="21.4286"/>
<text text-anchor="middle" x="646.3107" y="-215.2132" font-family="Helvetica,sans-Serif" font-size="20.00" fill="#000000">d</text>
</g>
<!-- 466002798&#45;&gt;959447386 -->
<g id="edge3" class="edge">
<title>466002798&#45;&gt;959447386</title>
<path fill="none" stroke="#000000" stroke-width="2" d="M673.3137,-220.2132C681.3384,-220.2132 690.2773,-220.2132 698.8416,-220.2132"/>
<polygon fill="#000000" stroke="#000000" stroke-width="2" points="699.0158,-223.7133 709.0158,-220.2132 699.0157,-216.7133 699.0158,-223.7133"/>
</g>
<!-- 947679291 -->
<g id="node5" class="node">
<title>947679291</title>
<ellipse fill="none" stroke="#000000" stroke-width="2" cx="556.3107" cy="-220.2132" rx="27" ry="21.4286"/>
<text text-anchor="middle" x="556.3107" y="-215.2132" font-family="Helvetica,sans-Serif" font-size="20.00" fill="#000000">+</text>
</g>
<!-- 947679291&#45;&gt;466002798 -->
<g id="edge4" class="edge">
<title>947679291&#45;&gt;466002798</title>
<path fill="none" stroke="#000000" stroke-width="2" d="M583.3137,-220.2132C591.3384,-220.2132 600.2773,-220.2132 608.8416,-220.2132"/>
<polygon fill="#000000" stroke="#000000" stroke-width="2" points="609.0158,-223.7133 619.0158,-220.2132 609.0157,-216.7133 609.0158,-223.7133"/>
</g>
<!-- 205125520 -->
<g id="node6" class="node">
<title>205125520</title>
<ellipse fill="none" stroke="#000000" stroke-width="2" cx="462.1981" cy="-160.2132" rx="27" ry="21.4286"/>
<text text-anchor="middle" x="462.1981" y="-155.2132" font-family="Helvetica,sans-Serif" font-size="20.00" fill="#000000">+</text>
</g>
<!-- 205125520&#45;&gt;947679291 -->
<g id="edge5" class="edge">
<title>205125520&#45;&gt;947679291</title>
<path fill="none" stroke="#0000ff" stroke-width="2" d="M483.5537,-173.8281C496.1882,-181.8831 512.3886,-192.2113 526.2938,-201.0764"/>
<polygon fill="#0000ff" stroke="#0000ff" stroke-width="2" points="524.7259,-204.2276 535.0396,-206.6522 528.489,-198.3251 524.7259,-204.2276"/>
</g>
<!-- 717356484 -->
<g id="node7" class="node">
<title>717356484</title>
<ellipse fill="none" stroke="#000000" stroke-width="2" cx="357.6087" cy="-122.2132" rx="27" ry="21.4286"/>
<text text-anchor="middle" x="357.6087" y="-117.2132" font-family="Helvetica,sans-Serif" font-size="20.00" fill="#000000">+</text>
</g>
<!-- 717356484&#45;&gt;205125520 -->
<g id="edge6" class="edge">
<title>717356484&#45;&gt;205125520</title>
<path fill="none" stroke="#0000ff" stroke-width="2" d="M382.1303,-131.1225C395.8002,-136.0892 413.0369,-142.3517 428.013,-147.7929"/>
<polygon fill="#0000ff" stroke="#0000ff" stroke-width="2" points="426.8736,-151.1027 437.4677,-151.228 429.2641,-144.5235 426.8736,-151.1027"/>
</g>
<!-- 475266352 -->
<g id="node8" class="node">
<title>475266352</title>
<ellipse fill="none" stroke="#000000" stroke-width="2" cx="248.0696" cy="-81.2132" rx="27" ry="21.4286"/>
<text text-anchor="middle" x="248.0696" y="-76.2132" font-family="Helvetica,sans-Serif" font-size="20.00" fill="#000000">+</text>
</g>
<!-- 475266352&#45;&gt;717356484 -->
<g id="edge7" class="edge">
<title>475266352&#45;&gt;717356484</title>
<path fill="none" stroke="#0000ff" stroke-width="2" d="M272.6523,-90.4144C287.5919,-96.0062 306.8892,-103.2291 323.3158,-109.3775"/>
<polygon fill="#0000ff" stroke="#0000ff" stroke-width="2" points="322.5156,-112.8151 333.108,-113.0427 324.9695,-106.2593 322.5156,-112.8151"/>
</g>
<!-- 1967205423 -->
<g id="node9" class="node">
<title>1967205423</title>
<ellipse fill="none" stroke="#000000" stroke-width="2" cx="137.1163" cy="-111.2132" rx="31.2258" ry="21.4286"/>
<text text-anchor="middle" x="137.1163" y="-106.2132" font-family="Helvetica,sans-Serif" font-size="20.00" fill="#000000">1.0</text>
</g>
<!-- 1967205423&#45;&gt;475266352 -->
<g id="edge8" class="edge">
<title>1967205423&#45;&gt;475266352</title>
<path fill="none" stroke="#0000ff" stroke-width="2" d="M166.2679,-103.3311C180.4575,-99.4944 197.6383,-94.849 212.5842,-90.8079"/>
<polygon fill="#0000ff" stroke="#0000ff" stroke-width="2" points="213.7704,-94.1129 222.5102,-88.1241 211.9433,-87.3556 213.7704,-94.1129"/>
</g>
<!-- 6738746 -->
<g id="node10" class="node">
<title>6738746</title>
<ellipse fill="none" stroke="#000000" stroke-width="2" cx="137.1163" cy="-51.2132" rx="27" ry="21.4286"/>
<text text-anchor="middle" x="137.1163" y="-46.2132" font-family="Helvetica,sans-Serif" font-size="20.00" fill="#000000">*</text>
</g>
<!-- 6738746&#45;&gt;475266352 -->
<g id="edge9" class="edge">
<title>6738746&#45;&gt;475266352</title>
<path fill="none" stroke="#ff0000" stroke-width="2" d="M162.8501,-58.1712C177.694,-62.1848 196.5715,-67.2889 212.7846,-71.6727"/>
<polygon fill="#ff0000" stroke="#ff0000" stroke-width="2" points="211.9084,-75.0614 222.4753,-74.2929 213.7355,-68.3041 211.9084,-75.0614"/>
</g>
<!-- x -->
<g id="node11" class="node">
<title>x</title>
<ellipse fill="none" stroke="#000000" stroke-width="2" cx="31.1127" cy="-81.2132" rx="27" ry="21.4286"/>
<text text-anchor="middle" x="31.1127" y="-76.2132" font-family="Helvetica,sans-Serif" font-size="20.00" fill="#000000">x</text>
</g>
<!-- x&#45;&gt;6738746 -->
<g id="edge10" class="edge">
<title>x&#45;&gt;6738746</title>
<path fill="none" stroke="#0000ff" stroke-width="2" d="M56.7732,-73.951C70.3147,-70.1187 87.135,-65.3584 101.8807,-61.1852"/>
<polygon fill="#0000ff" stroke="#0000ff" stroke-width="2" points="103.0231,-64.4994 111.6921,-58.4085 101.1169,-57.764 103.0231,-64.4994"/>
</g>
<!-- 1844169442 -->
<g id="node12" class="node">
<title>1844169442</title>
<ellipse fill="none" stroke="#000000" stroke-width="2" cx="31.1127" cy="-21.2132" rx="31.2258" ry="21.4286"/>
<text text-anchor="middle" x="31.1127" y="-16.2132" font-family="Helvetica,sans-Serif" font-size="20.00" fill="#000000">2.0</text>
</g>
<!-- 1844169442&#45;&gt;6738746 -->
<g id="edge11" class="edge">
<title>1844169442&#45;&gt;6738746</title>
<path fill="none" stroke="#ff0000" stroke-width="2" d="M60.0786,-29.4108C72.877,-33.0329 88.0475,-37.3263 101.5275,-41.1412"/>
<polygon fill="#ff0000" stroke="#ff0000" stroke-width="2" points="100.8636,-44.5908 111.4389,-43.9463 102.7699,-37.8553 100.8636,-44.5908"/>
</g>
<!-- 804581391 -->
<g id="node13" class="node">
<title>804581391</title>
<ellipse fill="none" stroke="#000000" stroke-width="2" cx="248.0696" cy="-141.2132" rx="36.125" ry="21.4286"/>
<text text-anchor="middle" x="248.0696" y="-136.2132" font-family="Helvetica,sans-Serif" font-size="20.00" fill="#000000">&#45;3.0</text>
</g>
<!-- 804581391&#45;&gt;717356484 -->
<g id="edge12" class="edge">
<title>804581391&#45;&gt;717356484</title>
<path fill="none" stroke="#ff0000" stroke-width="2" d="M282.7284,-135.2015C294.9704,-133.0781 308.769,-130.6846 321.1552,-128.5362"/>
<polygon fill="#ff0000" stroke="#ff0000" stroke-width="2" points="321.9075,-131.9581 331.1622,-126.8005 320.7111,-125.0611 321.9075,-131.9581"/>
</g>
<!-- y -->
<g id="node14" class="node">
<title>y</title>
<ellipse fill="none" stroke="#000000" stroke-width="2" cx="248.0696" cy="-220.2132" rx="27" ry="21.4286"/>
<text text-anchor="middle" x="248.0696" y="-215.2132" font-family="Helvetica,sans-Serif" font-size="20.00" fill="#000000">y</text>
</g>
<!-- y&#45;&gt;205125520 -->
<g id="edge13" class="edge">
<title>y&#45;&gt;205125520</title>
<path fill="none" stroke="#ff0000" stroke-width="2" d="M271.3528,-209.2193C285.2701,-202.9782 303.4379,-195.4011 320.132,-190.2132 355.2931,-179.2866 396.5788,-171.0625 425.5542,-166.0139"/>
<polygon fill="#ff0000" stroke="#ff0000" stroke-width="2" points="426.3668,-169.4261 435.6381,-164.2985 425.1928,-162.5252 426.3668,-169.4261"/>
</g>
<!-- 901506536 -->
<g id="node15" class="node">
<title>901506536</title>
<ellipse fill="none" stroke="#000000" stroke-width="2" cx="357.6087" cy="-220.2132" rx="37.4533" ry="21.4286"/>
<text text-anchor="middle" x="357.6087" y="-215.2132" font-family="Helvetica,sans-Serif" font-size="20.00" fill="#000000">pow</text>
</g>
<!-- y&#45;&gt;901506536 -->
<g id="edge14" class="edge">
<title>y&#45;&gt;901506536</title>
<path fill="none" stroke="#0000ff" stroke-width="2" d="M275.1467,-220.2132C285.6329,-220.2132 297.957,-220.2132 309.8349,-220.2132"/>
<polygon fill="#0000ff" stroke="#0000ff" stroke-width="2" points="310.1007,-223.7133 320.1007,-220.2132 310.1007,-216.7133 310.1007,-223.7133"/>
</g>
<!-- 41903949 -->
<g id="node17" class="node">
<title>41903949</title>
<ellipse fill="none" stroke="#000000" stroke-width="2" cx="357.6087" cy="-340.2132" rx="37.4533" ry="21.4286"/>
<text text-anchor="middle" x="357.6087" y="-335.2132" font-family="Helvetica,sans-Serif" font-size="20.00" fill="#000000">pow</text>
</g>
<!-- y&#45;&gt;41903949 -->
<g id="edge15" class="edge">
<title>y&#45;&gt;41903949</title>
<path fill="none" stroke="#0000ff" stroke-width="2" d="M267.8772,-234.6771C273.4884,-239.2884 279.3618,-244.6483 284.132,-250.2132 304.3715,-273.8241 299.671,-286.794 320.132,-310.2132 322.0341,-312.3903 324.1088,-314.5282 326.2744,-316.5975"/>
<polygon fill="#0000ff" stroke="#0000ff" stroke-width="2" points="324.063,-319.3143 333.8688,-323.3265 328.7052,-314.0751 324.063,-319.3143"/>
</g>
<!-- 1975358023 -->
<g id="node16" class="node">
<title>1975358023</title>
<ellipse fill="none" stroke="#000000" stroke-width="2" cx="462.1981" cy="-220.2132" rx="27" ry="21.4286"/>
<text text-anchor="middle" x="462.1981" y="-215.2132" font-family="Helvetica,sans-Serif" font-size="20.00" fill="#000000">*</text>
</g>
<!-- 901506536&#45;&gt;1975358023 -->
<g id="edge16" class="edge">
<title>901506536&#45;&gt;1975358023</title>
<path fill="none" stroke="#ff0000" stroke-width="2" d="M395.3679,-220.2132C404.9931,-220.2132 415.3321,-220.2132 424.9325,-220.2132"/>
<polygon fill="#ff0000" stroke="#ff0000" stroke-width="2" points="424.9915,-223.7133 434.9915,-220.2132 424.9914,-216.7133 424.9915,-223.7133"/>
</g>
<!-- 1975358023&#45;&gt;947679291 -->
<g id="edge17" class="edge">
<title>1975358023&#45;&gt;947679291</title>
<path fill="none" stroke="#ff0000" stroke-width="2" d="M489.4193,-220.2132C498.6863,-220.2132 509.2096,-220.2132 519.1213,-220.2132"/>
<polygon fill="#ff0000" stroke="#ff0000" stroke-width="2" points="519.1507,-223.7133 529.1506,-220.2132 519.1506,-216.7133 519.1507,-223.7133"/>
</g>
<!-- 2088051243 -->
<g id="node18" class="node">
<title>2088051243</title>
<ellipse fill="none" stroke="#000000" stroke-width="2" cx="462.1981" cy="-340.2132" rx="27" ry="21.4286"/>
<text text-anchor="middle" x="462.1981" y="-335.2132" font-family="Helvetica,sans-Serif" font-size="20.00" fill="#000000">*</text>
</g>
<!-- 41903949&#45;&gt;2088051243 -->
<g id="edge18" class="edge">
<title>41903949&#45;&gt;2088051243</title>
<path fill="none" stroke="#ff0000" stroke-width="2" d="M395.3679,-340.2132C404.9931,-340.2132 415.3321,-340.2132 424.9325,-340.2132"/>
<polygon fill="#ff0000" stroke="#ff0000" stroke-width="2" points="424.9915,-343.7133 434.9915,-340.2132 424.9914,-336.7133 424.9915,-343.7133"/>
</g>
<!-- 240650537 -->
<g id="node19" class="node">
<title>240650537</title>
<ellipse fill="none" stroke="#000000" stroke-width="2" cx="556.3107" cy="-280.2132" rx="27" ry="21.4286"/>
<text text-anchor="middle" x="556.3107" y="-275.2132" font-family="Helvetica,sans-Serif" font-size="20.00" fill="#000000">*</text>
</g>
<!-- 2088051243&#45;&gt;240650537 -->
<g id="edge19" class="edge">
<title>2088051243&#45;&gt;240650537</title>
<path fill="none" stroke="#0000ff" stroke-width="2" d="M483.5537,-326.5983C496.1882,-318.5433 512.3886,-308.2151 526.2938,-299.35"/>
<polygon fill="#0000ff" stroke="#0000ff" stroke-width="2" points="528.489,-302.1013 535.0396,-293.7743 524.7259,-296.1988 528.489,-302.1013"/>
</g>
<!-- 240650537&#45;&gt;761960786 -->
<g id="edge20" class="edge">
<title>240650537&#45;&gt;761960786</title>
<path fill="none" stroke="#ff0000" stroke-width="2" d="M583.0684,-277.049C633.1549,-271.1262 741.1472,-258.3557 798.2431,-251.6039"/>
<polygon fill="#ff0000" stroke="#ff0000" stroke-width="2" points="798.7667,-255.0665 808.2865,-250.4163 797.9446,-248.1149 798.7667,-255.0665"/>
</g>
<!-- z -->
<g id="node20" class="node">
<title>z</title>
<ellipse fill="none" stroke="#000000" stroke-width="2" cx="357.6087" cy="-280.2132" rx="27" ry="21.4286"/>
<text text-anchor="middle" x="357.6087" y="-275.2132" font-family="Helvetica,sans-Serif" font-size="20.00" fill="#000000">z</text>
</g>
<!-- z&#45;&gt;1975358023 -->
<g id="edge21" class="edge">
<title>z&#45;&gt;1975358023</title>
<path fill="none" stroke="#0000ff" stroke-width="2" d="M379.5341,-267.6352C394.5952,-258.9951 414.7996,-247.4044 431.4633,-237.8449"/>
<polygon fill="#0000ff" stroke="#0000ff" stroke-width="2" points="433.3691,-240.7866 440.3016,-232.7746 429.8859,-234.7148 433.3691,-240.7866"/>
</g>
<!-- z&#45;&gt;2088051243 -->
<g id="edge22" class="edge">
<title>z&#45;&gt;2088051243</title>
<path fill="none" stroke="#0000ff" stroke-width="2" d="M379.5341,-292.7912C394.5952,-301.4313 414.7996,-313.022 431.4633,-322.5816"/>
<polygon fill="#0000ff" stroke="#0000ff" stroke-width="2" points="429.8859,-325.7116 440.3016,-327.6518 433.3691,-319.6398 429.8859,-325.7116"/>
</g>
<!-- 1513712028 -->
<g id="node21" class="node">
<title>1513712028</title>
<ellipse fill="none" stroke="#000000" stroke-width="2" cx="248.0696" cy="-280.2132" rx="27" ry="21.4286"/>
<text text-anchor="middle" x="248.0696" y="-275.2132" font-family="Helvetica,sans-Serif" font-size="20.00" fill="#000000">&#45;</text>
</g>
<!-- 1513712028&#45;&gt;901506536 -->
<g id="edge23" class="edge">
<title>1513712028&#45;&gt;901506536</title>
<path fill="none" stroke="#ff0000" stroke-width="2" d="M270.2365,-268.0713C284.9001,-260.0393 304.466,-249.3221 321.3647,-240.0658"/>
<polygon fill="#ff0000" stroke="#ff0000" stroke-width="2" points="323.3414,-242.9738 330.4305,-235.1001 319.9786,-236.8345 323.3414,-242.9738"/>
</g>
<!-- 1 -->
<g id="node22" class="node">
<title>1</title>
<ellipse fill="none" stroke="#000000" stroke-width="2" cx="137.1163" cy="-310.2132" rx="38.7821" ry="21.4286"/>
<text text-anchor="middle" x="137.1163" y="-305.2132" font-family="Helvetica,sans-Serif" font-size="20.00" fill="#000000">One</text>
</g>
<!-- 1&#45;&gt;1513712028 -->
<g id="edge24" class="edge">
<title>1&#45;&gt;1513712028</title>
<path fill="none" stroke="#000000" stroke-width="2" d="M172.2226,-300.721C185.0472,-297.2535 199.5583,-293.3299 212.429,-289.8498"/>
<polygon fill="#000000" stroke="#000000" stroke-width="2" points="213.596,-293.1601 222.3358,-287.1712 211.7689,-286.4027 213.596,-293.1601"/>
</g>
<!-- 1209271652 -->
<g id="node23" class="node">
<title>1209271652</title>
<ellipse fill="none" stroke="#000000" stroke-width="2" cx="248.0696" cy="-340.2132" rx="27" ry="21.4286"/>
<text text-anchor="middle" x="248.0696" y="-335.2132" font-family="Helvetica,sans-Serif" font-size="20.00" fill="#000000">&#45;</text>
</g>
<!-- 1&#45;&gt;1209271652 -->
<g id="edge25" class="edge">
<title>1&#45;&gt;1209271652</title>
<path fill="none" stroke="#000000" stroke-width="2" d="M172.2226,-319.7054C185.0472,-323.173 199.5583,-327.0965 212.429,-330.5766"/>
<polygon fill="#000000" stroke="#000000" stroke-width="2" points="211.7689,-334.0237 222.3358,-333.2552 213.596,-327.2663 211.7689,-334.0237"/>
</g>
<!-- 1209271652&#45;&gt;41903949 -->
<g id="edge26" class="edge">
<title>1209271652&#45;&gt;41903949</title>
<path fill="none" stroke="#ff0000" stroke-width="2" d="M275.1467,-340.2132C285.6329,-340.2132 297.957,-340.2132 309.8349,-340.2132"/>
<polygon fill="#ff0000" stroke="#ff0000" stroke-width="2" points="310.1007,-343.7133 320.1007,-340.2132 310.1007,-336.7133 310.1007,-343.7133"/>
</g>
<!-- 466002798{color=black, fontcolor=black, fontname=Helvetica, fontsize=20, style=setlinewidth(2)}&#45;&gt; -->
<g id="node24" class="node">
<title>466002798{color=black, fontcolor=black, fontname=Helvetica, fontsize=20, style=setlinewidth(2)}&#45;&gt;</title>
<ellipse fill="none" stroke="#000000" stroke-width="2" cx="556.3107" cy="-160.2132" rx="27" ry="21.4286"/>
<text text-anchor="middle" x="556.3107" y="-155.2132" font-family="Helvetica,sans-Serif" font-size="20.00" fill="#000000">y</text>
</g>
<!-- 466002798{color=black, fontcolor=black, fontname=Helvetica, fontsize=20, style=setlinewidth(2)}&#45;&gt;&#45;&gt;466002798 -->
<g id="edge27" class="edge">
<title>466002798{color=black, fontcolor=black, fontname=Helvetica, fontsize=20, style=setlinewidth(2)}&#45;&gt;&#45;&gt;466002798</title>
<path fill="none" stroke="#000000" stroke-width="2" d="M577.1848,-174.1292C588.9983,-182.0049 603.9613,-191.9802 616.9426,-200.6344"/>
<polygon fill="#000000" stroke="#000000" stroke-width="2" points="615.2879,-203.7378 625.5499,-206.3727 619.1709,-197.9134 615.2879,-203.7378"/>
</g>
<!-- 959447386{color=black, fontcolor=black, fontname=Helvetica, fontsize=20, style=setlinewidth(2)}&#45;&gt; -->
<g id="node25" class="node">
<title>959447386{color=black, fontcolor=black, fontname=Helvetica, fontsize=20, style=setlinewidth(2)}&#45;&gt;</title>
<ellipse fill="none" stroke="#000000" stroke-width="2" cx="646.3107" cy="-160.2132" rx="27" ry="21.4286"/>
<text text-anchor="middle" x="646.3107" y="-155.2132" font-family="Helvetica,sans-Serif" font-size="20.00" fill="#000000">x</text>
</g>
<!-- 959447386{color=black, fontcolor=black, fontname=Helvetica, fontsize=20, style=setlinewidth(2)}&#45;&gt;&#45;&gt;959447386 -->
<g id="edge28" class="edge">
<title>959447386{color=black, fontcolor=black, fontname=Helvetica, fontsize=20, style=setlinewidth(2)}&#45;&gt;&#45;&gt;959447386</title>
<path fill="none" stroke="#000000" stroke-width="2" d="M667.1848,-174.1292C678.9983,-182.0049 693.9613,-191.9802 706.9426,-200.6344"/>
<polygon fill="#000000" stroke="#000000" stroke-width="2" points="705.2879,-203.7378 715.5499,-206.3727 709.1709,-197.9134 705.2879,-203.7378"/>
</g>
<!-- 2083562754 -->
<g id="node26" class="node">
<title>2083562754</title>
<ellipse fill="none" stroke="#000000" stroke-width="2" cx="462.1981" cy="-280.2132" rx="31.2258" ry="21.4286"/>
<text text-anchor="middle" x="462.1981" y="-275.2132" font-family="Helvetica,sans-Serif" font-size="20.00" fill="#000000">3.0</text>
</g>
<!-- 2083562754&#45;&gt;240650537 -->
<g id="edge29" class="edge">
<title>2083562754&#45;&gt;240650537</title>
<path fill="none" stroke="#ff0000" stroke-width="2" d="M493.5362,-280.2132C501.7474,-280.2132 510.6801,-280.2132 519.1628,-280.2132"/>
<polygon fill="#ff0000" stroke="#ff0000" stroke-width="2" points="519.2079,-283.7133 529.2078,-280.2132 519.2078,-276.7133 519.2079,-283.7133"/>
</g>
<!-- 557041912 -->
<g id="node27" class="node">
<title>557041912</title>
<ellipse fill="none" stroke="#000000" stroke-width="2" cx="835.3732" cy="-187.2132" rx="36.125" ry="21.4286"/>
<text text-anchor="middle" x="835.3732" y="-182.2132" font-family="Helvetica,sans-Serif" font-size="20.00" fill="#000000">&#45;2.0</text>
</g>
<!-- 557041912&#45;&gt;232824863 -->
<g id="edge30" class="edge">
<title>557041912&#45;&gt;232824863</title>
<path fill="none" stroke="#ff0000" stroke-width="2" d="M867.5359,-196.9533C877.7254,-200.0391 889.0377,-203.4649 899.4173,-206.6083"/>
<polygon fill="#ff0000" stroke="#ff0000" stroke-width="2" points="898.4309,-209.9665 909.0161,-209.5152 900.4598,-203.2669 898.4309,-209.9665"/>
</g>
</g>
</svg>
