<svg width="894px" height="298px"
 viewBox="0.00 0.00 894.00 298.00" xmlns="http://www.w3.org/2000/svg" xmlns:xlink="http://www.w3.org/1999/xlink">
<g id="graph0" class="graph" transform="scale(1.0 1.0) rotate(0) translate(4 294)">
<title>%3</title>
<!-- 627150481 -->
<g id="node1" class="node">
<title>627150481</title>
<path fill="none" stroke="#000000" stroke-width="2" d="M844,-56.5C844,-56.5 874,-56.5 874,-56.5 880,-56.5 886,-62.5 886,-68.5 886,-68.5 886,-80.5 886,-80.5 886,-86.5 880,-92.5 874,-92.5 874,-92.5 844,-92.5 844,-92.5 838,-92.5 832,-86.5 832,-80.5 832,-80.5 832,-68.5 832,-68.5 832,-62.5 838,-56.5 844,-56.5"/>
<text text-anchor="middle" x="859" y="-69.5" font-family="JetBrains Mono" font-size="20.00" fill="#000000">+</text>
</g>
<!-- 1638215613 -->
<g id="node2" class="node">
<title>1638215613</title>
<path fill="none" stroke="#000000" stroke-width="2" d="M748.5,-84.5C748.5,-84.5 778.5,-84.5 778.5,-84.5 784.5,-84.5 790.5,-90.5 790.5,-96.5 790.5,-96.5 790.5,-108.5 790.5,-108.5 790.5,-114.5 784.5,-120.5 778.5,-120.5 778.5,-120.5 748.5,-120.5 748.5,-120.5 742.5,-120.5 736.5,-114.5 736.5,-108.5 736.5,-108.5 736.5,-96.5 736.5,-96.5 736.5,-90.5 742.5,-84.5 748.5,-84.5"/>
<text text-anchor="middle" x="763.5" y="-97.5" font-family="JetBrains Mono" font-size="20.00" fill="#000000">+</text>
</g>
<!-- 1638215613&#45;&gt;627150481 -->
<g id="edge1" class="edge">
<title>1638215613&#45;&gt;627150481</title>
<path fill="none" stroke="#0000ff" stroke-width="2" d="M790.611,-94.5512C800.3897,-91.6842 811.5983,-88.3979 822.0734,-85.3266"/>
<polygon fill="#0000ff" stroke="#0000ff" stroke-width="2" points="823.2099,-88.6408 831.8212,-82.4687 821.2404,-81.9236 823.2099,-88.6408"/>
</g>
<!-- 1674896058 -->
<g id="node3" class="node">
<title>1674896058</title>
<path fill="none" stroke="#000000" stroke-width="2" d="M653,-110.5C653,-110.5 683,-110.5 683,-110.5 689,-110.5 695,-116.5 695,-122.5 695,-122.5 695,-134.5 695,-134.5 695,-140.5 689,-146.5 683,-146.5 683,-146.5 653,-146.5 653,-146.5 647,-146.5 641,-140.5 641,-134.5 641,-134.5 641,-122.5 641,-122.5 641,-116.5 647,-110.5 653,-110.5"/>
<text text-anchor="middle" x="668" y="-123.5" font-family="JetBrains Mono" font-size="20.00" fill="#000000">d</text>
</g>
<!-- 1674896058&#45;&gt;1638215613 -->
<g id="edge2" class="edge">
<title>1674896058&#45;&gt;1638215613</title>
<path fill="none" stroke="#0000ff" stroke-width="2" d="M695.111,-121.119C704.8897,-118.4567 716.0983,-115.4052 726.5734,-112.5533"/>
<polygon fill="#0000ff" stroke="#0000ff" stroke-width="2" points="727.5918,-115.9035 736.3212,-109.8995 725.7529,-109.1494 727.5918,-115.9035"/>
</g>
<!-- 866191240 -->
<g id="node4" class="node">
<title>866191240</title>
<path fill="none" stroke="#000000" stroke-width="2" d="M563,-110.5C563,-110.5 593,-110.5 593,-110.5 599,-110.5 605,-116.5 605,-122.5 605,-122.5 605,-134.5 605,-134.5 605,-140.5 599,-146.5 593,-146.5 593,-146.5 563,-146.5 563,-146.5 557,-146.5 551,-140.5 551,-134.5 551,-134.5 551,-122.5 551,-122.5 551,-116.5 557,-110.5 563,-110.5"/>
<text text-anchor="middle" x="578" y="-123.5" font-family="JetBrains Mono" font-size="20.00" fill="#000000">d</text>
</g>
<!-- 866191240&#45;&gt;1674896058 -->
<g id="edge3" class="edge">
<title>866191240&#45;&gt;1674896058</title>
<path fill="none" stroke="#000000" stroke-width="2" d="M605.003,-128.5C613.0277,-128.5 621.9665,-128.5 630.5309,-128.5"/>
<polygon fill="#000000" stroke="#000000" stroke-width="2" points="630.7051,-132.0001 640.705,-128.5 630.705,-125.0001 630.7051,-132.0001"/>
</g>
<!-- 872627152 -->
<g id="node5" class="node">
<title>872627152</title>
<path fill="none" stroke="#000000" stroke-width="2" d="M473,-110.5C473,-110.5 503,-110.5 503,-110.5 509,-110.5 515,-116.5 515,-122.5 515,-122.5 515,-134.5 515,-134.5 515,-140.5 509,-146.5 503,-146.5 503,-146.5 473,-146.5 473,-146.5 467,-146.5 461,-140.5 461,-134.5 461,-134.5 461,-122.5 461,-122.5 461,-116.5 467,-110.5 473,-110.5"/>
<text text-anchor="middle" x="488" y="-123.5" font-family="JetBrains Mono" font-size="20.00" fill="#000000">+</text>
</g>
<!-- 872627152&#45;&gt;866191240 -->
<g id="edge4" class="edge">
<title>872627152&#45;&gt;866191240</title>
<path fill="none" stroke="#000000" stroke-width="2" d="M515.003,-128.5C523.0277,-128.5 531.9665,-128.5 540.5309,-128.5"/>
<polygon fill="#000000" stroke="#000000" stroke-width="2" points="540.7051,-132.0001 550.705,-128.5 540.705,-125.0001 540.7051,-132.0001"/>
</g>
<!-- 2094777811 -->
<g id="node6" class="node">
<title>2094777811</title>
<path fill="none" stroke="#000000" stroke-width="2" d="M383,-165.5C383,-165.5 413,-165.5 413,-165.5 419,-165.5 425,-171.5 425,-177.5 425,-177.5 425,-189.5 425,-189.5 425,-195.5 419,-201.5 413,-201.5 413,-201.5 383,-201.5 383,-201.5 377,-201.5 371,-195.5 371,-189.5 371,-189.5 371,-177.5 371,-177.5 371,-171.5 377,-165.5 383,-165.5"/>
<text text-anchor="middle" x="398" y="-178.5" font-family="JetBrains Mono" font-size="20.00" fill="#000000">+</text>
</g>
<!-- 2094777811&#45;&gt;872627152 -->
<g id="edge5" class="edge">
<title>2094777811&#45;&gt;872627152</title>
<path fill="none" stroke="#0000ff" stroke-width="2" d="M425.003,-166.9982C433.4686,-161.8248 442.9516,-156.0296 451.9389,-150.5373"/>
<polygon fill="#0000ff" stroke="#0000ff" stroke-width="2" points="453.9973,-153.3813 460.705,-145.1803 450.3471,-147.4083 453.9973,-153.3813"/>
</g>
<!-- 400136488 -->
<g id="node7" class="node">
<title>400136488</title>
<path fill="none" stroke="#000000" stroke-width="2" d="M293,-208.5C293,-208.5 323,-208.5 323,-208.5 329,-208.5 335,-214.5 335,-220.5 335,-220.5 335,-232.5 335,-232.5 335,-238.5 329,-244.5 323,-244.5 323,-244.5 293,-244.5 293,-244.5 287,-244.5 281,-238.5 281,-232.5 281,-232.5 281,-220.5 281,-220.5 281,-214.5 287,-208.5 293,-208.5"/>
<text text-anchor="middle" x="308" y="-221.5" font-family="JetBrains Mono" font-size="20.00" fill="#000000">+</text>
</g>
<!-- 400136488&#45;&gt;2094777811 -->
<g id="edge6" class="edge">
<title>400136488&#45;&gt;2094777811</title>
<path fill="none" stroke="#0000ff" stroke-width="2" d="M335.003,-213.5986C343.3804,-209.596 352.7541,-205.1175 361.6579,-200.8634"/>
<polygon fill="#0000ff" stroke="#0000ff" stroke-width="2" points="363.1909,-204.0101 370.705,-196.5409 360.1731,-197.6939 363.1909,-204.0101"/>
</g>
<!-- 451111351 -->
<g id="node8" class="node">
<title>451111351</title>
<path fill="none" stroke="#000000" stroke-width="2" d="M197.5,-198.5C197.5,-198.5 227.5,-198.5 227.5,-198.5 233.5,-198.5 239.5,-204.5 239.5,-210.5 239.5,-210.5 239.5,-222.5 239.5,-222.5 239.5,-228.5 233.5,-234.5 227.5,-234.5 227.5,-234.5 197.5,-234.5 197.5,-234.5 191.5,-234.5 185.5,-228.5 185.5,-222.5 185.5,-222.5 185.5,-210.5 185.5,-210.5 185.5,-204.5 191.5,-198.5 197.5,-198.5"/>
<text text-anchor="middle" x="212.5" y="-211.5" font-family="JetBrains Mono" font-size="20.00" fill="#000000">+</text>
</g>
<!-- 451111351&#45;&gt;400136488 -->
<g id="edge7" class="edge">
<title>451111351&#45;&gt;400136488</title>
<path fill="none" stroke="#0000ff" stroke-width="2" d="M239.611,-219.3389C249.2889,-220.3522 260.3674,-221.5123 270.7492,-222.5994"/>
<polygon fill="#0000ff" stroke="#0000ff" stroke-width="2" points="270.511,-226.0935 280.8212,-223.6541 271.2401,-219.1316 270.511,-226.0935"/>
</g>
<!-- 875827115 -->
<g id="node9" class="node">
<title>875827115</title>
<path fill="none" stroke="#000000" stroke-width="2" d="M102,-225.5C102,-225.5 132,-225.5 132,-225.5 138,-225.5 144,-231.5 144,-237.5 144,-237.5 144,-249.5 144,-249.5 144,-255.5 138,-261.5 132,-261.5 132,-261.5 102,-261.5 102,-261.5 96,-261.5 90,-255.5 90,-249.5 90,-249.5 90,-237.5 90,-237.5 90,-231.5 96,-225.5 102,-225.5"/>
<text text-anchor="middle" x="117" y="-238.5" font-family="JetBrains Mono" font-size="20.00" fill="#000000">1.0</text>
</g>
<!-- 875827115&#45;&gt;451111351 -->
<g id="edge8" class="edge">
<title>875827115&#45;&gt;451111351</title>
<path fill="none" stroke="#0000ff" stroke-width="2" d="M144.111,-235.8351C153.8897,-233.0705 165.0983,-229.9015 175.5734,-226.94"/>
<polygon fill="#0000ff" stroke="#0000ff" stroke-width="2" points="176.6506,-230.2727 185.3212,-224.1841 174.7462,-223.5367 176.6506,-230.2727"/>
</g>
<!-- 6738746 -->
<g id="node10" class="node">
<title>6738746</title>
<path fill="none" stroke="#000000" stroke-width="2" d="M102,-170.5C102,-170.5 132,-170.5 132,-170.5 138,-170.5 144,-176.5 144,-182.5 144,-182.5 144,-194.5 144,-194.5 144,-200.5 138,-206.5 132,-206.5 132,-206.5 102,-206.5 102,-206.5 96,-206.5 90,-200.5 90,-194.5 90,-194.5 90,-182.5 90,-182.5 90,-176.5 96,-170.5 102,-170.5"/>
<text text-anchor="middle" x="117" y="-183.5" font-family="JetBrains Mono" font-size="20.00" fill="#000000">*</text>
</g>
<!-- 6738746&#45;&gt;451111351 -->
<g id="edge9" class="edge">
<title>6738746&#45;&gt;451111351</title>
<path fill="none" stroke="#ff0000" stroke-width="2" d="M144.111,-196.4488C153.8897,-199.3158 165.0983,-202.6021 175.5734,-205.6734"/>
<polygon fill="#ff0000" stroke="#ff0000" stroke-width="2" points="174.7404,-209.0764 185.3212,-208.5313 176.7099,-202.3592 174.7404,-209.0764"/>
</g>
<!-- x -->
<g id="node11" class="node">
<title>x</title>
<path fill="none" stroke="#000000" stroke-width="2" d="M12,-198.5C12,-198.5 42,-198.5 42,-198.5 48,-198.5 54,-204.5 54,-210.5 54,-210.5 54,-222.5 54,-222.5 54,-228.5 48,-234.5 42,-234.5 42,-234.5 12,-234.5 12,-234.5 6,-234.5 0,-228.5 0,-222.5 0,-222.5 0,-210.5 0,-210.5 0,-204.5 6,-198.5 12,-198.5"/>
<text text-anchor="middle" x="27" y="-211.5" font-family="JetBrains Mono" font-size="20.00" fill="#000000">x</text>
</g>
<!-- x&#45;&gt;6738746 -->
<g id="edge10" class="edge">
<title>x&#45;&gt;6738746</title>
<path fill="none" stroke="#0000ff" stroke-width="2" d="M54.003,-208.0991C62.204,-205.5476 71.3599,-202.6991 80.095,-199.9816"/>
<polygon fill="#0000ff" stroke="#0000ff" stroke-width="2" points="81.1962,-203.3045 89.705,-196.9918 79.1167,-196.6205 81.1962,-203.3045"/>
</g>
<!-- 1844169442 -->
<g id="node12" class="node">
<title>1844169442</title>
<path fill="none" stroke="#000000" stroke-width="2" d="M12,-143.5C12,-143.5 42,-143.5 42,-143.5 48,-143.5 54,-149.5 54,-155.5 54,-155.5 54,-167.5 54,-167.5 54,-173.5 48,-179.5 42,-179.5 42,-179.5 12,-179.5 12,-179.5 6,-179.5 0,-173.5 0,-167.5 0,-167.5 0,-155.5 0,-155.5 0,-149.5 6,-143.5 12,-143.5"/>
<text text-anchor="middle" x="27" y="-156.5" font-family="JetBrains Mono" font-size="20.00" fill="#000000">2.0</text>
</g>
<!-- 1844169442&#45;&gt;6738746 -->
<g id="edge11" class="edge">
<title>1844169442&#45;&gt;6738746</title>
<path fill="none" stroke="#ff0000" stroke-width="2" d="M54.003,-169.6009C62.204,-172.0612 71.3599,-174.808 80.095,-177.4285"/>
<polygon fill="#ff0000" stroke="#ff0000" stroke-width="2" points="79.121,-180.7904 89.705,-180.3115 81.1325,-174.0856 79.121,-180.7904"/>
</g>
<!-- 804581391 -->
<g id="node13" class="node">
<title>804581391</title>
<path fill="none" stroke="#000000" stroke-width="2" d="M192,-253.5C192,-253.5 233,-253.5 233,-253.5 239,-253.5 245,-259.5 245,-265.5 245,-265.5 245,-277.5 245,-277.5 245,-283.5 239,-289.5 233,-289.5 233,-289.5 192,-289.5 192,-289.5 186,-289.5 180,-283.5 180,-277.5 180,-277.5 180,-265.5 180,-265.5 180,-259.5 186,-253.5 192,-253.5"/>
<text text-anchor="middle" x="212.5" y="-266.5" font-family="JetBrains Mono" font-size="20.00" fill="#000000">&#45;3.0</text>
</g>
<!-- 804581391&#45;&gt;400136488 -->
<g id="edge12" class="edge">
<title>804581391&#45;&gt;400136488</title>
<path fill="none" stroke="#ff0000" stroke-width="2" d="M245.0986,-256.1394C253.6698,-252.1006 262.9676,-247.7194 271.7191,-243.5957"/>
<polygon fill="#ff0000" stroke="#ff0000" stroke-width="2" points="273.3866,-246.6791 280.9408,-239.2504 270.4028,-240.3469 273.3866,-246.6791"/>
</g>
<!-- y -->
<g id="node14" class="node">
<title>y</title>
<path fill="none" stroke="#000000" stroke-width="2" d="M197.5,-124.5C197.5,-124.5 227.5,-124.5 227.5,-124.5 233.5,-124.5 239.5,-130.5 239.5,-136.5 239.5,-136.5 239.5,-148.5 239.5,-148.5 239.5,-154.5 233.5,-160.5 227.5,-160.5 227.5,-160.5 197.5,-160.5 197.5,-160.5 191.5,-160.5 185.5,-154.5 185.5,-148.5 185.5,-148.5 185.5,-136.5 185.5,-136.5 185.5,-130.5 191.5,-124.5 197.5,-124.5"/>
<text text-anchor="middle" x="212.5" y="-137.5" font-family="JetBrains Mono" font-size="20.00" fill="#000000">y</text>
</g>
<!-- y&#45;&gt;2094777811 -->
<g id="edge13" class="edge">
<title>y&#45;&gt;2094777811</title>
<path fill="none" stroke="#ff0000" stroke-width="2" d="M239.7357,-150.0772C252.2593,-153.453 267.3375,-157.3653 281,-160.5 307.5958,-166.6021 337.822,-172.518 360.8892,-176.8217"/>
<polygon fill="#ff0000" stroke="#ff0000" stroke-width="2" points="360.4754,-180.3044 370.9451,-178.6804 361.7479,-173.421 360.4754,-180.3044"/>
</g>
<!-- 901506536 -->
<g id="node15" class="node">
<title>901506536</title>
<path fill="none" stroke="#000000" stroke-width="2" d="M293,-114.5C293,-114.5 323,-114.5 323,-114.5 329,-114.5 335,-120.5 335,-126.5 335,-126.5 335,-138.5 335,-138.5 335,-144.5 329,-150.5 323,-150.5 323,-150.5 293,-150.5 293,-150.5 287,-150.5 281,-144.5 281,-138.5 281,-138.5 281,-126.5 281,-126.5 281,-120.5 287,-114.5 293,-114.5"/>
<text text-anchor="middle" x="308" y="-127.5" font-family="JetBrains Mono" font-size="20.00" fill="#000000">pow</text>
</g>
<!-- y&#45;&gt;901506536 -->
<g id="edge14" class="edge">
<title>y&#45;&gt;901506536</title>
<path fill="none" stroke="#0000ff" stroke-width="2" d="M239.611,-139.6611C249.2889,-138.6478 260.3674,-137.4877 270.7492,-136.4006"/>
<polygon fill="#0000ff" stroke="#0000ff" stroke-width="2" points="271.2401,-139.8684 280.8212,-135.3459 270.511,-132.9065 271.2401,-139.8684"/>
</g>
<!-- 483422889 -->
<g id="node17" class="node">
<title>483422889</title>
<path fill="none" stroke="#000000" stroke-width="2" d="M293,-4.5C293,-4.5 323,-4.5 323,-4.5 329,-4.5 335,-10.5 335,-16.5 335,-16.5 335,-28.5 335,-28.5 335,-34.5 329,-40.5 323,-40.5 323,-40.5 293,-40.5 293,-40.5 287,-40.5 281,-34.5 281,-28.5 281,-28.5 281,-16.5 281,-16.5 281,-10.5 287,-4.5 293,-4.5"/>
<text text-anchor="middle" x="308" y="-17.5" font-family="JetBrains Mono" font-size="20.00" fill="#000000">pow</text>
</g>
<!-- y&#45;&gt;483422889 -->
<g id="edge15" class="edge">
<title>y&#45;&gt;483422889</title>
<path fill="none" stroke="#0000ff" stroke-width="2" d="M235.5233,-124.4901C238.8978,-121.3469 242.1808,-117.967 245,-114.5 265.8348,-88.8781 261.1305,-75.8775 281,-49.5 281.2792,-49.1294 281.5633,-48.7588 281.8519,-48.3886"/>
<polygon fill="#0000ff" stroke="#0000ff" stroke-width="2" points="284.5427,-50.6274 288.4006,-40.7599 279.2313,-46.0679 284.5427,-50.6274"/>
</g>
<!-- 1975358023 -->
<g id="node16" class="node">
<title>1975358023</title>
<path fill="none" stroke="#000000" stroke-width="2" d="M383,-110.5C383,-110.5 413,-110.5 413,-110.5 419,-110.5 425,-116.5 425,-122.5 425,-122.5 425,-134.5 425,-134.5 425,-140.5 419,-146.5 413,-146.5 413,-146.5 383,-146.5 383,-146.5 377,-146.5 371,-140.5 371,-134.5 371,-134.5 371,-122.5 371,-122.5 371,-116.5 377,-110.5 383,-110.5"/>
<text text-anchor="middle" x="398" y="-123.5" font-family="JetBrains Mono" font-size="20.00" fill="#000000">*</text>
</g>
<!-- 901506536&#45;&gt;1975358023 -->
<g id="edge16" class="edge">
<title>901506536&#45;&gt;1975358023</title>
<path fill="none" stroke="#ff0000" stroke-width="2" d="M335.003,-131.2999C343.0277,-130.9432 351.9665,-130.5459 360.5309,-130.1653"/>
<polygon fill="#ff0000" stroke="#ff0000" stroke-width="2" points="360.8703,-133.6538 370.705,-129.7131 360.5595,-126.6607 360.8703,-133.6538"/>
</g>
<!-- 1975358023&#45;&gt;872627152 -->
<g id="edge17" class="edge">
<title>1975358023&#45;&gt;872627152</title>
<path fill="none" stroke="#ff0000" stroke-width="2" d="M425.003,-128.5C433.0277,-128.5 441.9665,-128.5 450.5309,-128.5"/>
<polygon fill="#ff0000" stroke="#ff0000" stroke-width="2" points="450.7051,-132.0001 460.705,-128.5 450.705,-125.0001 450.7051,-132.0001"/>
</g>
<!-- 659748578 -->
<g id="node18" class="node">
<title>659748578</title>
<path fill="none" stroke="#000000" stroke-width="2" d="M383,-55.5C383,-55.5 413,-55.5 413,-55.5 419,-55.5 425,-61.5 425,-67.5 425,-67.5 425,-79.5 425,-79.5 425,-85.5 419,-91.5 413,-91.5 413,-91.5 383,-91.5 383,-91.5 377,-91.5 371,-85.5 371,-79.5 371,-79.5 371,-67.5 371,-67.5 371,-61.5 377,-55.5 383,-55.5"/>
<text text-anchor="middle" x="398" y="-68.5" font-family="JetBrains Mono" font-size="20.00" fill="#000000">*</text>
</g>
<!-- 483422889&#45;&gt;659748578 -->
<g id="edge18" class="edge">
<title>483422889&#45;&gt;659748578</title>
<path fill="none" stroke="#ff0000" stroke-width="2" d="M335.003,-37.8017C343.4686,-42.5989 352.9516,-47.9726 361.9389,-53.0654"/>
<polygon fill="#ff0000" stroke="#ff0000" stroke-width="2" points="360.2792,-56.1478 370.705,-58.0328 363.7304,-50.0576 360.2792,-56.1478"/>
</g>
<!-- 1809787067 -->
<g id="node19" class="node">
<title>1809787067</title>
<path fill="none" stroke="#000000" stroke-width="2" d="M473,-55.5C473,-55.5 503,-55.5 503,-55.5 509,-55.5 515,-61.5 515,-67.5 515,-67.5 515,-79.5 515,-79.5 515,-85.5 509,-91.5 503,-91.5 503,-91.5 473,-91.5 473,-91.5 467,-91.5 461,-85.5 461,-79.5 461,-79.5 461,-67.5 461,-67.5 461,-61.5 467,-55.5 473,-55.5"/>
<text text-anchor="middle" x="488" y="-68.5" font-family="JetBrains Mono" font-size="20.00" fill="#000000">*</text>
</g>
<!-- 659748578&#45;&gt;1809787067 -->
<g id="edge19" class="edge">
<title>659748578&#45;&gt;1809787067</title>
<path fill="none" stroke="#0000ff" stroke-width="2" d="M425.003,-73.5C433.0277,-73.5 441.9665,-73.5 450.5309,-73.5"/>
<polygon fill="#0000ff" stroke="#0000ff" stroke-width="2" points="450.7051,-77.0001 460.705,-73.5 450.705,-70.0001 450.7051,-77.0001"/>
</g>
<!-- 1809787067&#45;&gt;1638215613 -->
<g id="edge20" class="edge">
<title>1809787067&#45;&gt;1638215613</title>
<path fill="none" stroke="#ff0000" stroke-width="2" d="M515.17,-76.36C564.6522,-81.5687 669.5432,-92.6098 725.8689,-98.5388"/>
<polygon fill="#ff0000" stroke="#ff0000" stroke-width="2" points="725.8148,-102.0524 736.1263,-99.6186 726.5477,-95.0909 725.8148,-102.0524"/>
</g>
<!-- z -->
<g id="node20" class="node">
<title>z</title>
<path fill="none" stroke="#000000" stroke-width="2" d="M293,-59.5C293,-59.5 323,-59.5 323,-59.5 329,-59.5 335,-65.5 335,-71.5 335,-71.5 335,-83.5 335,-83.5 335,-89.5 329,-95.5 323,-95.5 323,-95.5 293,-95.5 293,-95.5 287,-95.5 281,-89.5 281,-83.5 281,-83.5 281,-71.5 281,-71.5 281,-65.5 287,-59.5 293,-59.5"/>
<text text-anchor="middle" x="308" y="-72.5" font-family="JetBrains Mono" font-size="20.00" fill="#000000">z</text>
</g>
<!-- z&#45;&gt;1975358023 -->
<g id="edge21" class="edge">
<title>z&#45;&gt;1975358023</title>
<path fill="none" stroke="#0000ff" stroke-width="2" d="M335.003,-92.8017C343.4686,-97.5989 352.9516,-102.9726 361.9389,-108.0654"/>
<polygon fill="#0000ff" stroke="#0000ff" stroke-width="2" points="360.2792,-111.1478 370.705,-113.0328 363.7304,-105.0576 360.2792,-111.1478"/>
</g>
<!-- z&#45;&gt;659748578 -->
<g id="edge22" class="edge">
<title>z&#45;&gt;659748578</title>
<path fill="none" stroke="#0000ff" stroke-width="2" d="M335.003,-76.2999C343.0277,-75.9432 351.9665,-75.5459 360.5309,-75.1653"/>
<polygon fill="#0000ff" stroke="#0000ff" stroke-width="2" points="360.8703,-78.6538 370.705,-74.7131 360.5595,-71.6607 360.8703,-78.6538"/>
</g>
<!-- 1513712028 -->
<g id="node21" class="node">
<title>1513712028</title>
<path fill="none" stroke="#000000" stroke-width="2" d="M192,-69.5C192,-69.5 233,-69.5 233,-69.5 239,-69.5 245,-75.5 245,-81.5 245,-81.5 245,-93.5 245,-93.5 245,-99.5 239,-105.5 233,-105.5 233,-105.5 192,-105.5 192,-105.5 186,-105.5 180,-99.5 180,-93.5 180,-93.5 180,-81.5 180,-81.5 180,-75.5 186,-69.5 192,-69.5"/>
<text text-anchor="middle" x="212.5" y="-82.5" font-family="JetBrains Mono" font-size="20.00" fill="#000000">&#45;1.0</text>
</g>
<!-- 1513712028&#45;&gt;901506536 -->
<g id="edge23" class="edge">
<title>1513712028&#45;&gt;901506536</title>
<path fill="none" stroke="#ff0000" stroke-width="2" d="M245.0986,-102.8606C253.6698,-106.8994 262.9676,-111.2806 271.7191,-115.4043"/>
<polygon fill="#ff0000" stroke="#ff0000" stroke-width="2" points="270.4028,-118.6531 280.9408,-119.7496 273.3866,-112.3209 270.4028,-118.6531"/>
</g>
<!-- 866191240{color=black, fontcolor=black, fontname=JetBrains Mono, fontsize=20, style=setlinewidth(2), shape=Mrecord}&#45;&gt; -->
<g id="node22" class="node">
<title>866191240{color=black, fontcolor=black, fontname=JetBrains Mono, fontsize=20, style=setlinewidth(2), shape=Mrecord}&#45;&gt;</title>
<path fill="none" stroke="#000000" stroke-width="2" d="M473,-165.5C473,-165.5 503,-165.5 503,-165.5 509,-165.5 515,-171.5 515,-177.5 515,-177.5 515,-189.5 515,-189.5 515,-195.5 509,-201.5 503,-201.5 503,-201.5 473,-201.5 473,-201.5 467,-201.5 461,-195.5 461,-189.5 461,-189.5 461,-177.5 461,-177.5 461,-171.5 467,-165.5 473,-165.5"/>
<text text-anchor="middle" x="488" y="-178.5" font-family="JetBrains Mono" font-size="20.00" fill="#000000">y</text>
</g>
<!-- 866191240{color=black, fontcolor=black, fontname=JetBrains Mono, fontsize=20, style=setlinewidth(2), shape=Mrecord}&#45;&gt;&#45;&gt;866191240 -->
<g id="edge24" class="edge">
<title>866191240{color=black, fontcolor=black, fontname=JetBrains Mono, fontsize=20, style=setlinewidth(2), shape=Mrecord}&#45;&gt;&#45;&gt;866191240</title>
<path fill="none" stroke="#000000" stroke-width="2" d="M515.003,-166.9982C523.4686,-161.8248 532.9516,-156.0296 541.9389,-150.5373"/>
<polygon fill="#000000" stroke="#000000" stroke-width="2" points="543.9973,-153.3813 550.705,-145.1803 540.3471,-147.4083 543.9973,-153.3813"/>
</g>
<!-- 1674896058{color=black, fontcolor=black, fontname=JetBrains Mono, fontsize=20, style=setlinewidth(2), shape=Mrecord}&#45;&gt; -->
<g id="node23" class="node">
<title>1674896058{color=black, fontcolor=black, fontname=JetBrains Mono, fontsize=20, style=setlinewidth(2), shape=Mrecord}&#45;&gt;</title>
<path fill="none" stroke="#000000" stroke-width="2" d="M563,-165.5C563,-165.5 593,-165.5 593,-165.5 599,-165.5 605,-171.5 605,-177.5 605,-177.5 605,-189.5 605,-189.5 605,-195.5 599,-201.5 593,-201.5 593,-201.5 563,-201.5 563,-201.5 557,-201.5 551,-195.5 551,-189.5 551,-189.5 551,-177.5 551,-177.5 551,-171.5 557,-165.5 563,-165.5"/>
<text text-anchor="middle" x="578" y="-178.5" font-family="JetBrains Mono" font-size="20.00" fill="#000000">x</text>
</g>
<!-- 1674896058{color=black, fontcolor=black, fontname=JetBrains Mono, fontsize=20, style=setlinewidth(2), shape=Mrecord}&#45;&gt;&#45;&gt;1674896058 -->
<g id="edge25" class="edge">
<title>1674896058{color=black, fontcolor=black, fontname=JetBrains Mono, fontsize=20, style=setlinewidth(2), shape=Mrecord}&#45;&gt;&#45;&gt;1674896058</title>
<path fill="none" stroke="#000000" stroke-width="2" d="M605.003,-166.9982C613.4686,-161.8248 622.9516,-156.0296 631.9389,-150.5373"/>
<polygon fill="#000000" stroke="#000000" stroke-width="2" points="633.9973,-153.3813 640.705,-145.1803 630.3471,-147.4083 633.9973,-153.3813"/>
</g>
<!-- 1277181601 -->
<g id="node24" class="node">
<title>1277181601</title>
<path fill="none" stroke="#000000" stroke-width="2" d="M192,-4.5C192,-4.5 233,-4.5 233,-4.5 239,-4.5 245,-10.5 245,-16.5 245,-16.5 245,-28.5 245,-28.5 245,-34.5 239,-40.5 233,-40.5 233,-40.5 192,-40.5 192,-40.5 186,-40.5 180,-34.5 180,-28.5 180,-28.5 180,-16.5 180,-16.5 180,-10.5 186,-4.5 192,-4.5"/>
<text text-anchor="middle" x="212.5" y="-17.5" font-family="JetBrains Mono" font-size="20.00" fill="#000000">&#45;1.0</text>
</g>
<!-- 1277181601&#45;&gt;483422889 -->
<g id="edge26" class="edge">
<title>1277181601&#45;&gt;483422889</title>
<path fill="none" stroke="#ff0000" stroke-width="2" d="M245.0986,-22.5C253.3962,-22.5 262.3749,-22.5 270.8796,-22.5"/>
<polygon fill="#ff0000" stroke="#ff0000" stroke-width="2" points="270.9408,-26.0001 280.9408,-22.5 270.9408,-19.0001 270.9408,-26.0001"/>
</g>
<!-- 488970385 -->
<g id="node25" class="node">
<title>488970385</title>
<path fill="none" stroke="#000000" stroke-width="2" d="M383,-.5C383,-.5 413,-.5 413,-.5 419,-.5 425,-6.5 425,-12.5 425,-12.5 425,-24.5 425,-24.5 425,-30.5 419,-36.5 413,-36.5 413,-36.5 383,-36.5 383,-36.5 377,-36.5 371,-30.5 371,-24.5 371,-24.5 371,-12.5 371,-12.5 371,-6.5 377,-.5 383,-.5"/>
<text text-anchor="middle" x="398" y="-13.5" font-family="JetBrains Mono" font-size="20.00" fill="#000000">3.0</text>
</g>
<!-- 488970385&#45;&gt;1809787067 -->
<g id="edge27" class="edge">
<title>488970385&#45;&gt;1809787067</title>
<path fill="none" stroke="#ff0000" stroke-width="2" d="M425.003,-35.0018C433.4686,-40.1752 442.9516,-45.9704 451.9389,-51.4627"/>
<polygon fill="#ff0000" stroke="#ff0000" stroke-width="2" points="450.3471,-54.5917 460.705,-56.8197 453.9973,-48.6187 450.3471,-54.5917"/>
</g>
<!-- 93122545 -->
<g id="node26" class="node">
<title>93122545</title>
<path fill="none" stroke="#000000" stroke-width="2" d="M743,-29.5C743,-29.5 784,-29.5 784,-29.5 790,-29.5 796,-35.5 796,-41.5 796,-41.5 796,-53.5 796,-53.5 796,-59.5 790,-65.5 784,-65.5 784,-65.5 743,-65.5 743,-65.5 737,-65.5 731,-59.5 731,-53.5 731,-53.5 731,-41.5 731,-41.5 731,-35.5 737,-29.5 743,-29.5"/>
<text text-anchor="middle" x="763.5" y="-42.5" font-family="JetBrains Mono" font-size="20.00" fill="#000000">&#45;2.0</text>
</g>
<!-- 93122545&#45;&gt;627150481 -->
<g id="edge28" class="edge">
<title>93122545&#45;&gt;627150481</title>
<path fill="none" stroke="#ff0000" stroke-width="2" d="M796.0986,-56.7164C804.4874,-59.0881 813.5723,-61.6566 822.1598,-64.0844"/>
<polygon fill="#ff0000" stroke="#ff0000" stroke-width="2" points="821.3658,-67.4971 831.9408,-66.8498 823.2702,-60.7611 821.3658,-67.4971"/>
</g>
</g>
</svg>
