<svg width="959px" height="402px"
 viewBox="0.00 0.00 958.86 402.25" xmlns="http://www.w3.org/2000/svg" xmlns:xlink="http://www.w3.org/1999/xlink">
<g id="graph0" class="graph" transform="scale(1.0 1.0) rotate(0) translate(4 398.2548)">
<title>%0</title>
<!-- 1604125387 -->
<g id="node1" class="node">
<title>1604125387</title>
<ellipse fill="none" stroke="#000000" stroke-width="2" cx="923.8573" cy="-147.6274" rx="27" ry="22.7556"/>
<text text-anchor="middle" x="923.8573" y="-141.6274" font-family="Helvetica,sans-Serif" font-size="20.00" fill="#000000">+</text>
</g>
<!-- 1635985705 -->
<g id="node2" class="node">
<title>1635985705</title>
<ellipse fill="none" stroke="#000000" stroke-width="2" cx="825.1824" cy="-179.6274" rx="35.8508" ry="22.7556"/>
<text text-anchor="middle" x="825.1824" y="-173.6274" font-family="Helvetica,sans-Serif" font-size="20.00" fill="#000000">&#45;2.0</text>
</g>
<!-- 1635985705&#45;&gt;1604125387 -->
<g id="edge1" class="edge">
<title>1635985705&#45;&gt;1604125387</title>
<path fill="none" stroke="#000000" stroke-width="2" d="M856.9469,-169.3263C867.1083,-166.031 878.4136,-162.3647 888.796,-158.9977"/>
<polygon fill="#000000" stroke="#000000" stroke-width="2" points="889.9674,-162.2973 898.4,-155.8832 887.808,-155.6387 889.9674,-162.2973"/>
</g>
<!-- 922872566 -->
<g id="node3" class="node">
<title>922872566</title>
<ellipse fill="none" stroke="#000000" stroke-width="2" cx="825.1824" cy="-116.6274" rx="27" ry="22.7556"/>
<text text-anchor="middle" x="825.1824" y="-110.6274" font-family="Helvetica,sans-Serif" font-size="20.00" fill="#000000">+</text>
</g>
<!-- 922872566&#45;&gt;1604125387 -->
<g id="edge2" class="edge">
<title>922872566&#45;&gt;1604125387</title>
<path fill="none" stroke="#000000" stroke-width="2" d="M850.5936,-124.6107C862.2185,-128.2628 876.1817,-132.6495 888.7859,-136.6093"/>
<polygon fill="#000000" stroke="#000000" stroke-width="2" points="887.9429,-140.013 898.5322,-139.6712 890.041,-133.3348 887.9429,-140.013"/>
</g>
<!-- 727001376 -->
<g id="node4" class="node">
<title>727001376</title>
<ellipse fill="none" stroke="#000000" stroke-width="2" cx="726.5074" cy="-148.6274" rx="27" ry="22.7556"/>
<text text-anchor="middle" x="726.5074" y="-142.6274" font-family="Helvetica,sans-Serif" font-size="20.00" fill="#000000">d</text>
</g>
<!-- 727001376&#45;&gt;922872566 -->
<g id="edge3" class="edge">
<title>727001376&#45;&gt;922872566</title>
<path fill="none" stroke="#000000" stroke-width="2" d="M751.9187,-140.3866C763.5436,-136.6167 777.5068,-132.0885 790.1109,-128.001"/>
<polygon fill="#000000" stroke="#000000" stroke-width="2" points="791.4246,-131.2545 799.8572,-124.8403 789.2652,-124.5959 791.4246,-131.2545"/>
</g>
<!-- 523691575 -->
<g id="node5" class="node">
<title>523691575</title>
<ellipse fill="none" stroke="#000000" stroke-width="2" cx="636.5074" cy="-148.6274" rx="27" ry="22.7556"/>
<text text-anchor="middle" x="636.5074" y="-142.6274" font-family="Helvetica,sans-Serif" font-size="20.00" fill="#000000">d</text>
</g>
<!-- 523691575&#45;&gt;727001376 -->
<g id="edge4" class="edge">
<title>523691575&#45;&gt;727001376</title>
<path fill="none" stroke="#000000" stroke-width="2" d="M663.5104,-148.6274C671.5351,-148.6274 680.474,-148.6274 689.0383,-148.6274"/>
<polygon fill="#000000" stroke="#000000" stroke-width="2" points="689.2125,-152.1275 699.2124,-148.6274 689.2124,-145.1275 689.2125,-152.1275"/>
</g>
<!-- 1427810650 -->
<g id="node6" class="node">
<title>1427810650</title>
<ellipse fill="none" stroke="#000000" stroke-width="2" cx="546.5074" cy="-148.6274" rx="27" ry="22.7556"/>
<text text-anchor="middle" x="546.5074" y="-142.6274" font-family="Helvetica,sans-Serif" font-size="20.00" fill="#000000">+</text>
</g>
<!-- 1427810650&#45;&gt;523691575 -->
<g id="edge5" class="edge">
<title>1427810650&#45;&gt;523691575</title>
<path fill="none" stroke="#000000" stroke-width="2" d="M573.5104,-148.6274C581.5351,-148.6274 590.474,-148.6274 599.0383,-148.6274"/>
<polygon fill="#000000" stroke="#000000" stroke-width="2" points="599.2125,-152.1275 609.2124,-148.6274 599.2124,-145.1275 599.2125,-152.1275"/>
</g>
<!-- 503195940 -->
<g id="node7" class="node">
<title>503195940</title>
<ellipse fill="none" stroke="#000000" stroke-width="2" cx="452.5404" cy="-211.6274" rx="27" ry="22.7556"/>
<text text-anchor="middle" x="452.5404" y="-205.6274" font-family="Helvetica,sans-Serif" font-size="20.00" fill="#000000">+</text>
</g>
<!-- 503195940&#45;&gt;1427810650 -->
<g id="edge6" class="edge">
<title>503195940&#45;&gt;1427810650</title>
<path fill="none" stroke="#000000" stroke-width="2" d="M473.863,-197.3317C486.5981,-188.7935 502.9616,-177.8226 516.933,-168.4555"/>
<polygon fill="#000000" stroke="#000000" stroke-width="2" points="518.9123,-171.3424 525.2692,-162.8665 515.0142,-165.5282 518.9123,-171.3424"/>
</g>
<!-- 1852584274 -->
<g id="node8" class="node">
<title>1852584274</title>
<ellipse fill="none" stroke="#000000" stroke-width="2" cx="348.3272" cy="-256.6274" rx="27" ry="22.7556"/>
<text text-anchor="middle" x="348.3272" y="-250.6274" font-family="Helvetica,sans-Serif" font-size="20.00" fill="#000000">+</text>
</g>
<!-- 1852584274&#45;&gt;503195940 -->
<g id="edge7" class="edge">
<title>1852584274&#45;&gt;503195940</title>
<path fill="none" stroke="#000000" stroke-width="2" d="M372.4977,-246.1904C386.3084,-240.2268 403.8365,-232.6581 418.9672,-226.1246"/>
<polygon fill="#000000" stroke="#000000" stroke-width="2" points="420.7078,-229.1854 428.5009,-222.0078 417.9327,-222.7589 420.7078,-229.1854"/>
</g>
<!-- 1917513796 -->
<g id="node9" class="node">
<title>1917513796</title>
<ellipse fill="none" stroke="#000000" stroke-width="2" cx="239.4061" cy="-246.6274" rx="35.8508" ry="22.7556"/>
<text text-anchor="middle" x="239.4061" y="-240.6274" font-family="Helvetica,sans-Serif" font-size="20.00" fill="#000000">&#45;3.0</text>
</g>
<!-- 1917513796&#45;&gt;1852584274 -->
<g id="edge8" class="edge">
<title>1917513796&#45;&gt;1852584274</title>
<path fill="none" stroke="#000000" stroke-width="2" d="M274.7697,-249.8741C286.4924,-250.9504 299.5669,-252.1508 311.4039,-253.2375"/>
<polygon fill="#000000" stroke="#000000" stroke-width="2" points="311.1444,-256.7283 321.4225,-254.1573 311.7844,-249.7576 311.1444,-256.7283"/>
</g>
<!-- 846238611 -->
<g id="node10" class="node">
<title>846238611</title>
<ellipse fill="none" stroke="#000000" stroke-width="2" cx="239.4061" cy="-309.6274" rx="27" ry="22.7556"/>
<text text-anchor="middle" x="239.4061" y="-303.6274" font-family="Helvetica,sans-Serif" font-size="20.00" fill="#000000">+</text>
</g>
<!-- 846238611&#45;&gt;1852584274 -->
<g id="edge9" class="edge">
<title>846238611&#45;&gt;1852584274</title>
<path fill="none" stroke="#000000" stroke-width="2" d="M262.7724,-298.2576C278.1731,-290.7638 298.5627,-280.8424 315.5738,-272.5649"/>
<polygon fill="#000000" stroke="#000000" stroke-width="2" points="317.1631,-275.684 324.6237,-268.1613 314.1003,-269.3896 317.1631,-275.684"/>
</g>
<!-- 1241276575 -->
<g id="node11" class="node">
<title>1241276575</title>
<ellipse fill="none" stroke="#000000" stroke-width="2" cx="132.8326" cy="-340.6274" rx="27" ry="22.7556"/>
<text text-anchor="middle" x="132.8326" y="-334.6274" font-family="Helvetica,sans-Serif" font-size="20.00" fill="#000000">×</text>
</g>
<!-- 1241276575&#45;&gt;846238611 -->
<g id="edge10" class="edge">
<title>1241276575&#45;&gt;846238611</title>
<path fill="none" stroke="#000000" stroke-width="2" d="M158.3596,-333.2021C171.9687,-329.2435 188.9294,-324.31 203.8128,-319.9808"/>
<polygon fill="#000000" stroke="#000000" stroke-width="2" points="205.0936,-323.2534 213.718,-317.0995 203.1384,-316.5319 205.0936,-323.2534"/>
</g>
<!-- 1566502717 -->
<g id="node12" class="node">
<title>1566502717</title>
<ellipse fill="none" stroke="#000000" stroke-width="2" cx="30.967" cy="-371.6274" rx="30.9341" ry="22.7556"/>
<text text-anchor="middle" x="30.967" y="-365.6274" font-family="Helvetica,sans-Serif" font-size="20.00" fill="#000000">2.0</text>
</g>
<!-- 1566502717&#45;&gt;1241276575 -->
<g id="edge11" class="edge">
<title>1566502717&#45;&gt;1241276575</title>
<path fill="none" stroke="#000000" stroke-width="2" d="M59.6134,-362.9097C71.4074,-359.3205 85.1875,-355.1269 97.5915,-351.3521"/>
<polygon fill="#000000" stroke="#000000" stroke-width="2" points="98.6322,-354.6939 107.18,-348.4341 96.5942,-347.9972 98.6322,-354.6939"/>
</g>
<!-- X -->
<g id="node13" class="node">
<title>X</title>
<ellipse fill="none" stroke="#000000" stroke-width="2" cx="30.967" cy="-308.6274" rx="27" ry="22.7556"/>
<text text-anchor="middle" x="30.967" y="-302.6274" font-family="Helvetica,sans-Serif" font-size="20.00" fill="#000000">X</text>
</g>
<!-- X&#45;&gt;1241276575 -->
<g id="edge12" class="edge">
<title>X&#45;&gt;1241276575</title>
<path fill="none" stroke="#000000" stroke-width="2" d="M56.4093,-316.6198C68.9281,-320.5525 84.2151,-325.3547 97.818,-329.6279"/>
<polygon fill="#000000" stroke="#000000" stroke-width="2" points="96.7724,-332.968 107.3617,-332.626 98.8703,-326.2898 96.7724,-332.968"/>
</g>
<!-- 1165897474 -->
<g id="node14" class="node">
<title>1165897474</title>
<ellipse fill="none" stroke="#000000" stroke-width="2" cx="132.8326" cy="-277.6274" rx="30.9341" ry="22.7556"/>
<text text-anchor="middle" x="132.8326" y="-271.6274" font-family="Helvetica,sans-Serif" font-size="20.00" fill="#000000">1.0</text>
</g>
<!-- 1165897474&#45;&gt;846238611 -->
<g id="edge13" class="edge">
<title>1165897474&#45;&gt;846238611</title>
<path fill="none" stroke="#000000" stroke-width="2" d="M161.6729,-286.2871C174.7686,-290.2192 190.3793,-294.9065 204.1635,-299.0454"/>
<polygon fill="#000000" stroke="#000000" stroke-width="2" points="203.2314,-302.4198 213.8156,-301.9435 205.2445,-295.7155 203.2314,-302.4198"/>
</g>
<!-- Y -->
<g id="node15" class="node">
<title>Y</title>
<ellipse fill="none" stroke="#000000" stroke-width="2" cx="239.4061" cy="-164.6274" rx="27" ry="22.7556"/>
<text text-anchor="middle" x="239.4061" y="-158.6274" font-family="Helvetica,sans-Serif" font-size="20.00" fill="#000000">Y</text>
</g>
<!-- Y&#45;&gt;503195940 -->
<g id="edge14" class="edge">
<title>Y&#45;&gt;503195940</title>
<path fill="none" stroke="#000000" stroke-width="2" d="M264.7387,-173.2358C278.3617,-177.6531 295.5159,-182.8782 311.0811,-186.6274 346.2795,-195.1057 387.0475,-202.0077 415.7493,-206.3948"/>
<polygon fill="#000000" stroke="#000000" stroke-width="2" points="415.3362,-209.8719 425.7451,-207.8955 416.3756,-202.9495 415.3362,-209.8719"/>
</g>
<!-- 841283083 -->
<g id="node16" class="node">
<title>841283083</title>
<ellipse fill="none" stroke="#000000" stroke-width="2" cx="348.3272" cy="-154.6274" rx="37.4939" ry="22.7556"/>
<text text-anchor="middle" x="348.3272" y="-148.6274" font-family="Helvetica,sans-Serif" font-size="20.00" fill="#000000">pow</text>
</g>
<!-- Y&#45;&gt;841283083 -->
<g id="edge15" class="edge">
<title>Y&#45;&gt;841283083</title>
<path fill="none" stroke="#000000" stroke-width="2" d="M266.3304,-162.1555C276.8549,-161.1893 289.2413,-160.0521 301.1539,-158.9584"/>
<polygon fill="#000000" stroke="#000000" stroke-width="2" points="301.8039,-162.4135 311.442,-158.0138 301.1639,-155.4428 301.8039,-162.4135"/>
</g>
<!-- 1325808650 -->
<g id="node18" class="node">
<title>1325808650</title>
<ellipse fill="none" stroke="#000000" stroke-width="2" cx="348.3272" cy="-28.6274" rx="37.4939" ry="22.7556"/>
<text text-anchor="middle" x="348.3272" y="-22.6274" font-family="Helvetica,sans-Serif" font-size="20.00" fill="#000000">pow</text>
</g>
<!-- Y&#45;&gt;1325808650 -->
<g id="edge16" class="edge">
<title>Y&#45;&gt;1325808650</title>
<path fill="none" stroke="#000000" stroke-width="2" d="M259.6567,-149.5018C265.0994,-144.8115 270.6878,-139.3577 275.0811,-133.6274 297.3342,-104.602 288.5205,-88.4146 311.0811,-59.6274 312.7158,-57.5416 314.5121,-55.4997 316.4055,-53.5225"/>
<polygon fill="#000000" stroke="#000000" stroke-width="2" points="319.2112,-55.685 324.0532,-46.2613 314.3913,-50.6086 319.2112,-55.685"/>
</g>
<!-- 36333492 -->
<g id="node17" class="node">
<title>36333492</title>
<ellipse fill="none" stroke="#000000" stroke-width="2" cx="452.5404" cy="-148.6274" rx="27" ry="22.7556"/>
<text text-anchor="middle" x="452.5404" y="-142.6274" font-family="Helvetica,sans-Serif" font-size="20.00" fill="#000000">×</text>
</g>
<!-- 841283083&#45;&gt;36333492 -->
<g id="edge17" class="edge">
<title>841283083&#45;&gt;36333492</title>
<path fill="none" stroke="#000000" stroke-width="2" d="M385.6562,-152.4782C395.3494,-151.9201 405.7865,-151.3192 415.4666,-150.7619"/>
<polygon fill="#000000" stroke="#000000" stroke-width="2" points="415.8201,-154.2475 425.6023,-150.1784 415.4177,-147.259 415.8201,-154.2475"/>
</g>
<!-- 36333492&#45;&gt;1427810650 -->
<g id="edge18" class="edge">
<title>36333492&#45;&gt;1427810650</title>
<path fill="none" stroke="#000000" stroke-width="2" d="M479.7195,-148.6274C488.9722,-148.6274 499.4791,-148.6274 509.3755,-148.6274"/>
<polygon fill="#000000" stroke="#000000" stroke-width="2" points="509.3894,-152.1275 519.3893,-148.6274 509.3893,-145.1275 509.3894,-152.1275"/>
</g>
<!-- 1568059495 -->
<g id="node19" class="node">
<title>1568059495</title>
<ellipse fill="none" stroke="#000000" stroke-width="2" cx="452.5404" cy="-85.6274" rx="27" ry="22.7556"/>
<text text-anchor="middle" x="452.5404" y="-79.6274" font-family="Helvetica,sans-Serif" font-size="20.00" fill="#000000">×</text>
</g>
<!-- 1325808650&#45;&gt;1568059495 -->
<g id="edge19" class="edge">
<title>1325808650&#45;&gt;1568059495</title>
<path fill="none" stroke="#000000" stroke-width="2" d="M376.2544,-43.9024C390.0037,-51.4226 406.639,-60.5214 420.8617,-68.3006"/>
<polygon fill="#000000" stroke="#000000" stroke-width="2" points="419.3522,-71.4642 429.8052,-73.1923 422.7113,-65.3228 419.3522,-71.4642"/>
</g>
<!-- 1585787493 -->
<g id="node20" class="node">
<title>1585787493</title>
<ellipse fill="none" stroke="#000000" stroke-width="2" cx="546.5074" cy="-85.6274" rx="27" ry="22.7556"/>
<text text-anchor="middle" x="546.5074" y="-79.6274" font-family="Helvetica,sans-Serif" font-size="20.00" fill="#000000">×</text>
</g>
<!-- 1568059495&#45;&gt;1585787493 -->
<g id="edge20" class="edge">
<title>1568059495&#45;&gt;1585787493</title>
<path fill="none" stroke="#000000" stroke-width="2" d="M479.7195,-85.6274C488.9722,-85.6274 499.4791,-85.6274 509.3755,-85.6274"/>
<polygon fill="#000000" stroke="#000000" stroke-width="2" points="509.3894,-89.1275 519.3893,-85.6274 509.3893,-82.1275 509.3894,-89.1275"/>
</g>
<!-- 1585787493&#45;&gt;922872566 -->
<g id="edge21" class="edge">
<title>1585787493&#45;&gt;922872566</title>
<path fill="none" stroke="#000000" stroke-width="2" d="M573.4812,-88.628C623.6319,-94.2068 731.2859,-106.1823 788.1854,-112.5118"/>
<polygon fill="#000000" stroke="#000000" stroke-width="2" points="787.8681,-115.9981 798.1938,-113.6252 788.6421,-109.041 787.8681,-115.9981"/>
</g>
<!-- Z -->
<g id="node21" class="node">
<title>Z</title>
<ellipse fill="none" stroke="#000000" stroke-width="2" cx="348.3272" cy="-91.6274" rx="27" ry="22.7556"/>
<text text-anchor="middle" x="348.3272" y="-85.6274" font-family="Helvetica,sans-Serif" font-size="20.00" fill="#000000">Z</text>
</g>
<!-- Z&#45;&gt;36333492 -->
<g id="edge22" class="edge">
<title>Z&#45;&gt;36333492</title>
<path fill="none" stroke="#000000" stroke-width="2" d="M370.9399,-103.9956C385.4521,-111.9331 404.5153,-122.3598 420.5665,-131.1391"/>
<polygon fill="#000000" stroke="#000000" stroke-width="2" points="419.159,-134.3585 429.6119,-136.0866 422.5181,-128.2171 419.159,-134.3585"/>
</g>
<!-- Z&#45;&gt;1568059495 -->
<g id="edge23" class="edge">
<title>Z&#45;&gt;1568059495</title>
<path fill="none" stroke="#000000" stroke-width="2" d="M375.4359,-90.0667C387.6182,-89.3653 402.1896,-88.5263 415.3687,-87.7675"/>
<polygon fill="#000000" stroke="#000000" stroke-width="2" points="415.7851,-91.2495 425.5674,-87.1804 415.3827,-84.261 415.7851,-91.2495"/>
</g>
<!-- 520016214 -->
<g id="node22" class="node">
<title>520016214</title>
<ellipse fill="none" stroke="#000000" stroke-width="2" cx="239.4061" cy="-101.6274" rx="34.7974" ry="22.7556"/>
<text text-anchor="middle" x="239.4061" y="-95.6274" font-family="Helvetica,sans-Serif" font-size="20.00" fill="#000000">neg</text>
</g>
<!-- 520016214&#45;&gt;841283083 -->
<g id="edge24" class="edge">
<title>520016214&#45;&gt;841283083</title>
<path fill="none" stroke="#000000" stroke-width="2" d="M267.456,-115.2762C280.3619,-121.5561 295.8786,-129.1064 309.8542,-135.9068"/>
<polygon fill="#000000" stroke="#000000" stroke-width="2" points="308.7089,-139.2418 319.2323,-140.4701 311.7717,-132.9474 308.7089,-139.2418"/>
</g>
<!-- 1282473384 -->
<g id="node23" class="node">
<title>1282473384</title>
<ellipse fill="none" stroke="#000000" stroke-width="2" cx="132.8326" cy="-101.6274" rx="34.7974" ry="22.7556"/>
<text text-anchor="middle" x="132.8326" y="-95.6274" font-family="Helvetica,sans-Serif" font-size="20.00" fill="#000000">one</text>
</g>
<!-- 1282473384&#45;&gt;520016214 -->
<g id="edge25" class="edge">
<title>1282473384&#45;&gt;520016214</title>
<path fill="none" stroke="#000000" stroke-width="2" d="M168.0241,-101.6274C176.3911,-101.6274 185.4334,-101.6274 194.1792,-101.6274"/>
<polygon fill="#000000" stroke="#000000" stroke-width="2" points="194.2516,-105.1275 204.2516,-101.6274 194.2515,-98.1275 194.2516,-105.1275"/>
</g>
<!-- 523691575{color=black, fontcolor=black, fontname=Helvetica, fontsize=20, style=setlinewidth(2)}&#45;&gt; -->
<g id="node24" class="node">
<title>523691575{color=black, fontcolor=black, fontname=Helvetica, fontsize=20, style=setlinewidth(2)}&#45;&gt;</title>
<ellipse fill="none" stroke="#000000" stroke-width="2" cx="546.5074" cy="-211.6274" rx="27" ry="22.7556"/>
<text text-anchor="middle" x="546.5074" y="-205.6274" font-family="Helvetica,sans-Serif" font-size="20.00" fill="#000000">Y</text>
</g>
<!-- 523691575{color=black, fontcolor=black, fontname=Helvetica, fontsize=20, style=setlinewidth(2)}&#45;&gt;&#45;&gt;523691575 -->
<g id="edge26" class="edge">
<title>523691575{color=black, fontcolor=black, fontname=Helvetica, fontsize=20, style=setlinewidth(2)}&#45;&gt;&#45;&gt;523691575</title>
<path fill="none" stroke="#000000" stroke-width="2" d="M567.3814,-197.0156C579.3086,-188.6666 594.446,-178.0704 607.5132,-168.9234"/>
<polygon fill="#000000" stroke="#000000" stroke-width="2" points="609.5614,-171.762 615.7466,-163.16 605.5471,-166.0273 609.5614,-171.762"/>
</g>
<!-- 727001376{color=black, fontcolor=black, fontname=Helvetica, fontsize=20, style=setlinewidth(2)}&#45;&gt; -->
<g id="node25" class="node">
<title>727001376{color=black, fontcolor=black, fontname=Helvetica, fontsize=20, style=setlinewidth(2)}&#45;&gt;</title>
<ellipse fill="none" stroke="#000000" stroke-width="2" cx="636.5074" cy="-211.6274" rx="27" ry="22.7556"/>
<text text-anchor="middle" x="636.5074" y="-205.6274" font-family="Helvetica,sans-Serif" font-size="20.00" fill="#000000">X</text>
</g>
<!-- 727001376{color=black, fontcolor=black, fontname=Helvetica, fontsize=20, style=setlinewidth(2)}&#45;&gt;&#45;&gt;727001376 -->
<g id="edge27" class="edge">
<title>727001376{color=black, fontcolor=black, fontname=Helvetica, fontsize=20, style=setlinewidth(2)}&#45;&gt;&#45;&gt;727001376</title>
<path fill="none" stroke="#000000" stroke-width="2" d="M657.3814,-197.0156C669.3086,-188.6666 684.446,-178.0704 697.5132,-168.9234"/>
<polygon fill="#000000" stroke="#000000" stroke-width="2" points="699.5614,-171.762 705.7466,-163.16 695.5471,-166.0273 699.5614,-171.762"/>
</g>
<!-- 1379435698 -->
<g id="node26" class="node">
<title>1379435698</title>
<ellipse fill="none" stroke="#000000" stroke-width="2" cx="452.5404" cy="-22.6274" rx="30.9341" ry="22.7556"/>
<text text-anchor="middle" x="452.5404" y="-16.6274" font-family="Helvetica,sans-Serif" font-size="20.00" fill="#000000">3.0</text>
</g>
<!-- 1379435698&#45;&gt;1585787493 -->
<g id="edge28" class="edge">
<title>1379435698&#45;&gt;1585787493</title>
<path fill="none" stroke="#000000" stroke-width="2" d="M475.7682,-38.2005C488.1622,-46.51 503.5491,-56.8261 516.804,-65.7128"/>
<polygon fill="#000000" stroke="#000000" stroke-width="2" points="514.8986,-68.6491 525.1536,-71.3108 518.7967,-62.8349 514.8986,-68.6491"/>
</g>
<!-- 1987083830 -->
<g id="node27" class="node">
<title>1987083830</title>
<ellipse fill="none" stroke="#000000" stroke-width="2" cx="239.4061" cy="-28.6274" rx="34.7974" ry="22.7556"/>
<text text-anchor="middle" x="239.4061" y="-22.6274" font-family="Helvetica,sans-Serif" font-size="20.00" fill="#000000">neg</text>
</g>
<!-- 1987083830&#45;&gt;1325808650 -->
<g id="edge29" class="edge">
<title>1987083830&#45;&gt;1325808650</title>
<path fill="none" stroke="#000000" stroke-width="2" d="M274.469,-28.6274C282.8724,-28.6274 291.9845,-28.6274 300.846,-28.6274"/>
<polygon fill="#000000" stroke="#000000" stroke-width="2" points="301.0761,-32.1275 311.076,-28.6274 301.076,-25.1275 301.0761,-32.1275"/>
</g>
<!-- 1157740463 -->
<g id="node28" class="node">
<title>1157740463</title>
<ellipse fill="none" stroke="#000000" stroke-width="2" cx="132.8326" cy="-28.6274" rx="34.7974" ry="22.7556"/>
<text text-anchor="middle" x="132.8326" y="-22.6274" font-family="Helvetica,sans-Serif" font-size="20.00" fill="#000000">one</text>
</g>
<!-- 1157740463&#45;&gt;1987083830 -->
<g id="edge30" class="edge">
<title>1157740463&#45;&gt;1987083830</title>
<path fill="none" stroke="#000000" stroke-width="2" d="M168.0241,-28.6274C176.3911,-28.6274 185.4334,-28.6274 194.1792,-28.6274"/>
<polygon fill="#000000" stroke="#000000" stroke-width="2" points="194.2516,-32.1275 204.2516,-28.6274 194.2515,-25.1275 194.2516,-32.1275"/>
</g>
</g>
</svg>
