<svg width="962px" height="378px"
 viewBox="0.00 0.00 962.36 378.43" xmlns="http://www.w3.org/2000/svg" xmlns:xlink="http://www.w3.org/1999/xlink">
<g id="graph0" class="graph" transform="scale(1.0 1.0) rotate(0) translate(4 374.4264)">
<title>%3</title>
<!-- 274064559 -->
<g id="node1" class="node">
<title>274064559</title>
<ellipse fill="none" stroke="#000000" stroke-width="2" cx="927.3646" cy="-143.2132" rx="27" ry="21.4286"/>
<text text-anchor="middle" x="927.3646" y="-138.2132" font-family="Helvetica,sans-Serif" font-size="20.00" fill="#000000">+</text>
</g>
<!-- 38997010 -->
<g id="node2" class="node">
<title>38997010</title>
<ellipse fill="none" stroke="#000000" stroke-width="2" cx="828.3021" cy="-173.2132" rx="36.125" ry="21.4286"/>
<text text-anchor="middle" x="828.3021" y="-168.2132" font-family="Helvetica,sans-Serif" font-size="20.00" fill="#000000">&#45;2.0</text>
</g>
<!-- 38997010&#45;&gt;274064559 -->
<g id="edge1" class="edge">
<title>38997010&#45;&gt;274064559</title>
<path fill="none" stroke="#000000" stroke-width="2" d="M860.4649,-163.4731C870.6543,-160.3873 881.9666,-156.9615 892.3463,-153.8181"/>
<polygon fill="#000000" stroke="#000000" stroke-width="2" points="893.3887,-157.1595 901.945,-150.9112 891.3598,-150.46 893.3887,-157.1595"/>
</g>
<!-- 707806938 -->
<g id="node3" class="node">
<title>707806938</title>
<ellipse fill="none" stroke="#000000" stroke-width="2" cx="828.3021" cy="-113.2132" rx="27" ry="21.4286"/>
<text text-anchor="middle" x="828.3021" y="-108.2132" font-family="Helvetica,sans-Serif" font-size="20.00" fill="#000000">+</text>
</g>
<!-- 707806938&#45;&gt;274064559 -->
<g id="edge2" class="edge">
<title>707806938&#45;&gt;274064559</title>
<path fill="none" stroke="#000000" stroke-width="2" d="M853.5561,-120.8611C865.3164,-124.4226 879.5026,-128.7187 892.2823,-132.5889"/>
<polygon fill="#000000" stroke="#000000" stroke-width="2" points="891.5715,-136.0306 902.1567,-135.5793 893.6004,-129.331 891.5715,-136.0306"/>
</g>
<!-- 428746855 -->
<g id="node4" class="node">
<title>428746855</title>
<ellipse fill="none" stroke="#000000" stroke-width="2" cx="729.2397" cy="-141.2132" rx="27" ry="21.4286"/>
<text text-anchor="middle" x="729.2397" y="-136.2132" font-family="Helvetica,sans-Serif" font-size="20.00" fill="#000000">d</text>
</g>
<!-- 428746855&#45;&gt;707806938 -->
<g id="edge3" class="edge">
<title>428746855&#45;&gt;707806938</title>
<path fill="none" stroke="#000000" stroke-width="2" d="M754.7507,-134.0025C766.4213,-130.7038 780.4393,-126.7416 793.093,-123.1651"/>
<polygon fill="#000000" stroke="#000000" stroke-width="2" points="794.2065,-126.4875 802.8775,-120.3995 792.3025,-119.7514 794.2065,-126.4875"/>
</g>
<!-- 987405879 -->
<g id="node5" class="node">
<title>987405879</title>
<ellipse fill="none" stroke="#000000" stroke-width="2" cx="639.2397" cy="-141.2132" rx="27" ry="21.4286"/>
<text text-anchor="middle" x="639.2397" y="-136.2132" font-family="Helvetica,sans-Serif" font-size="20.00" fill="#000000">d</text>
</g>
<!-- 987405879&#45;&gt;428746855 -->
<g id="edge4" class="edge">
<title>987405879&#45;&gt;428746855</title>
<path fill="none" stroke="#000000" stroke-width="2" d="M666.2426,-141.2132C674.2673,-141.2132 683.2062,-141.2132 691.7705,-141.2132"/>
<polygon fill="#000000" stroke="#000000" stroke-width="2" points="691.9447,-144.7133 701.9447,-141.2132 691.9447,-137.7133 691.9447,-144.7133"/>
</g>
<!-- 874088044 -->
<g id="node6" class="node">
<title>874088044</title>
<ellipse fill="none" stroke="#000000" stroke-width="2" cx="549.2397" cy="-141.2132" rx="27" ry="21.4286"/>
<text text-anchor="middle" x="549.2397" y="-136.2132" font-family="Helvetica,sans-Serif" font-size="20.00" fill="#000000">+</text>
</g>
<!-- 874088044&#45;&gt;987405879 -->
<g id="edge5" class="edge">
<title>874088044&#45;&gt;987405879</title>
<path fill="none" stroke="#000000" stroke-width="2" d="M576.2426,-141.2132C584.2673,-141.2132 593.2062,-141.2132 601.7705,-141.2132"/>
<polygon fill="#000000" stroke="#000000" stroke-width="2" points="601.9447,-144.7133 611.9447,-141.2132 601.9447,-137.7133 601.9447,-144.7133"/>
</g>
<!-- 1761291320 -->
<g id="node7" class="node">
<title>1761291320</title>
<ellipse fill="none" stroke="#000000" stroke-width="2" cx="455.127" cy="-201.2132" rx="27" ry="21.4286"/>
<text text-anchor="middle" x="455.127" y="-196.2132" font-family="Helvetica,sans-Serif" font-size="20.00" fill="#000000">+</text>
</g>
<!-- 1761291320&#45;&gt;874088044 -->
<g id="edge6" class="edge">
<title>1761291320&#45;&gt;874088044</title>
<path fill="none" stroke="#000000" stroke-width="2" d="M476.4826,-187.5983C489.1172,-179.5433 505.3175,-169.2151 519.2228,-160.35"/>
<polygon fill="#000000" stroke="#000000" stroke-width="2" points="521.4179,-163.1013 527.9686,-154.7743 517.6549,-157.1988 521.4179,-163.1013"/>
</g>
<!-- 783286238 -->
<g id="node8" class="node">
<title>783286238</title>
<ellipse fill="none" stroke="#000000" stroke-width="2" cx="350.5376" cy="-239.2132" rx="27" ry="21.4286"/>
<text text-anchor="middle" x="350.5376" y="-234.2132" font-family="Helvetica,sans-Serif" font-size="20.00" fill="#000000">+</text>
</g>
<!-- 783286238&#45;&gt;1761291320 -->
<g id="edge7" class="edge">
<title>783286238&#45;&gt;1761291320</title>
<path fill="none" stroke="#000000" stroke-width="2" d="M375.0592,-230.3039C388.7291,-225.3373 405.9659,-219.0747 420.9419,-213.6335"/>
<polygon fill="#000000" stroke="#000000" stroke-width="2" points="422.193,-216.9029 430.3967,-210.1984 419.8026,-210.3237 422.193,-216.9029"/>
</g>
<!-- 1323468230 -->
<g id="node9" class="node">
<title>1323468230</title>
<ellipse fill="none" stroke="#000000" stroke-width="2" cx="240.9985" cy="-229.2132" rx="36.125" ry="21.4286"/>
<text text-anchor="middle" x="240.9985" y="-224.2132" font-family="Helvetica,sans-Serif" font-size="20.00" fill="#000000">&#45;3.0</text>
</g>
<!-- 1323468230&#45;&gt;783286238 -->
<g id="edge8" class="edge">
<title>1323468230&#45;&gt;783286238</title>
<path fill="none" stroke="#000000" stroke-width="2" d="M276.8657,-232.4876C288.6408,-233.5625 301.7446,-234.7588 313.5977,-235.8409"/>
<polygon fill="#000000" stroke="#000000" stroke-width="2" points="313.3506,-239.3328 323.6274,-236.7565 313.987,-232.3618 313.3506,-239.3328"/>
</g>
<!-- 1464642111 -->
<g id="node10" class="node">
<title>1464642111</title>
<ellipse fill="none" stroke="#000000" stroke-width="2" cx="240.9985" cy="-289.2132" rx="27" ry="21.4286"/>
<text text-anchor="middle" x="240.9985" y="-284.2132" font-family="Helvetica,sans-Serif" font-size="20.00" fill="#000000">+</text>
</g>
<!-- 1464642111&#45;&gt;783286238 -->
<g id="edge9" class="edge">
<title>1464642111&#45;&gt;783286238</title>
<path fill="none" stroke="#000000" stroke-width="2" d="M264.4974,-278.4869C280.0915,-271.3689 300.7719,-261.9292 317.9494,-254.0883"/>
<polygon fill="#000000" stroke="#000000" stroke-width="2" points="319.4339,-257.2582 327.0776,-249.9217 316.5271,-250.8902 319.4339,-257.2582"/>
</g>
<!-- 392292416 -->
<g id="node11" class="node">
<title>392292416</title>
<ellipse fill="none" stroke="#000000" stroke-width="2" cx="133.5807" cy="-319.2132" rx="27" ry="21.4286"/>
<text text-anchor="middle" x="133.5807" y="-314.2132" font-family="Helvetica,sans-Serif" font-size="20.00" fill="#000000">×</text>
</g>
<!-- 392292416&#45;&gt;1464642111 -->
<g id="edge10" class="edge">
<title>392292416&#45;&gt;1464642111</title>
<path fill="none" stroke="#000000" stroke-width="2" d="M159.0373,-312.1036C172.8491,-308.2462 190.1456,-303.4156 205.2852,-299.1873"/>
<polygon fill="#000000" stroke="#000000" stroke-width="2" points="206.6625,-302.4367 215.3525,-296.3757 204.7796,-295.6947 206.6625,-302.4367"/>
</g>
<!-- 1512981843 -->
<g id="node12" class="node">
<title>1512981843</title>
<ellipse fill="none" stroke="#000000" stroke-width="2" cx="31.1127" cy="-349.2132" rx="31.2258" ry="21.4286"/>
<text text-anchor="middle" x="31.1127" y="-344.2132" font-family="Helvetica,sans-Serif" font-size="20.00" fill="#000000">2.0</text>
</g>
<!-- 1512981843&#45;&gt;392292416 -->
<g id="edge11" class="edge">
<title>1512981843&#45;&gt;392292416</title>
<path fill="none" stroke="#000000" stroke-width="2" d="M59.9284,-340.7767C71.8857,-337.2759 85.8723,-333.181 98.4257,-329.5057"/>
<polygon fill="#000000" stroke="#000000" stroke-width="2" points="99.5062,-332.8363 108.1199,-326.6675 97.5393,-326.1183 99.5062,-332.8363"/>
</g>
<!-- X -->
<g id="node13" class="node">
<title>X</title>
<ellipse fill="none" stroke="#000000" stroke-width="2" cx="31.1127" cy="-289.2132" rx="27" ry="21.4286"/>
<text text-anchor="middle" x="31.1127" y="-284.2132" font-family="Helvetica,sans-Serif" font-size="20.00" fill="#000000">X</text>
</g>
<!-- X&#45;&gt;392292416 -->
<g id="edge12" class="edge">
<title>X&#45;&gt;392292416</title>
<path fill="none" stroke="#000000" stroke-width="2" d="M56.4419,-296.6289C69.1274,-300.3429 84.6882,-304.8987 98.5031,-308.9434"/>
<polygon fill="#000000" stroke="#000000" stroke-width="2" points="97.6072,-312.3279 108.1878,-311.7788 99.5741,-305.6099 97.6072,-312.3279"/>
</g>
<!-- 410424423 -->
<g id="node14" class="node">
<title>410424423</title>
<ellipse fill="none" stroke="#000000" stroke-width="2" cx="133.5807" cy="-259.2132" rx="31.2258" ry="21.4286"/>
<text text-anchor="middle" x="133.5807" y="-254.2132" font-family="Helvetica,sans-Serif" font-size="20.00" fill="#000000">1.0</text>
</g>
<!-- 410424423&#45;&gt;1464642111 -->
<g id="edge13" class="edge">
<title>410424423&#45;&gt;1464642111</title>
<path fill="none" stroke="#000000" stroke-width="2" d="M162.6495,-267.3316C175.849,-271.018 191.5833,-275.4124 205.4767,-279.2925"/>
<polygon fill="#000000" stroke="#000000" stroke-width="2" points="204.6323,-282.6906 215.2052,-282.0096 206.5153,-275.9486 204.6323,-282.6906"/>
</g>
<!-- Y -->
<g id="node15" class="node">
<title>Y</title>
<ellipse fill="none" stroke="#000000" stroke-width="2" cx="240.9985" cy="-160.2132" rx="27" ry="21.4286"/>
<text text-anchor="middle" x="240.9985" y="-155.2132" font-family="Helvetica,sans-Serif" font-size="20.00" fill="#000000">Y</text>
</g>
<!-- Y&#45;&gt;1761291320 -->
<g id="edge14" class="edge">
<title>Y&#45;&gt;1761291320</title>
<path fill="none" stroke="#000000" stroke-width="2" d="M267.2549,-165.2406C305.2215,-172.5102 375.6007,-185.986 418.6092,-194.221"/>
<polygon fill="#000000" stroke="#000000" stroke-width="2" points="418.1761,-197.7016 428.6559,-196.1447 419.4925,-190.8265 418.1761,-197.7016"/>
</g>
<!-- 578866604 -->
<g id="node16" class="node">
<title>578866604</title>
<ellipse fill="none" stroke="#000000" stroke-width="2" cx="350.5376" cy="-141.2132" rx="37.4533" ry="21.4286"/>
<text text-anchor="middle" x="350.5376" y="-136.2132" font-family="Helvetica,sans-Serif" font-size="20.00" fill="#000000">pow</text>
</g>
<!-- Y&#45;&gt;578866604 -->
<g id="edge15" class="edge">
<title>Y&#45;&gt;578866604</title>
<path fill="none" stroke="#000000" stroke-width="2" d="M267.5149,-155.6138C278.6063,-153.69 291.8264,-151.3969 304.4204,-149.2124"/>
<polygon fill="#000000" stroke="#000000" stroke-width="2" points="305.0789,-152.6505 314.3336,-147.4929 303.8825,-145.7535 305.0789,-152.6505"/>
</g>
<!-- 1123225098 -->
<g id="node18" class="node">
<title>1123225098</title>
<ellipse fill="none" stroke="#000000" stroke-width="2" cx="350.5376" cy="-21.2132" rx="37.4533" ry="21.4286"/>
<text text-anchor="middle" x="350.5376" y="-16.2132" font-family="Helvetica,sans-Serif" font-size="20.00" fill="#000000">pow</text>
</g>
<!-- Y&#45;&gt;1123225098 -->
<g id="edge16" class="edge">
<title>Y&#45;&gt;1123225098</title>
<path fill="none" stroke="#000000" stroke-width="2" d="M261.2115,-146.0775C266.8342,-141.4754 272.6121,-136.0382 277.061,-130.2132 300.4809,-99.5489 289.3532,-81.6555 313.061,-51.2132 314.8373,-48.9323 316.8202,-46.7188 318.9213,-44.5962"/>
<polygon fill="#000000" stroke="#000000" stroke-width="2" points="321.374,-47.096 326.3908,-37.7642 316.6496,-41.9307 321.374,-47.096"/>
</g>
<!-- 1876631416 -->
<g id="node17" class="node">
<title>1876631416</title>
<ellipse fill="none" stroke="#000000" stroke-width="2" cx="455.127" cy="-141.2132" rx="27" ry="21.4286"/>
<text text-anchor="middle" x="455.127" y="-136.2132" font-family="Helvetica,sans-Serif" font-size="20.00" fill="#000000">×</text>
</g>
<!-- 578866604&#45;&gt;1876631416 -->
<g id="edge17" class="edge">
<title>578866604&#45;&gt;1876631416</title>
<path fill="none" stroke="#000000" stroke-width="2" d="M388.2968,-141.2132C397.9221,-141.2132 408.261,-141.2132 417.8615,-141.2132"/>
<polygon fill="#000000" stroke="#000000" stroke-width="2" points="417.9204,-144.7133 427.9204,-141.2132 417.9204,-137.7133 417.9204,-144.7133"/>
</g>
<!-- 1876631416&#45;&gt;874088044 -->
<g id="edge18" class="edge">
<title>1876631416&#45;&gt;874088044</title>
<path fill="none" stroke="#000000" stroke-width="2" d="M482.3483,-141.2132C491.6153,-141.2132 502.1385,-141.2132 512.0502,-141.2132"/>
<polygon fill="#000000" stroke="#000000" stroke-width="2" points="512.0796,-144.7133 522.0796,-141.2132 512.0795,-137.7133 512.0796,-144.7133"/>
</g>
<!-- 1712536284 -->
<g id="node19" class="node">
<title>1712536284</title>
<ellipse fill="none" stroke="#000000" stroke-width="2" cx="455.127" cy="-81.2132" rx="27" ry="21.4286"/>
<text text-anchor="middle" x="455.127" y="-76.2132" font-family="Helvetica,sans-Serif" font-size="20.00" fill="#000000">×</text>
</g>
<!-- 1123225098&#45;&gt;1712536284 -->
<g id="edge19" class="edge">
<title>1123225098&#45;&gt;1712536284</title>
<path fill="none" stroke="#000000" stroke-width="2" d="M376.9299,-36.3537C391.2626,-44.576 409.0681,-54.7905 424.0665,-63.3947"/>
<polygon fill="#000000" stroke="#000000" stroke-width="2" points="422.5706,-66.5715 432.9862,-68.5117 426.0538,-60.4997 422.5706,-66.5715"/>
</g>
<!-- 1151020327 -->
<g id="node20" class="node">
<title>1151020327</title>
<ellipse fill="none" stroke="#000000" stroke-width="2" cx="549.2397" cy="-81.2132" rx="27" ry="21.4286"/>
<text text-anchor="middle" x="549.2397" y="-76.2132" font-family="Helvetica,sans-Serif" font-size="20.00" fill="#000000">×</text>
</g>
<!-- 1712536284&#45;&gt;1151020327 -->
<g id="edge20" class="edge">
<title>1712536284&#45;&gt;1151020327</title>
<path fill="none" stroke="#000000" stroke-width="2" d="M482.3483,-81.2132C491.6153,-81.2132 502.1385,-81.2132 512.0502,-81.2132"/>
<polygon fill="#000000" stroke="#000000" stroke-width="2" points="512.0796,-84.7133 522.0796,-81.2132 512.0795,-77.7133 512.0796,-84.7133"/>
</g>
<!-- 1151020327&#45;&gt;707806938 -->
<g id="edge21" class="edge">
<title>1151020327&#45;&gt;707806938</title>
<path fill="none" stroke="#000000" stroke-width="2" d="M575.9974,-84.2815C626.0838,-90.0249 734.0761,-102.4083 791.1721,-108.9555"/>
<polygon fill="#000000" stroke="#000000" stroke-width="2" points="790.8818,-112.4451 801.2154,-110.1072 791.6793,-105.4906 790.8818,-112.4451"/>
</g>
<!-- Z -->
<g id="node21" class="node">
<title>Z</title>
<ellipse fill="none" stroke="#000000" stroke-width="2" cx="350.5376" cy="-81.2132" rx="27" ry="21.4286"/>
<text text-anchor="middle" x="350.5376" y="-76.2132" font-family="Helvetica,sans-Serif" font-size="20.00" fill="#000000">Z</text>
</g>
<!-- Z&#45;&gt;1876631416 -->
<g id="edge22" class="edge">
<title>Z&#45;&gt;1876631416</title>
<path fill="none" stroke="#000000" stroke-width="2" d="M372.463,-93.7912C387.5242,-102.4313 407.7285,-114.022 424.3923,-123.5816"/>
<polygon fill="#000000" stroke="#000000" stroke-width="2" points="422.8148,-126.7116 433.2305,-128.6518 426.2981,-120.6398 422.8148,-126.7116"/>
</g>
<!-- Z&#45;&gt;1712536284 -->
<g id="edge23" class="edge">
<title>Z&#45;&gt;1712536284</title>
<path fill="none" stroke="#000000" stroke-width="2" d="M377.7442,-81.2132C389.9705,-81.2132 404.5945,-81.2132 417.8211,-81.2132"/>
<polygon fill="#000000" stroke="#000000" stroke-width="2" points="418.0566,-84.7133 428.0566,-81.2132 418.0566,-77.7133 418.0566,-84.7133"/>
</g>
<!-- 1338823963 -->
<g id="node22" class="node">
<title>1338823963</title>
<ellipse fill="none" stroke="#000000" stroke-width="2" cx="240.9985" cy="-100.2132" rx="35.2113" ry="21.4286"/>
<text text-anchor="middle" x="240.9985" y="-95.2132" font-family="Helvetica,sans-Serif" font-size="20.00" fill="#000000">neg</text>
</g>
<!-- 1338823963&#45;&gt;578866604 -->
<g id="edge24" class="edge">
<title>1338823963&#45;&gt;578866604</title>
<path fill="none" stroke="#000000" stroke-width="2" d="M271.2205,-111.5252C283.1298,-115.9827 296.9914,-121.1711 309.7645,-125.952"/>
<polygon fill="#000000" stroke="#000000" stroke-width="2" points="308.6771,-129.2821 319.2695,-129.5097 311.131,-122.7263 308.6771,-129.2821"/>
</g>
<!-- 326549596 -->
<g id="node23" class="node">
<title>326549596</title>
<ellipse fill="none" stroke="#000000" stroke-width="2" cx="133.5807" cy="-100.2132" rx="35.2113" ry="21.4286"/>
<text text-anchor="middle" x="133.5807" y="-95.2132" font-family="Helvetica,sans-Serif" font-size="20.00" fill="#000000">one</text>
</g>
<!-- 326549596&#45;&gt;1338823963 -->
<g id="edge25" class="edge">
<title>326549596&#45;&gt;1338823963</title>
<path fill="none" stroke="#000000" stroke-width="2" d="M169.051,-100.2132C177.4842,-100.2132 186.5982,-100.2132 195.4133,-100.2132"/>
<polygon fill="#000000" stroke="#000000" stroke-width="2" points="195.5655,-103.7133 205.5655,-100.2132 195.5654,-96.7133 195.5655,-103.7133"/>
</g>
<!-- 987405879{color=black, fontcolor=black, fontname=Helvetica, fontsize=20, style=setlinewidth(2)}&#45;&gt; -->
<g id="node24" class="node">
<title>987405879{color=black, fontcolor=black, fontname=Helvetica, fontsize=20, style=setlinewidth(2)}&#45;&gt;</title>
<ellipse fill="none" stroke="#000000" stroke-width="2" cx="549.2397" cy="-201.2132" rx="27" ry="21.4286"/>
<text text-anchor="middle" x="549.2397" y="-196.2132" font-family="Helvetica,sans-Serif" font-size="20.00" fill="#000000">Y</text>
</g>
<!-- 987405879{color=black, fontcolor=black, fontname=Helvetica, fontsize=20, style=setlinewidth(2)}&#45;&gt;&#45;&gt;987405879 -->
<g id="edge26" class="edge">
<title>987405879{color=black, fontcolor=black, fontname=Helvetica, fontsize=20, style=setlinewidth(2)}&#45;&gt;&#45;&gt;987405879</title>
<path fill="none" stroke="#000000" stroke-width="2" d="M570.1137,-187.2972C581.9272,-179.4215 596.8903,-169.4462 609.8715,-160.792"/>
<polygon fill="#000000" stroke="#000000" stroke-width="2" points="612.0998,-163.513 618.4789,-155.0538 608.2169,-157.6886 612.0998,-163.513"/>
</g>
<!-- 428746855{color=black, fontcolor=black, fontname=Helvetica, fontsize=20, style=setlinewidth(2)}&#45;&gt; -->
<g id="node25" class="node">
<title>428746855{color=black, fontcolor=black, fontname=Helvetica, fontsize=20, style=setlinewidth(2)}&#45;&gt;</title>
<ellipse fill="none" stroke="#000000" stroke-width="2" cx="639.2397" cy="-201.2132" rx="27" ry="21.4286"/>
<text text-anchor="middle" x="639.2397" y="-196.2132" font-family="Helvetica,sans-Serif" font-size="20.00" fill="#000000">X</text>
</g>
<!-- 428746855{color=black, fontcolor=black, fontname=Helvetica, fontsize=20, style=setlinewidth(2)}&#45;&gt;&#45;&gt;428746855 -->
<g id="edge27" class="edge">
<title>428746855{color=black, fontcolor=black, fontname=Helvetica, fontsize=20, style=setlinewidth(2)}&#45;&gt;&#45;&gt;428746855</title>
<path fill="none" stroke="#000000" stroke-width="2" d="M660.1137,-187.2972C671.9272,-179.4215 686.8903,-169.4462 699.8715,-160.792"/>
<polygon fill="#000000" stroke="#000000" stroke-width="2" points="702.0998,-163.513 708.4789,-155.0538 698.2169,-157.6886 702.0998,-163.513"/>
</g>
<!-- 897697267 -->
<g id="node26" class="node">
<title>897697267</title>
<ellipse fill="none" stroke="#000000" stroke-width="2" cx="455.127" cy="-21.2132" rx="31.2258" ry="21.4286"/>
<text text-anchor="middle" x="455.127" y="-16.2132" font-family="Helvetica,sans-Serif" font-size="20.00" fill="#000000">3.0</text>
</g>
<!-- 897697267&#45;&gt;1151020327 -->
<g id="edge28" class="edge">
<title>897697267&#45;&gt;1151020327</title>
<path fill="none" stroke="#000000" stroke-width="2" d="M477.909,-35.7375C490.4041,-43.7035 506.0436,-53.6743 519.4917,-62.2479"/>
<polygon fill="#000000" stroke="#000000" stroke-width="2" points="517.6439,-65.2206 527.9575,-67.6451 521.4069,-59.3181 517.6439,-65.2206"/>
</g>
<!-- 1528637575 -->
<g id="node27" class="node">
<title>1528637575</title>
<ellipse fill="none" stroke="#000000" stroke-width="2" cx="240.9985" cy="-21.2132" rx="35.2113" ry="21.4286"/>
<text text-anchor="middle" x="240.9985" y="-16.2132" font-family="Helvetica,sans-Serif" font-size="20.00" fill="#000000">neg</text>
</g>
<!-- 1528637575&#45;&gt;1123225098 -->
<g id="edge29" class="edge">
<title>1528637575&#45;&gt;1123225098</title>
<path fill="none" stroke="#000000" stroke-width="2" d="M276.5627,-21.2132C284.9142,-21.2132 293.9478,-21.2132 302.738,-21.2132"/>
<polygon fill="#000000" stroke="#000000" stroke-width="2" points="302.8896,-24.7133 312.8896,-21.2132 302.8895,-17.7133 302.8896,-24.7133"/>
</g>
<!-- 553264065 -->
<g id="node28" class="node">
<title>553264065</title>
<ellipse fill="none" stroke="#000000" stroke-width="2" cx="133.5807" cy="-21.2132" rx="35.2113" ry="21.4286"/>
<text text-anchor="middle" x="133.5807" y="-16.2132" font-family="Helvetica,sans-Serif" font-size="20.00" fill="#000000">one</text>
</g>
<!-- 553264065&#45;&gt;1528637575 -->
<g id="edge30" class="edge">
<title>553264065&#45;&gt;1528637575</title>
<path fill="none" stroke="#000000" stroke-width="2" d="M169.051,-21.2132C177.4842,-21.2132 186.5982,-21.2132 195.4133,-21.2132"/>
<polygon fill="#000000" stroke="#000000" stroke-width="2" points="195.5655,-24.7133 205.5655,-21.2132 195.5654,-17.7133 195.5655,-24.7133"/>
</g>
</g>
</svg>
