<svg width="881px" height="298px"
 viewBox="0.00 0.00 881.00 298.00" xmlns="http://www.w3.org/2000/svg" xmlns:xlink="http://www.w3.org/1999/xlink">
<g id="graph0" class="graph" transform="scale(1.0 1.0) rotate(0) translate(4 294)">
<title>%3</title>
<!-- 627150481 -->
<g id="node1" class="node">
<title>627150481</title>
<path fill="none" stroke="#000000" stroke-width="2" d="M831,-56.5C831,-56.5 861,-56.5 861,-56.5 867,-56.5 873,-62.5 873,-68.5 873,-68.5 873,-80.5 873,-80.5 873,-86.5 867,-92.5 861,-92.5 861,-92.5 831,-92.5 831,-92.5 825,-92.5 819,-86.5 819,-80.5 819,-80.5 819,-68.5 819,-68.5 819,-62.5 825,-56.5 831,-56.5"/>
<text text-anchor="middle" x="846" y="-69.5" font-family="Lucida Console" font-size="20.00" fill="#000000">+</text>
</g>
<!-- 1638215613 -->
<g id="node2" class="node">
<title>1638215613</title>
<path fill="none" stroke="#000000" stroke-width="2" d="M740,-84.5C740,-84.5 770,-84.5 770,-84.5 776,-84.5 782,-90.5 782,-96.5 782,-96.5 782,-108.5 782,-108.5 782,-114.5 776,-120.5 770,-120.5 770,-120.5 740,-120.5 740,-120.5 734,-120.5 728,-114.5 728,-108.5 728,-108.5 728,-96.5 728,-96.5 728,-90.5 734,-84.5 740,-84.5"/>
<text text-anchor="middle" x="755" y="-97.5" font-family="Lucida Console" font-size="20.00" fill="#000000">+</text>
</g>
<!-- 1638215613&#45;&gt;627150481 -->
<g id="edge1" class="edge">
<title>1638215613&#45;&gt;627150481</title>
<path fill="none" stroke="#0000ff" stroke-width="2" d="M782.303,-94.0991C790.6713,-91.5242 800.0227,-88.6469 808.9279,-85.9068"/>
<polygon fill="#0000ff" stroke="#0000ff" stroke-width="2" points="810.1878,-89.1811 818.7163,-82.895 808.1291,-82.4907 810.1878,-89.1811"/>
</g>
<!-- 1674896058 -->
<g id="node3" class="node">
<title>1674896058</title>
<path fill="none" stroke="#000000" stroke-width="2" d="M649,-110.5C649,-110.5 679,-110.5 679,-110.5 685,-110.5 691,-116.5 691,-122.5 691,-122.5 691,-134.5 691,-134.5 691,-140.5 685,-146.5 679,-146.5 679,-146.5 649,-146.5 649,-146.5 643,-146.5 637,-140.5 637,-134.5 637,-134.5 637,-122.5 637,-122.5 637,-116.5 643,-110.5 649,-110.5"/>
<text text-anchor="middle" x="664" y="-123.5" font-family="Lucida Console" font-size="20.00" fill="#000000">d</text>
</g>
<!-- 1674896058&#45;&gt;1638215613 -->
<g id="edge2" class="edge">
<title>1674896058&#45;&gt;1638215613</title>
<path fill="none" stroke="#0000ff" stroke-width="2" d="M691.303,-120.6991C699.6713,-118.3082 709.0227,-115.6364 717.9279,-113.092"/>
<polygon fill="#0000ff" stroke="#0000ff" stroke-width="2" points="719.0626,-116.408 727.7163,-110.2954 717.1395,-109.6773 719.0626,-116.408"/>
</g>
<!-- 866191240 -->
<g id="node4" class="node">
<title>866191240</title>
<path fill="none" stroke="#000000" stroke-width="2" d="M559,-110.5C559,-110.5 589,-110.5 589,-110.5 595,-110.5 601,-116.5 601,-122.5 601,-122.5 601,-134.5 601,-134.5 601,-140.5 595,-146.5 589,-146.5 589,-146.5 559,-146.5 559,-146.5 553,-146.5 547,-140.5 547,-134.5 547,-134.5 547,-122.5 547,-122.5 547,-116.5 553,-110.5 559,-110.5"/>
<text text-anchor="middle" x="574" y="-123.5" font-family="Lucida Console" font-size="20.00" fill="#000000">d</text>
</g>
<!-- 866191240&#45;&gt;1674896058 -->
<g id="edge3" class="edge">
<title>866191240&#45;&gt;1674896058</title>
<path fill="none" stroke="#000000" stroke-width="2" d="M601.003,-128.5C609.0277,-128.5 617.9665,-128.5 626.5309,-128.5"/>
<polygon fill="#000000" stroke="#000000" stroke-width="2" points="626.7051,-132.0001 636.705,-128.5 626.705,-125.0001 626.7051,-132.0001"/>
</g>
<!-- 872627152 -->
<g id="node5" class="node">
<title>872627152</title>
<path fill="none" stroke="#000000" stroke-width="2" d="M469,-110.5C469,-110.5 499,-110.5 499,-110.5 505,-110.5 511,-116.5 511,-122.5 511,-122.5 511,-134.5 511,-134.5 511,-140.5 505,-146.5 499,-146.5 499,-146.5 469,-146.5 469,-146.5 463,-146.5 457,-140.5 457,-134.5 457,-134.5 457,-122.5 457,-122.5 457,-116.5 463,-110.5 469,-110.5"/>
<text text-anchor="middle" x="484" y="-123.5" font-family="Lucida Console" font-size="20.00" fill="#000000">+</text>
</g>
<!-- 872627152&#45;&gt;866191240 -->
<g id="edge4" class="edge">
<title>872627152&#45;&gt;866191240</title>
<path fill="none" stroke="#000000" stroke-width="2" d="M511.003,-128.5C519.0277,-128.5 527.9665,-128.5 536.5309,-128.5"/>
<polygon fill="#000000" stroke="#000000" stroke-width="2" points="536.7051,-132.0001 546.705,-128.5 536.705,-125.0001 536.7051,-132.0001"/>
</g>
<!-- 2094777811 -->
<g id="node6" class="node">
<title>2094777811</title>
<path fill="none" stroke="#000000" stroke-width="2" d="M379,-165.5C379,-165.5 409,-165.5 409,-165.5 415,-165.5 421,-171.5 421,-177.5 421,-177.5 421,-189.5 421,-189.5 421,-195.5 415,-201.5 409,-201.5 409,-201.5 379,-201.5 379,-201.5 373,-201.5 367,-195.5 367,-189.5 367,-189.5 367,-177.5 367,-177.5 367,-171.5 373,-165.5 379,-165.5"/>
<text text-anchor="middle" x="394" y="-178.5" font-family="Lucida Console" font-size="20.00" fill="#000000">+</text>
</g>
<!-- 2094777811&#45;&gt;872627152 -->
<g id="edge5" class="edge">
<title>2094777811&#45;&gt;872627152</title>
<path fill="none" stroke="#0000ff" stroke-width="2" d="M421.003,-166.9982C429.4686,-161.8248 438.9516,-156.0296 447.9389,-150.5373"/>
<polygon fill="#0000ff" stroke="#0000ff" stroke-width="2" points="449.9973,-153.3813 456.705,-145.1803 446.3471,-147.4083 449.9973,-153.3813"/>
</g>
<!-- 400136488 -->
<g id="node7" class="node">
<title>400136488</title>
<path fill="none" stroke="#000000" stroke-width="2" d="M286.5,-208.5C286.5,-208.5 316.5,-208.5 316.5,-208.5 322.5,-208.5 328.5,-214.5 328.5,-220.5 328.5,-220.5 328.5,-232.5 328.5,-232.5 328.5,-238.5 322.5,-244.5 316.5,-244.5 316.5,-244.5 286.5,-244.5 286.5,-244.5 280.5,-244.5 274.5,-238.5 274.5,-232.5 274.5,-232.5 274.5,-220.5 274.5,-220.5 274.5,-214.5 280.5,-208.5 286.5,-208.5"/>
<text text-anchor="middle" x="301.5" y="-221.5" font-family="Lucida Console" font-size="20.00" fill="#000000">+</text>
</g>
<!-- 400136488&#45;&gt;2094777811 -->
<g id="edge6" class="edge">
<title>400136488&#45;&gt;2094777811</title>
<path fill="none" stroke="#0000ff" stroke-width="2" d="M328.7528,-213.8312C337.7856,-209.6321 347.9887,-204.889 357.5971,-200.4224"/>
<polygon fill="#0000ff" stroke="#0000ff" stroke-width="2" points="359.3494,-203.4676 366.942,-196.0783 356.3985,-197.12 359.3494,-203.4676"/>
</g>
<!-- 451111351 -->
<g id="node8" class="node">
<title>451111351</title>
<path fill="none" stroke="#000000" stroke-width="2" d="M193,-198.5C193,-198.5 223,-198.5 223,-198.5 229,-198.5 235,-204.5 235,-210.5 235,-210.5 235,-222.5 235,-222.5 235,-228.5 229,-234.5 223,-234.5 223,-234.5 193,-234.5 193,-234.5 187,-234.5 181,-228.5 181,-222.5 181,-222.5 181,-210.5 181,-210.5 181,-204.5 187,-198.5 193,-198.5"/>
<text text-anchor="middle" x="208" y="-211.5" font-family="Lucida Console" font-size="20.00" fill="#000000">+</text>
</g>
<!-- 451111351&#45;&gt;400136488 -->
<g id="edge7" class="edge">
<title>451111351&#45;&gt;400136488</title>
<path fill="none" stroke="#0000ff" stroke-width="2" d="M235.0441,-219.3924C244.0746,-220.3582 254.3059,-221.4525 263.9868,-222.4879"/>
<polygon fill="#0000ff" stroke="#0000ff" stroke-width="2" points="263.8773,-225.9961 274.1928,-223.5794 264.6217,-219.0357 263.8773,-225.9961"/>
</g>
<!-- 875827115 -->
<g id="node9" class="node">
<title>875827115</title>
<path fill="none" stroke="#000000" stroke-width="2" d="M102,-225.5C102,-225.5 132,-225.5 132,-225.5 138,-225.5 144,-231.5 144,-237.5 144,-237.5 144,-249.5 144,-249.5 144,-255.5 138,-261.5 132,-261.5 132,-261.5 102,-261.5 102,-261.5 96,-261.5 90,-255.5 90,-249.5 90,-249.5 90,-237.5 90,-237.5 90,-231.5 96,-225.5 102,-225.5"/>
<text text-anchor="middle" x="117" y="-238.5" font-family="Lucida Console" font-size="20.00" fill="#000000">1.0</text>
</g>
<!-- 875827115&#45;&gt;451111351 -->
<g id="edge8" class="edge">
<title>875827115&#45;&gt;451111351</title>
<path fill="none" stroke="#0000ff" stroke-width="2" d="M144.303,-235.3991C152.6713,-232.9162 162.0227,-230.1416 170.9279,-227.4994"/>
<polygon fill="#0000ff" stroke="#0000ff" stroke-width="2" points="172.1249,-230.7951 180.7163,-224.5952 170.1338,-224.0843 172.1249,-230.7951"/>
</g>
<!-- 6738746 -->
<g id="node10" class="node">
<title>6738746</title>
<path fill="none" stroke="#000000" stroke-width="2" d="M102,-170.5C102,-170.5 132,-170.5 132,-170.5 138,-170.5 144,-176.5 144,-182.5 144,-182.5 144,-194.5 144,-194.5 144,-200.5 138,-206.5 132,-206.5 132,-206.5 102,-206.5 102,-206.5 96,-206.5 90,-200.5 90,-194.5 90,-194.5 90,-182.5 90,-182.5 90,-176.5 96,-170.5 102,-170.5"/>
<text text-anchor="middle" x="117" y="-183.5" font-family="Lucida Console" font-size="20.00" fill="#000000">*</text>
</g>
<!-- 6738746&#45;&gt;451111351 -->
<g id="edge9" class="edge">
<title>6738746&#45;&gt;451111351</title>
<path fill="none" stroke="#ff0000" stroke-width="2" d="M144.303,-196.9009C152.6713,-199.4758 162.0227,-202.3531 170.9279,-205.0932"/>
<polygon fill="#ff0000" stroke="#ff0000" stroke-width="2" points="170.1291,-208.5093 180.7163,-208.105 172.1878,-201.8189 170.1291,-208.5093"/>
</g>
<!-- x -->
<g id="node11" class="node">
<title>x</title>
<path fill="none" stroke="#000000" stroke-width="2" d="M12,-198.5C12,-198.5 42,-198.5 42,-198.5 48,-198.5 54,-204.5 54,-210.5 54,-210.5 54,-222.5 54,-222.5 54,-228.5 48,-234.5 42,-234.5 42,-234.5 12,-234.5 12,-234.5 6,-234.5 0,-228.5 0,-222.5 0,-222.5 0,-210.5 0,-210.5 0,-204.5 6,-198.5 12,-198.5"/>
<text text-anchor="middle" x="27" y="-211.5" font-family="Lucida Console" font-size="20.00" fill="#000000">x</text>
</g>
<!-- x&#45;&gt;6738746 -->
<g id="edge10" class="edge">
<title>x&#45;&gt;6738746</title>
<path fill="none" stroke="#0000ff" stroke-width="2" d="M54.003,-208.0991C62.204,-205.5476 71.3599,-202.6991 80.095,-199.9816"/>
<polygon fill="#0000ff" stroke="#0000ff" stroke-width="2" points="81.1962,-203.3045 89.705,-196.9918 79.1167,-196.6205 81.1962,-203.3045"/>
</g>
<!-- 1844169442 -->
<g id="node12" class="node">
<title>1844169442</title>
<path fill="none" stroke="#000000" stroke-width="2" d="M12,-143.5C12,-143.5 42,-143.5 42,-143.5 48,-143.5 54,-149.5 54,-155.5 54,-155.5 54,-167.5 54,-167.5 54,-173.5 48,-179.5 42,-179.5 42,-179.5 12,-179.5 12,-179.5 6,-179.5 0,-173.5 0,-167.5 0,-167.5 0,-155.5 0,-155.5 0,-149.5 6,-143.5 12,-143.5"/>
<text text-anchor="middle" x="27" y="-156.5" font-family="Lucida Console" font-size="20.00" fill="#000000">2.0</text>
</g>
<!-- 1844169442&#45;&gt;6738746 -->
<g id="edge11" class="edge">
<title>1844169442&#45;&gt;6738746</title>
<path fill="none" stroke="#ff0000" stroke-width="2" d="M54.003,-169.6009C62.204,-172.0612 71.3599,-174.808 80.095,-177.4285"/>
<polygon fill="#ff0000" stroke="#ff0000" stroke-width="2" points="79.121,-180.7904 89.705,-180.3115 81.1325,-174.0856 79.121,-180.7904"/>
</g>
<!-- 804581391 -->
<g id="node13" class="node">
<title>804581391</title>
<path fill="none" stroke="#000000" stroke-width="2" d="M192,-253.5C192,-253.5 224,-253.5 224,-253.5 230,-253.5 236,-259.5 236,-265.5 236,-265.5 236,-277.5 236,-277.5 236,-283.5 230,-289.5 224,-289.5 224,-289.5 192,-289.5 192,-289.5 186,-289.5 180,-283.5 180,-277.5 180,-277.5 180,-265.5 180,-265.5 180,-259.5 186,-253.5 192,-253.5"/>
<text text-anchor="middle" x="208" y="-266.5" font-family="Lucida Console" font-size="20.00" fill="#000000">&#45;3.0</text>
</g>
<!-- 804581391&#45;&gt;400136488 -->
<g id="edge12" class="edge">
<title>804581391&#45;&gt;400136488</title>
<path fill="none" stroke="#ff0000" stroke-width="2" d="M236.0531,-257.9985C245.2656,-253.5647 255.6379,-248.5726 265.3633,-243.892"/>
<polygon fill="#ff0000" stroke="#ff0000" stroke-width="2" points="266.9376,-247.0187 274.4304,-239.5281 263.9018,-240.7111 266.9376,-247.0187"/>
</g>
<!-- y -->
<g id="node14" class="node">
<title>y</title>
<path fill="none" stroke="#000000" stroke-width="2" d="M193,-124.5C193,-124.5 223,-124.5 223,-124.5 229,-124.5 235,-130.5 235,-136.5 235,-136.5 235,-148.5 235,-148.5 235,-154.5 229,-160.5 223,-160.5 223,-160.5 193,-160.5 193,-160.5 187,-160.5 181,-154.5 181,-148.5 181,-148.5 181,-136.5 181,-136.5 181,-130.5 187,-124.5 193,-124.5"/>
<text text-anchor="middle" x="208" y="-137.5" font-family="Lucida Console" font-size="20.00" fill="#000000">y</text>
</g>
<!-- y&#45;&gt;2094777811 -->
<g id="edge13" class="edge">
<title>y&#45;&gt;2094777811</title>
<path fill="none" stroke="#ff0000" stroke-width="2" d="M235.2698,-150.7396C246.5764,-154.0069 259.8634,-157.6551 272,-160.5 300.2771,-167.1284 332.5875,-173.1513 356.8507,-177.3696"/>
<polygon fill="#ff0000" stroke="#ff0000" stroke-width="2" points="356.2734,-180.8217 366.7214,-179.0635 357.4574,-173.9225 356.2734,-180.8217"/>
</g>
<!-- 901506536 -->
<g id="node15" class="node">
<title>901506536</title>
<path fill="none" stroke="#000000" stroke-width="2" d="M284,-114.5C284,-114.5 319,-114.5 319,-114.5 325,-114.5 331,-120.5 331,-126.5 331,-126.5 331,-138.5 331,-138.5 331,-144.5 325,-150.5 319,-150.5 319,-150.5 284,-150.5 284,-150.5 278,-150.5 272,-144.5 272,-138.5 272,-138.5 272,-126.5 272,-126.5 272,-120.5 278,-114.5 284,-114.5"/>
<text text-anchor="middle" x="301.5" y="-127.5" font-family="Lucida Console" font-size="20.00" fill="#000000">pow</text>
</g>
<!-- y&#45;&gt;901506536 -->
<g id="edge14" class="edge">
<title>y&#45;&gt;901506536</title>
<path fill="none" stroke="#0000ff" stroke-width="2" d="M235.0441,-139.6076C243.4299,-138.7107 252.8512,-137.7031 261.9057,-136.7347"/>
<polygon fill="#0000ff" stroke="#0000ff" stroke-width="2" points="262.3269,-140.2097 271.898,-135.666 261.5824,-133.2494 262.3269,-140.2097"/>
</g>
<!-- 483422889 -->
<g id="node17" class="node">
<title>483422889</title>
<path fill="none" stroke="#000000" stroke-width="2" d="M284,-4.5C284,-4.5 319,-4.5 319,-4.5 325,-4.5 331,-10.5 331,-16.5 331,-16.5 331,-28.5 331,-28.5 331,-34.5 325,-40.5 319,-40.5 319,-40.5 284,-40.5 284,-40.5 278,-40.5 272,-34.5 272,-28.5 272,-28.5 272,-16.5 272,-16.5 272,-10.5 278,-4.5 284,-4.5"/>
<text text-anchor="middle" x="301.5" y="-17.5" font-family="Lucida Console" font-size="20.00" fill="#000000">pow</text>
</g>
<!-- y&#45;&gt;483422889 -->
<g id="edge15" class="edge">
<title>y&#45;&gt;483422889</title>
<path fill="none" stroke="#0000ff" stroke-width="2" d="M227.4503,-124.4968C230.4708,-121.3022 233.4355,-117.9045 236,-114.5 255.8695,-88.1225 251.5522,-75.4317 272,-49.5 272.3762,-49.023 272.7611,-48.547 273.1537,-48.0726"/>
<polygon fill="#0000ff" stroke="#0000ff" stroke-width="2" points="275.8333,-50.3293 280.0253,-40.599 270.6804,-45.5914 275.8333,-50.3293"/>
</g>
<!-- 1975358023 -->
<g id="node16" class="node">
<title>1975358023</title>
<path fill="none" stroke="#000000" stroke-width="2" d="M379,-110.5C379,-110.5 409,-110.5 409,-110.5 415,-110.5 421,-116.5 421,-122.5 421,-122.5 421,-134.5 421,-134.5 421,-140.5 415,-146.5 409,-146.5 409,-146.5 379,-146.5 379,-146.5 373,-146.5 367,-140.5 367,-134.5 367,-134.5 367,-122.5 367,-122.5 367,-116.5 373,-110.5 379,-110.5"/>
<text text-anchor="middle" x="394" y="-123.5" font-family="Lucida Console" font-size="20.00" fill="#000000">*</text>
</g>
<!-- 901506536&#45;&gt;1975358023 -->
<g id="edge16" class="edge">
<title>901506536&#45;&gt;1975358023</title>
<path fill="none" stroke="#ff0000" stroke-width="2" d="M331.0219,-131.2234C339.2163,-130.869 348.2204,-130.4797 356.7932,-130.1089"/>
<polygon fill="#ff0000" stroke="#ff0000" stroke-width="2" points="357.1133,-133.5985 366.9527,-129.6696 356.8108,-126.605 357.1133,-133.5985"/>
</g>
<!-- 1975358023&#45;&gt;872627152 -->
<g id="edge17" class="edge">
<title>1975358023&#45;&gt;872627152</title>
<path fill="none" stroke="#ff0000" stroke-width="2" d="M421.003,-128.5C429.0277,-128.5 437.9665,-128.5 446.5309,-128.5"/>
<polygon fill="#ff0000" stroke="#ff0000" stroke-width="2" points="446.7051,-132.0001 456.705,-128.5 446.705,-125.0001 446.7051,-132.0001"/>
</g>
<!-- 659748578 -->
<g id="node18" class="node">
<title>659748578</title>
<path fill="none" stroke="#000000" stroke-width="2" d="M379,-55.5C379,-55.5 409,-55.5 409,-55.5 415,-55.5 421,-61.5 421,-67.5 421,-67.5 421,-79.5 421,-79.5 421,-85.5 415,-91.5 409,-91.5 409,-91.5 379,-91.5 379,-91.5 373,-91.5 367,-85.5 367,-79.5 367,-79.5 367,-67.5 367,-67.5 367,-61.5 373,-55.5 379,-55.5"/>
<text text-anchor="middle" x="394" y="-68.5" font-family="Lucida Console" font-size="20.00" fill="#000000">*</text>
</g>
<!-- 483422889&#45;&gt;659748578 -->
<g id="edge18" class="edge">
<title>483422889&#45;&gt;659748578</title>
<path fill="none" stroke="#ff0000" stroke-width="2" d="M331.0219,-38.7769C339.5765,-43.4935 349.0136,-48.6967 357.9211,-53.6078"/>
<polygon fill="#ff0000" stroke="#ff0000" stroke-width="2" points="356.5057,-56.8241 366.9527,-58.5875 359.8855,-50.6941 356.5057,-56.8241"/>
</g>
<!-- 1809787067 -->
<g id="node19" class="node">
<title>1809787067</title>
<path fill="none" stroke="#000000" stroke-width="2" d="M469,-55.5C469,-55.5 499,-55.5 499,-55.5 505,-55.5 511,-61.5 511,-67.5 511,-67.5 511,-79.5 511,-79.5 511,-85.5 505,-91.5 499,-91.5 499,-91.5 469,-91.5 469,-91.5 463,-91.5 457,-85.5 457,-79.5 457,-79.5 457,-67.5 457,-67.5 457,-61.5 463,-55.5 469,-55.5"/>
<text text-anchor="middle" x="484" y="-68.5" font-family="Lucida Console" font-size="20.00" fill="#000000">*</text>
</g>
<!-- 659748578&#45;&gt;1809787067 -->
<g id="edge19" class="edge">
<title>659748578&#45;&gt;1809787067</title>
<path fill="none" stroke="#0000ff" stroke-width="2" d="M421.003,-73.5C429.0277,-73.5 437.9665,-73.5 446.5309,-73.5"/>
<polygon fill="#0000ff" stroke="#0000ff" stroke-width="2" points="446.7051,-77.0001 456.705,-73.5 446.705,-70.0001 446.7051,-77.0001"/>
</g>
<!-- 1809787067&#45;&gt;1638215613 -->
<g id="edge20" class="edge">
<title>1809787067&#45;&gt;1638215613</title>
<path fill="none" stroke="#ff0000" stroke-width="2" d="M511.2253,-76.4134C560.0243,-81.6354 662.4391,-92.595 717.7189,-98.5105"/>
<polygon fill="#ff0000" stroke="#ff0000" stroke-width="2" points="717.4771,-102.0045 727.7928,-99.5885 718.222,-95.0443 717.4771,-102.0045"/>
</g>
<!-- z -->
<g id="node20" class="node">
<title>z</title>
<path fill="none" stroke="#000000" stroke-width="2" d="M286.5,-59.5C286.5,-59.5 316.5,-59.5 316.5,-59.5 322.5,-59.5 328.5,-65.5 328.5,-71.5 328.5,-71.5 328.5,-83.5 328.5,-83.5 328.5,-89.5 322.5,-95.5 316.5,-95.5 316.5,-95.5 286.5,-95.5 286.5,-95.5 280.5,-95.5 274.5,-89.5 274.5,-83.5 274.5,-83.5 274.5,-71.5 274.5,-71.5 274.5,-65.5 280.5,-59.5 286.5,-59.5"/>
<text text-anchor="middle" x="301.5" y="-72.5" font-family="Lucida Console" font-size="20.00" fill="#000000">z</text>
</g>
<!-- z&#45;&gt;1975358023 -->
<g id="edge21" class="edge">
<title>z&#45;&gt;1975358023</title>
<path fill="none" stroke="#0000ff" stroke-width="2" d="M328.7528,-92.5258C337.8797,-97.558 348.2014,-103.2489 357.8972,-108.5947"/>
<polygon fill="#0000ff" stroke="#0000ff" stroke-width="2" points="356.495,-111.8182 366.942,-113.5816 359.8748,-105.6882 356.495,-111.8182"/>
</g>
<!-- z&#45;&gt;659748578 -->
<g id="edge22" class="edge">
<title>z&#45;&gt;659748578</title>
<path fill="none" stroke="#0000ff" stroke-width="2" d="M328.7528,-76.3215C337.5034,-75.9431 347.3521,-75.5172 356.6947,-75.1132"/>
<polygon fill="#0000ff" stroke="#0000ff" stroke-width="2" points="357.1026,-78.5989 366.942,-74.6701 356.8001,-71.6055 357.1026,-78.5989"/>
</g>
<!-- 1513712028 -->
<g id="node21" class="node">
<title>1513712028</title>
<path fill="none" stroke="#000000" stroke-width="2" d="M192,-69.5C192,-69.5 224,-69.5 224,-69.5 230,-69.5 236,-75.5 236,-81.5 236,-81.5 236,-93.5 236,-93.5 236,-99.5 230,-105.5 224,-105.5 224,-105.5 192,-105.5 192,-105.5 186,-105.5 180,-99.5 180,-93.5 180,-93.5 180,-81.5 180,-81.5 180,-75.5 186,-69.5 192,-69.5"/>
<text text-anchor="middle" x="208" y="-82.5" font-family="Lucida Console" font-size="20.00" fill="#000000">&#45;1.0</text>
</g>
<!-- 1513712028&#45;&gt;901506536 -->
<g id="edge23" class="edge">
<title>1513712028&#45;&gt;901506536</title>
<path fill="none" stroke="#ff0000" stroke-width="2" d="M236.0531,-101.0015C244.4369,-105.0365 253.7812,-109.5338 262.7244,-113.8379"/>
<polygon fill="#ff0000" stroke="#ff0000" stroke-width="2" points="261.3132,-117.043 271.8418,-118.226 264.3489,-110.7355 261.3132,-117.043"/>
</g>
<!-- 866191240{color=black, fontcolor=black, fontname=Lucida Console, fontsize=20, style=setlinewidth(2), shape=Mrecord}&#45;&gt; -->
<g id="node22" class="node">
<title>866191240{color=black, fontcolor=black, fontname=Lucida Console, fontsize=20, style=setlinewidth(2), shape=Mrecord}&#45;&gt;</title>
<path fill="none" stroke="#000000" stroke-width="2" d="M469,-165.5C469,-165.5 499,-165.5 499,-165.5 505,-165.5 511,-171.5 511,-177.5 511,-177.5 511,-189.5 511,-189.5 511,-195.5 505,-201.5 499,-201.5 499,-201.5 469,-201.5 469,-201.5 463,-201.5 457,-195.5 457,-189.5 457,-189.5 457,-177.5 457,-177.5 457,-171.5 463,-165.5 469,-165.5"/>
<text text-anchor="middle" x="484" y="-178.5" font-family="Lucida Console" font-size="20.00" fill="#000000">y</text>
</g>
<!-- 866191240{color=black, fontcolor=black, fontname=Lucida Console, fontsize=20, style=setlinewidth(2), shape=Mrecord}&#45;&gt;&#45;&gt;866191240 -->
<g id="edge24" class="edge">
<title>866191240{color=black, fontcolor=black, fontname=Lucida Console, fontsize=20, style=setlinewidth(2), shape=Mrecord}&#45;&gt;&#45;&gt;866191240</title>
<path fill="none" stroke="#000000" stroke-width="2" d="M511.003,-166.9982C519.4686,-161.8248 528.9516,-156.0296 537.9389,-150.5373"/>
<polygon fill="#000000" stroke="#000000" stroke-width="2" points="539.9973,-153.3813 546.705,-145.1803 536.3471,-147.4083 539.9973,-153.3813"/>
</g>
<!-- 1674896058{color=black, fontcolor=black, fontname=Lucida Console, fontsize=20, style=setlinewidth(2), shape=Mrecord}&#45;&gt; -->
<g id="node23" class="node">
<title>1674896058{color=black, fontcolor=black, fontname=Lucida Console, fontsize=20, style=setlinewidth(2), shape=Mrecord}&#45;&gt;</title>
<path fill="none" stroke="#000000" stroke-width="2" d="M559,-165.5C559,-165.5 589,-165.5 589,-165.5 595,-165.5 601,-171.5 601,-177.5 601,-177.5 601,-189.5 601,-189.5 601,-195.5 595,-201.5 589,-201.5 589,-201.5 559,-201.5 559,-201.5 553,-201.5 547,-195.5 547,-189.5 547,-189.5 547,-177.5 547,-177.5 547,-171.5 553,-165.5 559,-165.5"/>
<text text-anchor="middle" x="574" y="-178.5" font-family="Lucida Console" font-size="20.00" fill="#000000">x</text>
</g>
<!-- 1674896058{color=black, fontcolor=black, fontname=Lucida Console, fontsize=20, style=setlinewidth(2), shape=Mrecord}&#45;&gt;&#45;&gt;1674896058 -->
<g id="edge25" class="edge">
<title>1674896058{color=black, fontcolor=black, fontname=Lucida Console, fontsize=20, style=setlinewidth(2), shape=Mrecord}&#45;&gt;&#45;&gt;1674896058</title>
<path fill="none" stroke="#000000" stroke-width="2" d="M601.003,-166.9982C609.4686,-161.8248 618.9516,-156.0296 627.9389,-150.5373"/>
<polygon fill="#000000" stroke="#000000" stroke-width="2" points="629.9973,-153.3813 636.705,-145.1803 626.3471,-147.4083 629.9973,-153.3813"/>
</g>
<!-- 1277181601 -->
<g id="node24" class="node">
<title>1277181601</title>
<path fill="none" stroke="#000000" stroke-width="2" d="M192,-4.5C192,-4.5 224,-4.5 224,-4.5 230,-4.5 236,-10.5 236,-16.5 236,-16.5 236,-28.5 236,-28.5 236,-34.5 230,-40.5 224,-40.5 224,-40.5 192,-40.5 192,-40.5 186,-40.5 180,-34.5 180,-28.5 180,-28.5 180,-16.5 180,-16.5 180,-10.5 186,-4.5 192,-4.5"/>
<text text-anchor="middle" x="208" y="-17.5" font-family="Lucida Console" font-size="20.00" fill="#000000">&#45;1.0</text>
</g>
<!-- 1277181601&#45;&gt;483422889 -->
<g id="edge26" class="edge">
<title>1277181601&#45;&gt;483422889</title>
<path fill="none" stroke="#ff0000" stroke-width="2" d="M236.0531,-22.5C244.0839,-22.5 252.9961,-22.5 261.5927,-22.5"/>
<polygon fill="#ff0000" stroke="#ff0000" stroke-width="2" points="261.8418,-26.0001 271.8418,-22.5 261.8417,-19.0001 261.8418,-26.0001"/>
</g>
<!-- 488970385 -->
<g id="node25" class="node">
<title>488970385</title>
<path fill="none" stroke="#000000" stroke-width="2" d="M379,-.5C379,-.5 409,-.5 409,-.5 415,-.5 421,-6.5 421,-12.5 421,-12.5 421,-24.5 421,-24.5 421,-30.5 415,-36.5 409,-36.5 409,-36.5 379,-36.5 379,-36.5 373,-36.5 367,-30.5 367,-24.5 367,-24.5 367,-12.5 367,-12.5 367,-6.5 373,-.5 379,-.5"/>
<text text-anchor="middle" x="394" y="-13.5" font-family="Lucida Console" font-size="20.00" fill="#000000">3.0</text>
</g>
<!-- 488970385&#45;&gt;1809787067 -->
<g id="edge27" class="edge">
<title>488970385&#45;&gt;1809787067</title>
<path fill="none" stroke="#ff0000" stroke-width="2" d="M421.003,-35.0018C429.4686,-40.1752 438.9516,-45.9704 447.9389,-51.4627"/>
<polygon fill="#ff0000" stroke="#ff0000" stroke-width="2" points="446.3471,-54.5917 456.705,-56.8197 449.9973,-48.6187 446.3471,-54.5917"/>
</g>
<!-- 93122545 -->
<g id="node26" class="node">
<title>93122545</title>
<path fill="none" stroke="#000000" stroke-width="2" d="M739,-29.5C739,-29.5 771,-29.5 771,-29.5 777,-29.5 783,-35.5 783,-41.5 783,-41.5 783,-53.5 783,-53.5 783,-59.5 777,-65.5 771,-65.5 771,-65.5 739,-65.5 739,-65.5 733,-65.5 727,-59.5 727,-53.5 727,-53.5 727,-41.5 727,-41.5 727,-35.5 733,-29.5 739,-29.5"/>
<text text-anchor="middle" x="755" y="-42.5" font-family="Lucida Console" font-size="20.00" fill="#000000">&#45;2.0</text>
</g>
<!-- 93122545&#45;&gt;627150481 -->
<g id="edge28" class="edge">
<title>93122545&#45;&gt;627150481</title>
<path fill="none" stroke="#ff0000" stroke-width="2" d="M783.2941,-55.895C791.4692,-58.3205 800.5133,-61.004 809.129,-63.5602"/>
<polygon fill="#ff0000" stroke="#ff0000" stroke-width="2" points="808.3859,-66.9905 818.9684,-66.4796 810.377,-60.2797 808.3859,-66.9905"/>
</g>
</g>
</svg>
