<svg class="plt-container" width="1000.0" height="500.0" xmlns:xlink="http://www.w3.org/1999/xlink" xmlns="http://www.w3.org/2000/svg">
  <style type="text/css">
  .plt-container {
	font-family: "Lucida Grande", sans-serif;
}
text {
	font-size: 12px;
	fill: #3d3d3d;
}
.plt-glass-pane {
	cursor: crosshair;
}
.plt-data-tooltip text {
	font-size: 12px;
}
.plt-axis-tooltip text {
	font-size: 10px;
}
.plt-axis line {
	shape-rendering: crispedges;
}
.highlight {
	fill-opacity: 0.75;
}

.plt-plot-title {

  font-size: 16.0px;
  font-weight: bold;
}
.plt-axis .tick text {

  font-size: 10.0px;
}
.plt-axis.small-tick-font .tick text {

  font-size: 8.0px;
}
.plt-axis-title text {

  font-size: 12.0px;
}
.plt_legend .legend-title text {

  font-size: 12.0px;
  font-weight: bold;
}
.plt_legend text {

  font-size: 10.0px;
}

  </style>
  <g class="plt-plot">
    <g class="plt-plot-title" transform="translate(500.0 12.0 ) ">
      <text text-anchor="middle" dy="0.35em">
      Loss over time
      </text>
    </g>
    <g transform="translate(20.0 34.0 ) ">
      <g transform="translate(29.1 427.0 ) " class="plt-axis">
        <g class="tick" transform="translate(38.448163452708904 0.0 ) ">
          <line stroke-width="1.0" stroke="rgb(0,0,0)" stroke-opacity="1.0" x2="0.0" y2="6.0">
          </line>
          <g transform="translate(0.0 9.0 ) ">
            <text style="fill:#000000;" text-anchor="middle" dy="0.7em">
            0
            </text>
          </g>
        </g>
        <g class="tick" transform="translate(124.84853076216712 0.0 ) ">
          <line stroke-width="1.0" stroke="rgb(0,0,0)" stroke-opacity="1.0" x2="0.0" y2="6.0">
          </line>
          <g transform="translate(0.0 9.0 ) ">
            <text style="fill:#000000;" text-anchor="middle" dy="0.7em">
            20
            </text>
          </g>
        </g>
        <g class="tick" transform="translate(211.24889807162535 0.0 ) ">
          <line stroke-width="1.0" stroke="rgb(0,0,0)" stroke-opacity="1.0" x2="0.0" y2="6.0">
          </line>
          <g transform="translate(0.0 9.0 ) ">
            <text style="fill:#000000;" text-anchor="middle" dy="0.7em">
            40
            </text>
          </g>
        </g>
        <g class="tick" transform="translate(297.6492653810836 0.0 ) ">
          <line stroke-width="1.0" stroke="rgb(0,0,0)" stroke-opacity="1.0" x2="0.0" y2="6.0">
          </line>
          <g transform="translate(0.0 9.0 ) ">
            <text style="fill:#000000;" text-anchor="middle" dy="0.7em">
            60
            </text>
          </g>
        </g>
        <g class="tick" transform="translate(384.0496326905418 0.0 ) ">
          <line stroke-width="1.0" stroke="rgb(0,0,0)" stroke-opacity="1.0" x2="0.0" y2="6.0">
          </line>
          <g transform="translate(0.0 9.0 ) ">
            <text style="fill:#000000;" text-anchor="middle" dy="0.7em">
            80
            </text>
          </g>
        </g>
        <g class="tick" transform="translate(470.45 0.0 ) ">
          <line stroke-width="1.0" stroke="rgb(0,0,0)" stroke-opacity="1.0" x2="0.0" y2="6.0">
          </line>
          <g transform="translate(0.0 9.0 ) ">
            <text style="fill:#000000;" text-anchor="middle" dy="0.7em">
            100
            </text>
          </g>
        </g>
        <g class="tick" transform="translate(556.8503673094582 0.0 ) ">
          <line stroke-width="1.0" stroke="rgb(0,0,0)" stroke-opacity="1.0" x2="0.0" y2="6.0">
          </line>
          <g transform="translate(0.0 9.0 ) ">
            <text style="fill:#000000;" text-anchor="middle" dy="0.7em">
            120
            </text>
          </g>
        </g>
        <g class="tick" transform="translate(643.2507346189163 0.0 ) ">
          <line stroke-width="1.0" stroke="rgb(0,0,0)" stroke-opacity="1.0" x2="0.0" y2="6.0">
          </line>
          <g transform="translate(0.0 9.0 ) ">
            <text style="fill:#000000;" text-anchor="middle" dy="0.7em">
            140
            </text>
          </g>
        </g>
        <g class="tick" transform="translate(729.6511019283746 0.0 ) ">
          <line stroke-width="1.0" stroke="rgb(0,0,0)" stroke-opacity="1.0" x2="0.0" y2="6.0">
          </line>
          <g transform="translate(0.0 9.0 ) ">
            <text style="fill:#000000;" text-anchor="middle" dy="0.7em">
            160
            </text>
          </g>
        </g>
        <g class="tick" transform="translate(816.0514692378327 0.0 ) ">
          <line stroke-width="1.0" stroke="rgb(0,0,0)" stroke-opacity="1.0" x2="0.0" y2="6.0">
          </line>
          <g transform="translate(0.0 9.0 ) ">
            <text style="fill:#000000;" text-anchor="middle" dy="0.7em">
            180
            </text>
          </g>
        </g>
        <g class="tick" transform="translate(902.451836547291 0.0 ) ">
          <line stroke-width="1.0" stroke="rgb(0,0,0)" stroke-opacity="1.0" x2="0.0" y2="6.0">
          </line>
          <g transform="translate(0.0 9.0 ) ">
            <text style="fill:#000000;" text-anchor="middle" dy="0.7em">
            200
            </text>
          </g>
        </g>
        <line x1="0.0" y1="0.0" x2="940.9" y2="0.0" stroke-width="1.0" stroke="rgb(0,0,0)" stroke-opacity="1.0">
        </line>
      </g>
      <g transform="translate(29.1 0.0 ) " class="plt-axis">
        <g class="tick" transform="translate(0.0 407.7030162933155 ) ">
          <line stroke-width="1.0" stroke="rgb(0,0,0)" stroke-opacity="1.0" x2="-6.0" y2="0.0">
          </line>
          <g transform="translate(-9.0 0.0 ) ">
            <text style="fill:#000000;" text-anchor="end" dy="0.35em">
            0.0
            </text>
          </g>
        </g>
        <g class="tick" transform="translate(0.0 377.3531248838479 ) ">
          <line stroke-width="1.0" stroke="rgb(0,0,0)" stroke-opacity="1.0" x2="-6.0" y2="0.0">
          </line>
          <g transform="translate(-9.0 0.0 ) ">
            <text style="fill:#000000;" text-anchor="end" dy="0.35em">
            0.2
            </text>
          </g>
        </g>
        <g class="tick" transform="translate(0.0 347.0032334743803 ) ">
          <line stroke-width="1.0" stroke="rgb(0,0,0)" stroke-opacity="1.0" x2="-6.0" y2="0.0">
          </line>
          <g transform="translate(-9.0 0.0 ) ">
            <text style="fill:#000000;" text-anchor="end" dy="0.35em">
            0.4
            </text>
          </g>
        </g>
        <g class="tick" transform="translate(0.0 316.65334206491275 ) ">
          <line stroke-width="1.0" stroke="rgb(0,0,0)" stroke-opacity="1.0" x2="-6.0" y2="0.0">
          </line>
          <g transform="translate(-9.0 0.0 ) ">
            <text style="fill:#000000;" text-anchor="end" dy="0.35em">
            0.6
            </text>
          </g>
        </g>
        <g class="tick" transform="translate(0.0 286.30345065544515 ) ">
          <line stroke-width="1.0" stroke="rgb(0,0,0)" stroke-opacity="1.0" x2="-6.0" y2="0.0">
          </line>
          <g transform="translate(-9.0 0.0 ) ">
            <text style="fill:#000000;" text-anchor="end" dy="0.35em">
            0.8
            </text>
          </g>
        </g>
        <g class="tick" transform="translate(0.0 255.95355924597757 ) ">
          <line stroke-width="1.0" stroke="rgb(0,0,0)" stroke-opacity="1.0" x2="-6.0" y2="0.0">
          </line>
          <g transform="translate(-9.0 0.0 ) ">
            <text style="fill:#000000;" text-anchor="end" dy="0.35em">
            1.0
            </text>
          </g>
        </g>
        <g class="tick" transform="translate(0.0 225.60366783651 ) ">
          <line stroke-width="1.0" stroke="rgb(0,0,0)" stroke-opacity="1.0" x2="-6.0" y2="0.0">
          </line>
          <g transform="translate(-9.0 0.0 ) ">
            <text style="fill:#000000;" text-anchor="end" dy="0.35em">
            1.2
            </text>
          </g>
        </g>
        <g class="tick" transform="translate(0.0 195.25377642704242 ) ">
          <line stroke-width="1.0" stroke="rgb(0,0,0)" stroke-opacity="1.0" x2="-6.0" y2="0.0">
          </line>
          <g transform="translate(-9.0 0.0 ) ">
            <text style="fill:#000000;" text-anchor="end" dy="0.35em">
            1.4
            </text>
          </g>
        </g>
        <g class="tick" transform="translate(0.0 164.90388501757485 ) ">
          <line stroke-width="1.0" stroke="rgb(0,0,0)" stroke-opacity="1.0" x2="-6.0" y2="0.0">
          </line>
          <g transform="translate(-9.0 0.0 ) ">
            <text style="fill:#000000;" text-anchor="end" dy="0.35em">
            1.6
            </text>
          </g>
        </g>
        <g class="tick" transform="translate(0.0 134.55399360810725 ) ">
          <line stroke-width="1.0" stroke="rgb(0,0,0)" stroke-opacity="1.0" x2="-6.0" y2="0.0">
          </line>
          <g transform="translate(-9.0 0.0 ) ">
            <text style="fill:#000000;" text-anchor="end" dy="0.35em">
            1.8
            </text>
          </g>
        </g>
        <g class="tick" transform="translate(0.0 104.2041021986397 ) ">
          <line stroke-width="1.0" stroke="rgb(0,0,0)" stroke-opacity="1.0" x2="-6.0" y2="0.0">
          </line>
          <g transform="translate(-9.0 0.0 ) ">
            <text style="fill:#000000;" text-anchor="end" dy="0.35em">
            2.0
            </text>
          </g>
        </g>
        <g class="tick" transform="translate(0.0 73.8542107891721 ) ">
          <line stroke-width="1.0" stroke="rgb(0,0,0)" stroke-opacity="1.0" x2="-6.0" y2="0.0">
          </line>
          <g transform="translate(-9.0 0.0 ) ">
            <text style="fill:#000000;" text-anchor="end" dy="0.35em">
            2.2
            </text>
          </g>
        </g>
        <g class="tick" transform="translate(0.0 43.5043193797045 ) ">
          <line stroke-width="1.0" stroke="rgb(0,0,0)" stroke-opacity="1.0" x2="-6.0" y2="0.0">
          </line>
          <g transform="translate(-9.0 0.0 ) ">
            <text style="fill:#000000;" text-anchor="end" dy="0.35em">
            2.4
            </text>
          </g>
        </g>
        <g class="tick" transform="translate(0.0 13.154427970236895 ) ">
          <line stroke-width="1.0" stroke="rgb(0,0,0)" stroke-opacity="1.0" x2="-6.0" y2="0.0">
          </line>
          <g transform="translate(-9.0 0.0 ) ">
            <text style="fill:#000000;" text-anchor="end" dy="0.35em">
            2.6
            </text>
          </g>
        </g>
        <line x1="0.0" y1="0.0" x2="0.0" y2="427.0" stroke-width="1.0" stroke="rgb(0,0,0)" stroke-opacity="1.0">
        </line>
      </g>
      <g transform="translate(29.1 0.0 ) " clip-path="url(#lplt-clip0)" clip-bounds-jfx="[rect (0.0, 0.0), (940.9, 427.0)]">
        <defs>
          <clipPath id="lplt-clip0">
            <rect x="0.0" y="0.0" width="940.9" height="427.0">
            </rect>
          </clipPath>
        </defs>
        <g>
          <path d="M42.768181818181816 20.729787813174994 L42.768181818181816 20.729787813174994 L47.08820018365473 19.409090909090935 L51.40821854912764 46.8001721667456 L55.728236914600544 29.940240833693224 L60.04825528007346 41.907555791454115 L64.36827364554637 29.36920584959273 L68.68829201101929 68.54855438812336 L73.00831037649219 38.018387668143646 L77.3283287419651 71.51515434987562 L81.64834710743801 74.53176868535257 L85.96836547291093 71.62296963599101 L90.28838383838382 72.24492572231406 L94.60840220385674 79.27005863175964 L98.92842056932966 80.43709412644182 L103.24843893480258 74.02967789839664 L107.56845730027547 78.91479175251436 L111.88847566574839 95.2183591320831 L116.2084940312213 111.46650505188114 L120.5285123966942 109.83830019376376 L124.84853076216712 112.94568655536608 L129.16854912764003 101.93841417121325 L133.48856749311295 120.67523811271008 L137.80858585858584 113.8811899741359 L142.12860422405876 146.49060147252635 L146.44862258953168 132.206799929051 L150.76864095500457 132.70566026848667 L155.0886593204775 158.86187654024786 L159.4086776859504 124.60807565239844 L163.72869605142333 130.1899269313434 L168.04871441689625 134.9136800173386 L172.36873278236914 156.49573175030227 L176.68875114784205 148.21697521548174 L181.00876951331497 161.72906747821995 L185.32878787878786 167.3947101337989 L189.64880624426078 174.48281868237248 L193.9688246097337 184.14411973654592 L198.28884297520662 170.14334692305286 L202.6088613406795 184.70543466983145 L206.92887970615243 170.0475856202354 L211.24889807162535 193.86424303340587 L215.56891643709824 191.02893529896744 L219.88893480257116 179.93768165099956 L224.20895316804408 183.14384174361624 L228.528971533517 199.04067611369413 L232.84898989898988 188.81904250936753 L237.1690082644628 212.4463422567785 L241.48902662993572 219.06483427111698 L245.8090449954086 215.5513452841306 L250.12906336088153 209.74228078900262 L254.44908172635445 211.91306328208222 L258.76910009182734 205.16330251491323 L263.08911845730023 211.4937055539889 L267.4091368227732 234.38426532294986 L271.72915518824607 240.338061048616 L276.049173553719 234.40721842904387 L280.3691919191919 242.22414548329616 L284.6892102846648 232.0676995046686 L289.00922865013774 243.65738390983256 L293.32924701561063 245.1726285504577 L297.6492653810836 250.19388623749035 L301.96928374655647 245.8119533539201 L306.28930211202936 264.8974060131242 L310.6093204775023 262.4804280208718 L314.9293388429752 264.79570132037236 L319.2493572084481 264.11911298010716 L323.56937557392104 269.8597263774867 L327.8893939393939 276.17870236764827 L332.2094123048668 273.1735379327372 L336.52943067033976 285.3701413543872 L340.84944903581265 278.7397761671371 L345.1694674012856 284.76767797543675 L349.4894857667585 289.2896243789057 L353.8095041322314 292.5962078474044 L358.12952249770433 292.15871019669567 L362.4495408631772 306.2621979410991 L366.7695592286501 301.4928997598264 L371.08957759412306 306.67716327039193 L375.40959595959595 308.1151999243348 L379.72961432506884 319.5340978987573 L384.0496326905418 315.3298823718726 L388.3696510560147 322.2189939029236 L392.68966942148757 327.783379116279 L397.0096877869605 326.7942381793637 L401.3297061524334 323.7188120781361 L405.64972451790635 332.93658567371136 L409.96974288337924 332.73541845704256 L414.28976124885213 340.1524343706286 L418.6097796143251 342.69396627567914 L422.92979797979797 346.96113070332467 L427.24981634527086 349.39371473644246 L431.5698347107438 350.9255434898256 L435.8898530762167 353.4575651489967 L440.2098714416896 361.4387514113378 L444.52988980716253 364.38798362787855 L448.8499081726354 365.93096579016094 L453.1699265381083 370.93141047238686 L457.48994490358126 373.5174017106769 L461.80996326905415 374.74599533599263 L466.1299816345271 379.20503539365933 L470.45 384.2452832415381 L474.7700183654729 385.85582892039287 L479.0900367309458 389.26627286181866 L483.4100550964187 392.9018470016275 L487.7300734618916 396.2792402406435 L492.05009182736455 399.775402033228 L496.37011019283744 402.3448034690258 L500.69012855831033 406.18238148764317 L505.0101469237833 407.57351397693833 L509.3301652892562 407.58453740486215 L513.6501836547291 407.57038669415743 L517.970202020202 407.5791489620782 L522.2902203856748 407.57739688858123 L526.6102387511478 407.57601808701645 L530.9302571166207 407.5762638699717 L535.2502754820936 407.57277604780313 L539.5702938475665 407.57899664488934 L543.8903122130395 407.5762060448668 L548.2103305785123 407.5810124303719 L552.5303489439852 407.5797370436327 L556.8503673094582 407.5821891436493 L561.170385674931 407.57823184388184 L565.490404040404 407.57902927050867 L569.8104224058769 407.5759670481935 L574.1304407713498 407.58141942020063 L578.4504591368227 407.5832550134337 L582.7704775022956 407.5801358797468 L587.0904958677685 407.56932734951073 L591.4105142332414 407.5674807052929 L595.7305325987144 407.58009161594924 L600.0505509641872 407.5852149478097 L604.3705693296602 407.5608811201264 L608.6905876951331 407.5669677520761 L613.0106060606059 407.580454398002 L617.3306244260789 407.5684577725641 L621.6506427915518 407.5740062410678 L625.9706611570247 407.56452981296366 L630.2906795224976 407.56592688358563 L634.6106978879706 407.5656311255517 L638.9307162534434 407.57121661496825 L643.2507346189163 407.58187412325725 L647.5707529843893 407.5857861732444 L651.8907713498622 407.57624553456674 L656.2107897153351 407.5833125092891 L660.530808080808 407.5811691882111 L664.850826446281 407.5658183249807 L669.1708448117538 407.5772744682086 L673.4908631772267 407.5857879791639 L677.8108815426997 407.57334370661937 L682.1308999081725 407.5758350789747 L686.4509182736455 407.58054480677515 L690.7709366391184 407.57539854441353 L695.0909550045913 407.57972366873236 L699.4109733700642 407.5704435331959 L703.7309917355371 407.57342004314444 L708.05101010101 407.5795898815363 L712.3710284664829 407.57270138592975 L716.6910468319559 407.57813686462407 L721.0110651974287 407.57590892523416 L725.3310835629017 407.5844686700933 L729.6511019283746 407.5760718357018 L733.9711202938474 407.58459804274275 L738.2911386593204 407.5798030165106 L742.6111570247933 407.56783755601344 L746.9311753902662 407.58056584835674 L751.2511937557391 407.5807122111489 L755.571212121212 407.5909090909091 L759.891230486685 407.5802087482752 L764.2112488521578 407.5707910864059 L768.5312672176308 407.57615666211734 L772.8512855831037 407.5759420014703 L777.1713039485766 407.5760819511226 L781.4913223140495 407.5758076006419 L785.8113406795225 407.58104975234284 L790.1313590449953 407.57593486526173 L794.4513774104682 407.58097224898694 L798.7713957759412 407.58557000148176 L803.091414141414 407.5798032671354 L807.411432506887 407.56760569040875 L811.7314508723599 407.58519619812 L816.0514692378327 407.57660778126336 L820.3714876033057 407.5721372687662 L824.6915059687786 407.5716703389049 L829.0115243342515 407.58513515937176 L833.3315426997244 407.56459230230695 L837.6515610651974 407.5757816652804 L841.9715794306702 407.5809185123635 L846.2915977961432 407.56509052756644 L850.6116161616161 407.56659802422655 L854.9316345270889 407.5848615986818 L859.2516528925619 407.57281326790337 L863.5716712580348 407.57983947307605 L867.8916896235077 407.5773829339348 L872.2117079889806 407.5741050461784 L876.5317263544536 407.58332815086214 L880.8517447199265 407.58107271159025 L885.1717630853993 407.58533052830836 L889.4917814508723 407.5705126949475 L893.8117998163452 407.57536965686813 L898.1318181818181 407.57153307385283 " fill="none" stroke-width="4.0" stroke="rgb(0,128,0)" stroke-opacity="1.0">
          </path>
        </g>
      </g>
    </g>
    <g class="plt-axis">
      <g transform="translate(4.0 247.5 ) rotate(-90.0 ) " class="plt-axis-title">
        <text text-anchor="middle" dy="0.7em">
        y
        </text>
      </g>
    </g>
    <g class="plt-axis">
      <g transform="translate(519.55 496.0 ) " class="plt-axis-title">
        <text text-anchor="middle">
        x
        </text>
      </g>
    </g>
  </g>
  <g>
    <g>
    </g>
  </g>
  <rect class="plt-glass-pane" opacity="0.0" width="1000.0" height="500.0">
  </rect>
</svg>