<svg class="plt-container" width="1000.0" height="500.0" xmlns:xlink="http://www.w3.org/1999/xlink" xmlns="http://www.w3.org/2000/svg">
  <style type="text/css">
  .plt-container {
	font-family: "Lucida Grande", sans-serif;
}
text {
	font-size: 12px;
	fill: #3d3d3d;
}
.plt-glass-pane {
	cursor: crosshair;
}
.plt-data-tooltip text {
	font-size: 12px;
}
.plt-axis-tooltip text {
	font-size: 10px;
}
.plt-axis line {
	shape-rendering: crispedges;
}
.highlight {
	fill-opacity: 0.75;
}

.plt-plot-title {

  font-size: 16.0px;
  font-weight: bold;
}
.plt-axis .tick text {

  font-size: 10.0px;
}
.plt-axis.small-tick-font .tick text {

  font-size: 8.0px;
}
.plt-axis-title text {

  font-size: 12.0px;
}
.plt_legend .legend-title text {

  font-size: 12.0px;
  font-weight: bold;
}
.plt_legend text {

  font-size: 10.0px;
}

  </style>
  <g class="plt-plot">
    <g class="plt-plot-title" transform="translate(500.0 12.0 ) ">
      <text text-anchor="middle" dy="0.35em">
      Loss over time
      </text>
    </g>
    <g transform="translate(20.0 34.0 ) ">
      <g transform="translate(29.1 427.0 ) " class="plt-axis">
        <g class="tick" transform="translate(38.448163452708904 0.0 ) ">
          <line stroke-width="1.0" stroke="rgb(0,0,0)" stroke-opacity="1.0" x2="0.0" y2="6.0">
          </line>
          <g transform="translate(0.0 9.0 ) ">
            <text style="fill:#000000;" text-anchor="middle" dy="0.7em">
            0
            </text>
          </g>
        </g>
        <g class="tick" transform="translate(124.84853076216712 0.0 ) ">
          <line stroke-width="1.0" stroke="rgb(0,0,0)" stroke-opacity="1.0" x2="0.0" y2="6.0">
          </line>
          <g transform="translate(0.0 9.0 ) ">
            <text style="fill:#000000;" text-anchor="middle" dy="0.7em">
            20
            </text>
          </g>
        </g>
        <g class="tick" transform="translate(211.24889807162535 0.0 ) ">
          <line stroke-width="1.0" stroke="rgb(0,0,0)" stroke-opacity="1.0" x2="0.0" y2="6.0">
          </line>
          <g transform="translate(0.0 9.0 ) ">
            <text style="fill:#000000;" text-anchor="middle" dy="0.7em">
            40
            </text>
          </g>
        </g>
        <g class="tick" transform="translate(297.6492653810836 0.0 ) ">
          <line stroke-width="1.0" stroke="rgb(0,0,0)" stroke-opacity="1.0" x2="0.0" y2="6.0">
          </line>
          <g transform="translate(0.0 9.0 ) ">
            <text style="fill:#000000;" text-anchor="middle" dy="0.7em">
            60
            </text>
          </g>
        </g>
        <g class="tick" transform="translate(384.0496326905418 0.0 ) ">
          <line stroke-width="1.0" stroke="rgb(0,0,0)" stroke-opacity="1.0" x2="0.0" y2="6.0">
          </line>
          <g transform="translate(0.0 9.0 ) ">
            <text style="fill:#000000;" text-anchor="middle" dy="0.7em">
            80
            </text>
          </g>
        </g>
        <g class="tick" transform="translate(470.45 0.0 ) ">
          <line stroke-width="1.0" stroke="rgb(0,0,0)" stroke-opacity="1.0" x2="0.0" y2="6.0">
          </line>
          <g transform="translate(0.0 9.0 ) ">
            <text style="fill:#000000;" text-anchor="middle" dy="0.7em">
            100
            </text>
          </g>
        </g>
        <g class="tick" transform="translate(556.8503673094582 0.0 ) ">
          <line stroke-width="1.0" stroke="rgb(0,0,0)" stroke-opacity="1.0" x2="0.0" y2="6.0">
          </line>
          <g transform="translate(0.0 9.0 ) ">
            <text style="fill:#000000;" text-anchor="middle" dy="0.7em">
            120
            </text>
          </g>
        </g>
        <g class="tick" transform="translate(643.2507346189163 0.0 ) ">
          <line stroke-width="1.0" stroke="rgb(0,0,0)" stroke-opacity="1.0" x2="0.0" y2="6.0">
          </line>
          <g transform="translate(0.0 9.0 ) ">
            <text style="fill:#000000;" text-anchor="middle" dy="0.7em">
            140
            </text>
          </g>
        </g>
        <g class="tick" transform="translate(729.6511019283746 0.0 ) ">
          <line stroke-width="1.0" stroke="rgb(0,0,0)" stroke-opacity="1.0" x2="0.0" y2="6.0">
          </line>
          <g transform="translate(0.0 9.0 ) ">
            <text style="fill:#000000;" text-anchor="middle" dy="0.7em">
            160
            </text>
          </g>
        </g>
        <g class="tick" transform="translate(816.0514692378327 0.0 ) ">
          <line stroke-width="1.0" stroke="rgb(0,0,0)" stroke-opacity="1.0" x2="0.0" y2="6.0">
          </line>
          <g transform="translate(0.0 9.0 ) ">
            <text style="fill:#000000;" text-anchor="middle" dy="0.7em">
            180
            </text>
          </g>
        </g>
        <g class="tick" transform="translate(902.451836547291 0.0 ) ">
          <line stroke-width="1.0" stroke="rgb(0,0,0)" stroke-opacity="1.0" x2="0.0" y2="6.0">
          </line>
          <g transform="translate(0.0 9.0 ) ">
            <text style="fill:#000000;" text-anchor="middle" dy="0.7em">
            200
            </text>
          </g>
        </g>
        <line x1="0.0" y1="0.0" x2="940.9" y2="0.0" stroke-width="1.0" stroke="rgb(0,0,0)" stroke-opacity="1.0">
        </line>
      </g>
      <g transform="translate(29.1 0.0 ) " class="plt-axis">
        <g class="tick" transform="translate(0.0 392.5360447936445 ) ">
          <line stroke-width="1.0" stroke="rgb(0,0,0)" stroke-opacity="1.0" x2="-6.0" y2="0.0">
          </line>
          <g transform="translate(-9.0 0.0 ) ">
            <text style="fill:#000000;" text-anchor="end" dy="0.35em">
            0.6
            </text>
          </g>
        </g>
        <g class="tick" transform="translate(0.0 343.6999283870113 ) ">
          <line stroke-width="1.0" stroke="rgb(0,0,0)" stroke-opacity="1.0" x2="-6.0" y2="0.0">
          </line>
          <g transform="translate(-9.0 0.0 ) ">
            <text style="fill:#000000;" text-anchor="end" dy="0.35em">
            0.8
            </text>
          </g>
        </g>
        <g class="tick" transform="translate(0.0 294.8638119803781 ) ">
          <line stroke-width="1.0" stroke="rgb(0,0,0)" stroke-opacity="1.0" x2="-6.0" y2="0.0">
          </line>
          <g transform="translate(-9.0 0.0 ) ">
            <text style="fill:#000000;" text-anchor="end" dy="0.35em">
            1.0
            </text>
          </g>
        </g>
        <g class="tick" transform="translate(0.0 246.0276955737449 ) ">
          <line stroke-width="1.0" stroke="rgb(0,0,0)" stroke-opacity="1.0" x2="-6.0" y2="0.0">
          </line>
          <g transform="translate(-9.0 0.0 ) ">
            <text style="fill:#000000;" text-anchor="end" dy="0.35em">
            1.2
            </text>
          </g>
        </g>
        <g class="tick" transform="translate(0.0 197.19157916711168 ) ">
          <line stroke-width="1.0" stroke="rgb(0,0,0)" stroke-opacity="1.0" x2="-6.0" y2="0.0">
          </line>
          <g transform="translate(-9.0 0.0 ) ">
            <text style="fill:#000000;" text-anchor="end" dy="0.35em">
            1.4
            </text>
          </g>
        </g>
        <g class="tick" transform="translate(0.0 148.35546276047847 ) ">
          <line stroke-width="1.0" stroke="rgb(0,0,0)" stroke-opacity="1.0" x2="-6.0" y2="0.0">
          </line>
          <g transform="translate(-9.0 0.0 ) ">
            <text style="fill:#000000;" text-anchor="end" dy="0.35em">
            1.6
            </text>
          </g>
        </g>
        <g class="tick" transform="translate(0.0 99.51934635384526 ) ">
          <line stroke-width="1.0" stroke="rgb(0,0,0)" stroke-opacity="1.0" x2="-6.0" y2="0.0">
          </line>
          <g transform="translate(-9.0 0.0 ) ">
            <text style="fill:#000000;" text-anchor="end" dy="0.35em">
            1.8
            </text>
          </g>
        </g>
        <g class="tick" transform="translate(0.0 50.683229947212055 ) ">
          <line stroke-width="1.0" stroke="rgb(0,0,0)" stroke-opacity="1.0" x2="-6.0" y2="0.0">
          </line>
          <g transform="translate(-9.0 0.0 ) ">
            <text style="fill:#000000;" text-anchor="end" dy="0.35em">
            2.0
            </text>
          </g>
        </g>
        <g class="tick" transform="translate(0.0 1.847113540578789 ) ">
          <line stroke-width="1.0" stroke="rgb(0,0,0)" stroke-opacity="1.0" x2="-6.0" y2="0.0">
          </line>
          <g transform="translate(-9.0 0.0 ) ">
            <text style="fill:#000000;" text-anchor="end" dy="0.35em">
            2.2
            </text>
          </g>
        </g>
        <line x1="0.0" y1="0.0" x2="0.0" y2="427.0" stroke-width="1.0" stroke="rgb(0,0,0)" stroke-opacity="1.0">
        </line>
      </g>
      <g transform="translate(29.1 0.0 ) " clip-path="url(#lplt-clip0)" clip-bounds-jfx="[rect (0.0, 0.0), (940.9, 427.0)]">
        <defs>
          <clipPath id="lplt-clip0">
            <rect x="0.0" y="0.0" width="940.9" height="427.0">
            </rect>
          </clipPath>
        </defs>
        <g>
          <path d="M42.768181818181816 19.409090909090878 L42.768181818181816 19.409090909090878 L47.08820018365473 39.53740449145272 L51.40821854912764 85.51171280077511 L55.728236914600544 60.52998139172979 L60.04825528007346 74.45070558822323 L64.36827364554637 77.19796735174168 L68.68829201101929 100.97099828561284 L73.00831037649219 83.49816840538978 L77.3283287419651 98.856553047104 L81.64834710743801 65.08089106872944 L85.96836547291093 76.03146216834728 L90.28838383838382 114.79407268769188 L94.60840220385674 135.04669343077688 L98.92842056932966 100.55774187840842 L103.24843893480258 112.24251750277716 L107.56845730027547 136.17511931626893 L111.88847566574839 151.48402526817864 L116.2084940312213 148.1651416986714 L120.5285123966942 176.3663286462625 L124.84853076216712 151.01965655055255 L129.16854912764003 180.95088835395478 L133.48856749311295 164.96779046507078 L137.80858585858584 168.2360048386264 L142.12860422405876 143.7762868546908 L146.44862258953168 176.26990209750932 L150.76864095500457 196.33010996643895 L155.0886593204775 193.04840029319547 L159.4086776859504 220.10161622788843 L163.72869605142333 201.04246892464784 L168.04871441689625 201.92959915928378 L172.36873278236914 200.53929114732853 L176.68875114784205 213.74424913842387 L181.00876951331497 213.15280335287486 L185.32878787878786 208.87703943826386 L189.64880624426078 242.78975489523742 L193.9688246097337 227.9438528195144 L198.28884297520662 227.64744531425794 L202.6088613406795 258.358731243874 L206.92887970615243 235.01790500766606 L211.24889807162535 254.27256026285704 L215.56891643709824 254.1943007222996 L219.88893480257116 270.800456110408 L224.20895316804408 253.90020487767742 L228.528971533517 266.6129812807444 L232.84898989898988 250.59937540341855 L237.1690082644628 272.91757149001364 L241.48902662993572 272.4055656151363 L245.8090449954086 301.9131342100364 L250.12906336088153 301.5207561871422 L254.44908172635445 285.2749645374405 L258.76910009182734 292.6290004578958 L263.08911845730023 305.0797846878561 L267.4091368227732 303.4376449742325 L271.72915518824607 311.8020878769929 L276.049173553719 310.3321023536249 L280.3691919191919 293.8444728619985 L284.6892102846648 308.53155830306355 L289.00922865013774 325.14782646561457 L293.32924701561063 329.17067403164543 L297.6492653810836 327.6088180278583 L301.96928374655647 322.98961285082555 L306.28930211202936 331.1876567100485 L310.6093204775023 330.4450258966992 L314.9293388429752 339.574857430864 L319.2493572084481 322.05030501576994 L323.56937557392104 348.8034398029129 L327.8893939393939 340.0496935437205 L332.2094123048668 354.7078748122848 L336.52943067033976 350.67898629923775 L340.84944903581265 354.8073293720263 L345.1694674012856 364.19982382701187 L349.4894857667585 374.5197604766723 L353.8095041322314 354.97452135411334 L358.12952249770433 362.73615254930314 L362.4495408631772 367.2060094105476 L366.7695592286501 353.87353071930085 L371.08957759412306 363.89121655051025 L375.40959595959595 352.06605359400857 L379.72961432506884 366.5253150790378 L384.0496326905418 374.3960358063 L388.3696510560147 358.4805945405801 L392.68966942148757 360.60245168373535 L397.0096877869605 367.92573040188836 L401.3297061524334 366.32562896049103 L405.64972451790635 358.45375036074233 L409.96974288337924 372.2352152788469 L414.28976124885213 377.46930428078633 L418.6097796143251 380.7493677961212 L422.92979797979797 374.4068059838371 L427.24981634527086 386.04559279469765 L431.5698347107438 379.00306691692447 L435.8898530762167 379.87154440212134 L440.2098714416896 384.92678731024864 L444.52988980716253 385.4911047532112 L448.8499081726354 385.37791176527014 L453.1699265381083 388.1183792403054 L457.48994490358126 377.1425739869051 L461.80996326905415 373.26217345841224 L466.1299816345271 386.1288280619125 L470.45 386.8853752041824 L474.7700183654729 393.40368132398885 L479.0900367309458 384.34266797198194 L483.4100550964187 382.4325168465054 L487.7300734618916 398.0173838365244 L492.05009182736455 394.2105433883779 L496.37011019283744 391.11162552941266 L500.69012855831033 391.0967619234118 L505.0101469237833 388.1571388659405 L509.3301652892562 383.73355706036466 L513.6501836547291 382.9794019404192 L517.970202020202 394.5101089386492 L522.2902203856748 400.07541891876997 L526.6102387511478 386.93254933757646 L530.9302571166207 385.2314914800812 L535.2502754820936 392.6278162400102 L539.5702938475665 381.91180124382424 L543.8903122130395 392.7099711744046 L548.2103305785123 385.32270500988756 L552.5303489439852 399.4628278334858 L556.8503673094582 406.9411766016152 L561.170385674931 396.9359673873521 L565.490404040404 391.79369544786584 L569.8104224058769 389.3179153082297 L574.1304407713498 389.8879211807672 L578.4504591368227 388.998172935512 L582.7704775022956 386.15462761555835 L587.0904958677685 387.84879885082495 L591.4105142332414 388.68801663807164 L595.7305325987144 400.95104992229165 L600.0505509641872 398.6296508322165 L604.3705693296602 394.04835209698126 L608.6905876951331 393.86638190908036 L613.0106060606059 391.1023195698691 L617.3306244260789 387.83390023333135 L621.6506427915518 407.5909090909091 L625.9706611570247 388.1216747980351 L630.2906795224976 397.9897857306876 L634.6106978879706 397.5217680324185 L638.9307162534434 384.02496947103964 L643.2507346189163 399.0328420324084 L647.5707529843893 403.99116197909757 L651.8907713498622 393.0296736483609 L656.2107897153351 386.27059108923083 L660.530808080808 389.40049378090566 L664.850826446281 399.0296434134905 L669.1708448117538 391.85924275598006 L673.4908631772267 398.5077147368696 L677.8108815426997 402.9560792893924 L682.1308999081725 394.9972999737421 L686.4509182736455 402.4447296088963 L690.7709366391184 396.1297313559995 L695.0909550045913 405.0793717984519 L699.4109733700642 384.6308258415006 L703.7309917355371 399.1014179223331 L708.05101010101 397.7301109636494 L712.3710284664829 398.2616937296679 L716.6910468319559 400.510190731064 L721.0110651974287 401.2446318489899 L725.3310835629017 397.2909256883672 L729.6511019283746 391.9125754001045 L733.9711202938474 393.4026691833841 L738.2911386593204 393.9591435717588 L742.6111570247933 396.22527097103324 L746.9311753902662 391.37110158259867 L751.2511937557391 397.7998658739276 L755.571212121212 395.4076262843097 L759.891230486685 398.135016670926 L764.2112488521578 394.5436731089303 L768.5312672176308 390.6584806955897 L772.8512855831037 390.8882857635773 L777.1713039485766 384.6223762650952 L781.4913223140495 394.181496705752 L785.8113406795225 392.5381114731907 L790.1313590449953 399.7700572181402 L794.4513774104682 400.3457264563731 L798.7713957759412 393.8591584376576 L803.091414141414 390.0939721466102 L807.411432506887 405.3326453953466 L811.7314508723599 391.5138097124818 L816.0514692378327 399.3329609114178 L820.3714876033057 394.7757823090256 L824.6915059687786 396.94668414532987 L829.0115243342515 402.8945520435251 L833.3315426997244 392.33377645017737 L837.6515610651974 389.152651463549 L841.9715794306702 397.1888830494402 L846.2915977961432 401.1017436745017 L850.6116161616161 397.24085833365905 L854.9316345270889 389.8389415564279 L859.2516528925619 394.94042681048575 L863.5716712580348 387.82141039621354 L867.8916896235077 396.91863729918964 L872.2117079889806 394.8014246690657 L876.5317263544536 391.6495986753348 L880.8517447199265 392.8355392062598 L885.1717630853993 388.6581060642103 L889.4917814508723 395.5700485392464 L893.8117998163452 393.1032966212931 L898.1318181818181 398.5366229462562 " fill="none" stroke-width="2.0" stroke="rgb(255,0,0)" stroke-opacity="1.0">
          </path>
        </g>
      </g>
    </g>
    <g class="plt-axis">
      <g transform="translate(4.0 247.5 ) rotate(-90.0 ) " class="plt-axis-title">
        <text text-anchor="middle" dy="0.7em">
        Squared errors
        </text>
      </g>
    </g>
    <g class="plt-axis">
      <g transform="translate(519.55 496.0 ) " class="plt-axis-title">
        <text text-anchor="middle">
        Epochs
        </text>
      </g>
    </g>
  </g>
  <g>
    <g>
    </g>
  </g>
  <rect class="plt-glass-pane" opacity="0.0" width="1000.0" height="500.0">
  </rect>
</svg>