<svg width="1083px" height="740px"
 viewBox="0.00 0.00 1083.34 740.43" xmlns="http://www.w3.org/2000/svg" xmlns:xlink="http://www.w3.org/1999/xlink">
<g id="graph0" class="graph" transform="scale(1.0 1.0) rotate(0) translate(4 736.4264)">
<title>%3</title>
<!-- 25126016 -->
<g id="node1" class="node">
<title>25126016</title>
<ellipse fill="none" stroke="#000000" stroke-width="2" cx="1035.0372" cy="-234.2132" rx="40.1111" ry="21.4286"/>
<text text-anchor="middle" x="1035.0372" y="-229.2132" font-family="Helvetica,sans-Serif" font-size="20.00" fill="#000000">grad</text>
</g>
<!-- 1514322932 -->
<g id="node2" class="node">
<title>1514322932</title>
<ellipse fill="none" stroke="#000000" stroke-width="2" cx="844.1808" cy="-264.2132" rx="37.4533" ry="21.4286"/>
<text text-anchor="middle" x="844.1808" y="-259.2132" font-family="Helvetica,sans-Serif" font-size="20.00" fill="#000000">pow</text>
</g>
<!-- 1514322932&#45;&gt;25126016 -->
<g id="edge1" class="edge">
<title>1514322932&#45;&gt;25126016</title>
<path fill="none" stroke="#000000" stroke-width="2" d="M880.5287,-258.4998C910.5213,-253.7854 953.3508,-247.0532 986.313,-241.872"/>
<polygon fill="#000000" stroke="#000000" stroke-width="2" points="986.8655,-245.3282 996.2007,-240.3178 985.7785,-238.4131 986.8655,-245.3282"/>
</g>
<!-- 654582261 -->
<g id="node3" class="node">
<title>654582261</title>
<ellipse fill="none" stroke="#000000" stroke-width="2" cx="662.5168" cy="-294.2132" rx="27" ry="21.4286"/>
<text text-anchor="middle" x="662.5168" y="-289.2132" font-family="Helvetica,sans-Serif" font-size="20.00" fill="#000000">+</text>
</g>
<!-- 654582261&#45;&gt;1514322932 -->
<g id="edge2" class="edge">
<title>654582261&#45;&gt;1514322932</title>
<path fill="none" stroke="#0000ff" stroke-width="2" d="M689.322,-289.7866C717.8547,-285.0747 763.5373,-277.5307 797.9064,-271.855"/>
<polygon fill="#0000ff" stroke="#0000ff" stroke-width="2" points="798.8818,-275.2414 808.1779,-270.1587 797.7412,-268.3349 798.8818,-275.2414"/>
</g>
<!-- 1389647288 -->
<g id="node4" class="node">
<title>1389647288</title>
<ellipse fill="none" stroke="#000000" stroke-width="2" cx="568.4041" cy="-351.2132" rx="27" ry="21.4286"/>
<text text-anchor="middle" x="568.4041" y="-346.2132" font-family="Helvetica,sans-Serif" font-size="20.00" fill="#000000">+</text>
</g>
<!-- 1389647288&#45;&gt;654582261 -->
<g id="edge3" class="edge">
<title>1389647288&#45;&gt;654582261</title>
<path fill="none" stroke="#0000ff" stroke-width="2" d="M590.232,-337.993C602.7932,-330.3852 618.7597,-320.715 632.4901,-312.3991"/>
<polygon fill="#0000ff" stroke="#0000ff" stroke-width="2" points="634.3914,-315.3395 641.1318,-307.1652 630.7651,-309.352 634.3914,-315.3395"/>
</g>
<!-- 1330278544 -->
<g id="node5" class="node">
<title>1330278544</title>
<ellipse fill="none" stroke="#000000" stroke-width="2" cx="478.4041" cy="-351.2132" rx="27" ry="21.4286"/>
<text text-anchor="middle" x="478.4041" y="-346.2132" font-family="Helvetica,sans-Serif" font-size="20.00" fill="#000000">*</text>
</g>
<!-- 1330278544&#45;&gt;1389647288 -->
<g id="edge4" class="edge">
<title>1330278544&#45;&gt;1389647288</title>
<path fill="none" stroke="#0000ff" stroke-width="2" d="M505.4071,-351.2132C513.4318,-351.2132 522.3707,-351.2132 530.935,-351.2132"/>
<polygon fill="#0000ff" stroke="#0000ff" stroke-width="2" points="531.1092,-354.7133 541.1091,-351.2132 531.1091,-347.7133 531.1092,-354.7133"/>
</g>
<!-- 1634198 -->
<g id="node6" class="node">
<title>1634198</title>
<ellipse fill="none" stroke="#000000" stroke-width="2" cx="388.4041" cy="-381.2132" rx="27" ry="21.4286"/>
<text text-anchor="middle" x="388.4041" y="-376.2132" font-family="Helvetica,sans-Serif" font-size="20.00" fill="#000000">+</text>
</g>
<!-- 1634198&#45;&gt;1330278544 -->
<g id="edge5" class="edge">
<title>1634198&#45;&gt;1330278544</title>
<path fill="none" stroke="#0000ff" stroke-width="2" d="M413.4741,-372.8565C422.8363,-369.7358 433.6408,-366.1343 443.7164,-362.7758"/>
<polygon fill="#0000ff" stroke="#0000ff" stroke-width="2" points="445.0885,-366.0078 453.4685,-359.5251 442.8749,-359.367 445.0885,-366.0078"/>
</g>
<!-- 110456297 -->
<g id="node7" class="node">
<title>110456297</title>
<ellipse fill="none" stroke="#000000" stroke-width="2" cx="281.5635" cy="-441.2132" rx="27" ry="21.4286"/>
<text text-anchor="middle" x="281.5635" y="-436.2132" font-family="Helvetica,sans-Serif" font-size="20.00" fill="#000000">+</text>
</g>
<!-- 110456297&#45;&gt;1634198 -->
<g id="edge6" class="edge">
<title>110456297&#45;&gt;1634198</title>
<path fill="none" stroke="#0000ff" stroke-width="2" d="M303.7009,-428.7812C319.1724,-420.0927 340.0489,-408.3687 357.2048,-398.7343"/>
<polygon fill="#0000ff" stroke="#0000ff" stroke-width="2" points="359.2897,-401.5776 366.295,-393.6293 355.862,-395.4742 359.2897,-401.5776"/>
</g>
<!-- 1989972246 -->
<g id="node8" class="node">
<title>1989972246</title>
<ellipse fill="none" stroke="#000000" stroke-width="2" cx="174.7229" cy="-231.2132" rx="27" ry="21.4286"/>
<text text-anchor="middle" x="174.7229" y="-226.2132" font-family="Helvetica,sans-Serif" font-size="20.00" fill="#000000">*</text>
</g>
<!-- 1989972246&#45;&gt;110456297 -->
<g id="edge7" class="edge">
<title>1989972246&#45;&gt;110456297</title>
<path fill="none" stroke="#0000ff" stroke-width="2" d="M192.0408,-247.5393C195.6784,-251.7013 199.1788,-256.3759 201.7229,-261.2132 233.6363,-321.8925 198.835,-354.7493 237.7229,-411.2132 240.9924,-415.9604 245.2785,-420.1778 249.8901,-423.8411"/>
<polygon fill="#0000ff" stroke="#0000ff" stroke-width="2" points="248.2022,-426.9333 258.3929,-429.8314 252.2337,-421.2108 248.2022,-426.9333"/>
</g>
<!-- 1791930789 -->
<g id="node9" class="node">
<title>1791930789</title>
<ellipse fill="none" stroke="#000000" stroke-width="2" cx="55.8614" cy="-231.2132" rx="47.2526" ry="21.4286"/>
<text text-anchor="middle" x="55.8614" y="-226.2132" font-family="Helvetica,sans-Serif" font-size="20.00" fill="#000000">0.364</text>
</g>
<!-- 1791930789&#45;&gt;1989972246 -->
<g id="edge8" class="edge">
<title>1791930789&#45;&gt;1989972246</title>
<path fill="none" stroke="#0000ff" stroke-width="2" d="M103.5221,-231.2132C114.7601,-231.2132 126.583,-231.2132 137.2954,-231.2132"/>
<polygon fill="#0000ff" stroke="#0000ff" stroke-width="2" points="137.5748,-234.7133 147.5747,-231.2132 137.5747,-227.7133 137.5748,-234.7133"/>
</g>
<!-- 519569038 -->
<g id="node10" class="node">
<title>519569038</title>
<ellipse fill="none" stroke="#000000" stroke-width="2" cx="174.7229" cy="-171.2132" rx="27" ry="21.4286"/>
<text text-anchor="middle" x="174.7229" y="-166.2132" font-family="Helvetica,sans-Serif" font-size="20.00" fill="#000000">*</text>
</g>
<!-- 1791930789&#45;&gt;519569038 -->
<g id="edge9" class="edge">
<title>1791930789&#45;&gt;519569038</title>
<path fill="none" stroke="#0000ff" stroke-width="2" d="M87.4021,-215.2918C104.4628,-206.6798 125.4892,-196.0658 142.6338,-187.4114"/>
<polygon fill="#0000ff" stroke="#0000ff" stroke-width="2" points="144.3595,-190.461 151.7094,-182.8301 141.2051,-184.212 144.3595,-190.461"/>
</g>
<!-- 1282788025 -->
<g id="node11" class="node">
<title>1282788025</title>
<ellipse fill="none" stroke="#000000" stroke-width="2" cx="281.5635" cy="-321.2132" rx="27" ry="21.4286"/>
<text text-anchor="middle" x="281.5635" y="-316.2132" font-family="Helvetica,sans-Serif" font-size="20.00" fill="#000000">+</text>
</g>
<!-- 519569038&#45;&gt;1282788025 -->
<g id="edge10" class="edge">
<title>519569038&#45;&gt;1282788025</title>
<path fill="none" stroke="#0000ff" stroke-width="2" d="M191.5424,-187.8249C195.2006,-191.9752 198.8351,-196.5728 201.7229,-201.2132 224.4851,-237.7903 210.7814,-257.5954 237.7229,-291.2132 241.3276,-295.7112 245.7853,-299.801 250.4646,-303.4139"/>
<polygon fill="#0000ff" stroke="#0000ff" stroke-width="2" points="248.7921,-306.5156 258.9904,-309.3871 252.8087,-300.7826 248.7921,-306.5156"/>
</g>
<!-- 232824863 -->
<g id="node12" class="node">
<title>232824863</title>
<ellipse fill="none" stroke="#000000" stroke-width="2" cx="388.4041" cy="-321.2132" rx="27" ry="21.4286"/>
<text text-anchor="middle" x="388.4041" y="-316.2132" font-family="Helvetica,sans-Serif" font-size="20.00" fill="#000000">+</text>
</g>
<!-- 1282788025&#45;&gt;232824863 -->
<g id="edge11" class="edge">
<title>1282788025&#45;&gt;232824863</title>
<path fill="none" stroke="#0000ff" stroke-width="2" d="M308.8003,-321.2132C321.6096,-321.2132 337.0873,-321.2132 350.9763,-321.2132"/>
<polygon fill="#0000ff" stroke="#0000ff" stroke-width="2" points="351.217,-324.7133 361.217,-321.2132 351.217,-317.7133 351.217,-324.7133"/>
</g>
<!-- 232824863&#45;&gt;1330278544 -->
<g id="edge12" class="edge">
<title>232824863&#45;&gt;1330278544</title>
<path fill="none" stroke="#ff0000" stroke-width="2" d="M413.4741,-329.5699C422.8363,-332.6906 433.6408,-336.2921 443.7164,-339.6506"/>
<polygon fill="#ff0000" stroke="#ff0000" stroke-width="2" points="442.8749,-343.0594 453.4685,-342.9013 445.0885,-336.4186 442.8749,-343.0594"/>
</g>
<!-- theta&#45;0 -->
<g id="node13" class="node">
<title>theta&#45;0</title>
<ellipse fill="none" stroke="#000000" stroke-width="2" cx="55.8614" cy="-171.2132" rx="55.7232" ry="21.4286"/>
<text text-anchor="middle" x="55.8614" y="-166.2132" font-family="Helvetica,sans-Serif" font-size="20.00" fill="#000000">theta&#45;0</text>
</g>
<!-- theta&#45;0&#45;&gt;1989972246 -->
<g id="edge13" class="edge">
<title>theta&#45;0&#45;&gt;1989972246</title>
<path fill="none" stroke="#ff0000" stroke-width="2" d="M89.6044,-188.2463C106.2428,-196.6452 126.2075,-206.7231 142.6185,-215.0072"/>
<polygon fill="#ff0000" stroke="#ff0000" stroke-width="2" points="141.314,-218.2694 151.8184,-219.6513 144.4685,-212.0204 141.314,-218.2694"/>
</g>
<!-- theta&#45;0&#45;&gt;519569038 -->
<g id="edge14" class="edge">
<title>theta&#45;0&#45;&gt;519569038</title>
<path fill="none" stroke="#ff0000" stroke-width="2" d="M111.8117,-171.2132C120.4362,-171.2132 129.1588,-171.2132 137.2497,-171.2132"/>
<polygon fill="#ff0000" stroke="#ff0000" stroke-width="2" points="137.4607,-174.7133 147.4606,-171.2132 137.4606,-167.7133 137.4607,-174.7133"/>
</g>
<!-- 1769597131 -->
<g id="node14" class="node">
<title>1769597131</title>
<ellipse fill="none" stroke="#000000" stroke-width="2" cx="174.7229" cy="-351.2132" rx="27" ry="21.4286"/>
<text text-anchor="middle" x="174.7229" y="-346.2132" font-family="Helvetica,sans-Serif" font-size="20.00" fill="#000000">*</text>
</g>
<!-- theta&#45;0&#45;&gt;1769597131 -->
<g id="edge15" class="edge">
<title>theta&#45;0&#45;&gt;1769597131</title>
<path fill="none" stroke="#ff0000" stroke-width="2" d="M94.3329,-186.6063C100.8281,-190.5801 106.9886,-195.4148 111.7229,-201.2132 146.9385,-244.3445 120.4366,-272.6755 147.7229,-321.2132 148.8109,-323.1487 150.0433,-325.0647 151.3676,-326.9363"/>
<polygon fill="#ff0000" stroke="#ff0000" stroke-width="2" points="148.6389,-329.1283 157.5996,-334.7812 154.1199,-324.7741 148.6389,-329.1283"/>
</g>
<!-- 834133664 -->
<g id="node18" class="node">
<title>834133664</title>
<ellipse fill="none" stroke="#000000" stroke-width="2" cx="174.7229" cy="-291.2132" rx="27" ry="21.4286"/>
<text text-anchor="middle" x="174.7229" y="-286.2132" font-family="Helvetica,sans-Serif" font-size="20.00" fill="#000000">*</text>
</g>
<!-- theta&#45;0&#45;&gt;834133664 -->
<g id="edge16" class="edge">
<title>theta&#45;0&#45;&gt;834133664</title>
<path fill="none" stroke="#ff0000" stroke-width="2" d="M92.6451,-187.2893C99.4423,-191.243 106.146,-195.8956 111.7229,-201.2132 134.2296,-222.6738 129.2355,-236.2066 147.7229,-261.2132 149.0428,-262.9986 150.4497,-264.8017 151.9017,-266.5907"/>
<polygon fill="#ff0000" stroke="#ff0000" stroke-width="2" points="149.2764,-268.9061 158.4275,-274.2454 154.6034,-264.3648 149.2764,-268.9061"/>
</g>
<!-- 1654589030 -->
<g id="node21" class="node">
<title>1654589030</title>
<ellipse fill="none" stroke="#000000" stroke-width="2" cx="174.7229" cy="-111.2132" rx="27" ry="21.4286"/>
<text text-anchor="middle" x="174.7229" y="-106.2132" font-family="Helvetica,sans-Serif" font-size="20.00" fill="#000000">*</text>
</g>
<!-- theta&#45;0&#45;&gt;1654589030 -->
<g id="edge17" class="edge">
<title>theta&#45;0&#45;&gt;1654589030</title>
<path fill="none" stroke="#ff0000" stroke-width="2" d="M89.6044,-154.1801C106.2428,-145.7812 126.2075,-135.7033 142.6185,-127.4192"/>
<polygon fill="#ff0000" stroke="#ff0000" stroke-width="2" points="144.4685,-130.406 151.8184,-122.7751 141.314,-124.157 144.4685,-130.406"/>
</g>
<!-- 717356484 -->
<g id="node25" class="node">
<title>717356484</title>
<ellipse fill="none" stroke="#000000" stroke-width="2" cx="174.7229" cy="-51.2132" rx="27" ry="21.4286"/>
<text text-anchor="middle" x="174.7229" y="-46.2132" font-family="Helvetica,sans-Serif" font-size="20.00" fill="#000000">*</text>
</g>
<!-- theta&#45;0&#45;&gt;717356484 -->
<g id="edge18" class="edge">
<title>theta&#45;0&#45;&gt;717356484</title>
<path fill="none" stroke="#ff0000" stroke-width="2" d="M75.7562,-151.1279C96.4189,-130.2672 128.7508,-97.6256 150.795,-75.3703"/>
<polygon fill="#ff0000" stroke="#ff0000" stroke-width="2" points="153.2941,-77.8208 157.8448,-68.253 148.3208,-72.8947 153.2941,-77.8208"/>
</g>
<!-- 100555887 -->
<g id="node15" class="node">
<title>100555887</title>
<ellipse fill="none" stroke="#000000" stroke-width="2" cx="281.5635" cy="-681.2132" rx="27" ry="21.4286"/>
<text text-anchor="middle" x="281.5635" y="-676.2132" font-family="Helvetica,sans-Serif" font-size="20.00" fill="#000000">+</text>
</g>
<!-- 1769597131&#45;&gt;100555887 -->
<g id="edge19" class="edge">
<title>1769597131&#45;&gt;100555887</title>
<path fill="none" stroke="#0000ff" stroke-width="2" d="M192.4068,-367.3587C196.0294,-371.5281 199.4311,-376.2514 201.7229,-381.2132 252.4852,-491.1186 174.2783,-548.1075 237.7229,-651.2132 240.7437,-656.1224 244.9026,-660.4227 249.4638,-664.1187"/>
<polygon fill="#0000ff" stroke="#0000ff" stroke-width="2" points="247.7642,-667.2035 257.9497,-670.1201 251.8061,-661.4883 247.7642,-667.2035"/>
</g>
<!-- 611437735 -->
<g id="node16" class="node">
<title>611437735</title>
<ellipse fill="none" stroke="#000000" stroke-width="2" cx="388.4041" cy="-621.2132" rx="27" ry="21.4286"/>
<text text-anchor="middle" x="388.4041" y="-616.2132" font-family="Helvetica,sans-Serif" font-size="20.00" fill="#000000">+</text>
</g>
<!-- 100555887&#45;&gt;611437735 -->
<g id="edge20" class="edge">
<title>100555887&#45;&gt;611437735</title>
<path fill="none" stroke="#0000ff" stroke-width="2" d="M303.7009,-668.7812C319.1724,-660.0927 340.0489,-648.3687 357.2048,-638.7343"/>
<polygon fill="#0000ff" stroke="#0000ff" stroke-width="2" points="359.2897,-641.5776 366.295,-633.6293 355.862,-635.4742 359.2897,-641.5776"/>
</g>
<!-- 97730845 -->
<g id="node17" class="node">
<title>97730845</title>
<ellipse fill="none" stroke="#000000" stroke-width="2" cx="478.4041" cy="-531.2132" rx="27" ry="21.4286"/>
<text text-anchor="middle" x="478.4041" y="-526.2132" font-family="Helvetica,sans-Serif" font-size="20.00" fill="#000000">*</text>
</g>
<!-- 611437735&#45;&gt;97730845 -->
<g id="edge21" class="edge">
<title>611437735&#45;&gt;97730845</title>
<path fill="none" stroke="#0000ff" stroke-width="2" d="M405.3324,-604.2849C419.1603,-590.4571 438.8761,-570.7412 454.344,-555.2733"/>
<polygon fill="#0000ff" stroke="#0000ff" stroke-width="2" points="456.9555,-557.6116 461.5517,-548.0656 452.0057,-552.6618 456.9555,-557.6116"/>
</g>
<!-- 97730845&#45;&gt;1389647288 -->
<g id="edge22" class="edge">
<title>97730845&#45;&gt;1389647288</title>
<path fill="none" stroke="#ff0000" stroke-width="2" d="M488.3796,-511.2623C504.3023,-479.4168 535.5359,-416.9496 553.9204,-380.1805"/>
<polygon fill="#ff0000" stroke="#ff0000" stroke-width="2" points="557.1795,-381.4887 558.5212,-370.9791 550.9185,-378.3581 557.1795,-381.4887"/>
</g>
<!-- 1348949648 -->
<g id="node19" class="node">
<title>1348949648</title>
<ellipse fill="none" stroke="#000000" stroke-width="2" cx="281.5635" cy="-561.2132" rx="27" ry="21.4286"/>
<text text-anchor="middle" x="281.5635" y="-556.2132" font-family="Helvetica,sans-Serif" font-size="20.00" fill="#000000">+</text>
</g>
<!-- 834133664&#45;&gt;1348949648 -->
<g id="edge23" class="edge">
<title>834133664&#45;&gt;1348949648</title>
<path fill="none" stroke="#0000ff" stroke-width="2" d="M192.2734,-307.4218C195.9015,-311.5886 199.3392,-316.2949 201.7229,-321.2132 243.0224,-406.4274 186.6039,-451.5014 237.7229,-531.2132 240.8345,-536.0653 245.0399,-540.3364 249.6195,-544.0209"/>
<polygon fill="#0000ff" stroke="#0000ff" stroke-width="2" points="247.9242,-547.1084 258.1116,-550.0184 251.9624,-541.3906 247.9242,-547.1084"/>
</g>
<!-- 401424608 -->
<g id="node20" class="node">
<title>401424608</title>
<ellipse fill="none" stroke="#000000" stroke-width="2" cx="388.4041" cy="-531.2132" rx="27" ry="21.4286"/>
<text text-anchor="middle" x="388.4041" y="-526.2132" font-family="Helvetica,sans-Serif" font-size="20.00" fill="#000000">+</text>
</g>
<!-- 1348949648&#45;&gt;401424608 -->
<g id="edge24" class="edge">
<title>1348949648&#45;&gt;401424608</title>
<path fill="none" stroke="#0000ff" stroke-width="2" d="M307.1545,-554.0275C320.7977,-550.1965 337.8009,-545.4222 352.7216,-541.2326"/>
<polygon fill="#0000ff" stroke="#0000ff" stroke-width="2" points="353.9702,-544.5174 362.6516,-538.4443 352.0778,-537.7781 353.9702,-544.5174"/>
</g>
<!-- 401424608&#45;&gt;97730845 -->
<g id="edge25" class="edge">
<title>401424608&#45;&gt;97730845</title>
<path fill="none" stroke="#ff0000" stroke-width="2" d="M415.4071,-531.2132C423.4318,-531.2132 432.3707,-531.2132 440.935,-531.2132"/>
<polygon fill="#ff0000" stroke="#ff0000" stroke-width="2" points="441.1092,-534.7133 451.1091,-531.2132 441.1091,-527.7133 441.1092,-534.7133"/>
</g>
<!-- 959447386 -->
<g id="node22" class="node">
<title>959447386</title>
<ellipse fill="none" stroke="#000000" stroke-width="2" cx="281.5635" cy="-201.2132" rx="27" ry="21.4286"/>
<text text-anchor="middle" x="281.5635" y="-196.2132" font-family="Helvetica,sans-Serif" font-size="20.00" fill="#000000">+</text>
</g>
<!-- 1654589030&#45;&gt;959447386 -->
<g id="edge26" class="edge">
<title>1654589030&#45;&gt;959447386</title>
<path fill="none" stroke="#0000ff" stroke-width="2" d="M191.1585,-128.2823C203.4926,-140.7329 221.0531,-157.7176 237.7229,-171.2132 242.2029,-174.8402 247.1085,-178.4843 251.9649,-181.921"/>
<polygon fill="#0000ff" stroke="#0000ff" stroke-width="2" points="250.3297,-185.0446 260.5506,-187.8346 254.3004,-179.2798 250.3297,-185.0446"/>
</g>
<!-- 581374081 -->
<g id="node23" class="node">
<title>581374081</title>
<ellipse fill="none" stroke="#000000" stroke-width="2" cx="388.4041" cy="-171.2132" rx="27" ry="21.4286"/>
<text text-anchor="middle" x="388.4041" y="-166.2132" font-family="Helvetica,sans-Serif" font-size="20.00" fill="#000000">+</text>
</g>
<!-- 959447386&#45;&gt;581374081 -->
<g id="edge27" class="edge">
<title>959447386&#45;&gt;581374081</title>
<path fill="none" stroke="#0000ff" stroke-width="2" d="M307.1545,-194.0275C320.7977,-190.1965 337.8009,-185.4222 352.7216,-181.2326"/>
<polygon fill="#0000ff" stroke="#0000ff" stroke-width="2" points="353.9702,-184.5174 362.6516,-178.4443 352.0778,-177.7781 353.9702,-184.5174"/>
</g>
<!-- 761960786 -->
<g id="node24" class="node">
<title>761960786</title>
<ellipse fill="none" stroke="#000000" stroke-width="2" cx="478.4041" cy="-171.2132" rx="27" ry="21.4286"/>
<text text-anchor="middle" x="478.4041" y="-166.2132" font-family="Helvetica,sans-Serif" font-size="20.00" fill="#000000">*</text>
</g>
<!-- 581374081&#45;&gt;761960786 -->
<g id="edge28" class="edge">
<title>581374081&#45;&gt;761960786</title>
<path fill="none" stroke="#0000ff" stroke-width="2" d="M415.4071,-171.2132C423.4318,-171.2132 432.3707,-171.2132 440.935,-171.2132"/>
<polygon fill="#0000ff" stroke="#0000ff" stroke-width="2" points="441.1092,-174.7133 451.1091,-171.2132 441.1091,-167.7133 441.1092,-174.7133"/>
</g>
<!-- 761960786&#45;&gt;654582261 -->
<g id="edge29" class="edge">
<title>761960786&#45;&gt;654582261</title>
<path fill="none" stroke="#ff0000" stroke-width="2" d="M499.1663,-185.0838C531.9892,-207.0118 595.9695,-249.755 633.3761,-274.7452"/>
<polygon fill="#ff0000" stroke="#ff0000" stroke-width="2" points="631.5711,-277.7485 641.8305,-280.3933 635.4597,-271.9279 631.5711,-277.7485"/>
</g>
<!-- 1911006827 -->
<g id="node26" class="node">
<title>1911006827</title>
<ellipse fill="none" stroke="#000000" stroke-width="2" cx="281.5635" cy="-81.2132" rx="27" ry="21.4286"/>
<text text-anchor="middle" x="281.5635" y="-76.2132" font-family="Helvetica,sans-Serif" font-size="20.00" fill="#000000">+</text>
</g>
<!-- 717356484&#45;&gt;1911006827 -->
<g id="edge30" class="edge">
<title>717356484&#45;&gt;1911006827</title>
<path fill="none" stroke="#0000ff" stroke-width="2" d="M200.3139,-58.399C213.9571,-62.2299 230.9603,-67.0042 245.8809,-71.1938"/>
<polygon fill="#0000ff" stroke="#0000ff" stroke-width="2" points="245.2372,-74.6484 255.811,-73.9821 247.1296,-67.909 245.2372,-74.6484"/>
</g>
<!-- 205125520 -->
<g id="node27" class="node">
<title>205125520</title>
<ellipse fill="none" stroke="#000000" stroke-width="2" cx="388.4041" cy="-81.2132" rx="27" ry="21.4286"/>
<text text-anchor="middle" x="388.4041" y="-76.2132" font-family="Helvetica,sans-Serif" font-size="20.00" fill="#000000">+</text>
</g>
<!-- 1911006827&#45;&gt;205125520 -->
<g id="edge31" class="edge">
<title>1911006827&#45;&gt;205125520</title>
<path fill="none" stroke="#0000ff" stroke-width="2" d="M308.8003,-81.2132C321.6096,-81.2132 337.0873,-81.2132 350.9763,-81.2132"/>
<polygon fill="#0000ff" stroke="#0000ff" stroke-width="2" points="351.217,-84.7133 361.217,-81.2132 351.217,-77.7133 351.217,-84.7133"/>
</g>
<!-- 205125520&#45;&gt;761960786 -->
<g id="edge32" class="edge">
<title>205125520&#45;&gt;761960786</title>
<path fill="none" stroke="#ff0000" stroke-width="2" d="M405.3324,-98.1415C419.1603,-111.9694 438.8761,-131.6852 454.344,-147.1531"/>
<polygon fill="#ff0000" stroke="#ff0000" stroke-width="2" points="452.0057,-149.7646 461.5517,-154.3608 456.9555,-144.8148 452.0057,-149.7646"/>
</g>
<!-- 762152757 -->
<g id="node28" class="node">
<title>762152757</title>
<ellipse fill="none" stroke="#000000" stroke-width="2" cx="174.7229" cy="-591.2132" rx="27" ry="21.4286"/>
<text text-anchor="middle" x="174.7229" y="-586.2132" font-family="Helvetica,sans-Serif" font-size="20.00" fill="#000000">*</text>
</g>
<!-- 762152757&#45;&gt;110456297 -->
<g id="edge33" class="edge">
<title>762152757&#45;&gt;110456297</title>
<path fill="none" stroke="#ff0000" stroke-width="2" d="M191.5424,-574.6015C195.2006,-570.4513 198.8351,-565.8536 201.7229,-561.2132 224.4851,-524.6361 210.7814,-504.831 237.7229,-471.2132 241.3276,-466.7152 245.7853,-462.6254 250.4646,-459.0125"/>
<polygon fill="#ff0000" stroke="#ff0000" stroke-width="2" points="252.8087,-461.6438 258.9904,-453.0393 248.7921,-455.9108 252.8087,-461.6438"/>
</g>
<!-- 12209492 -->
<g id="node29" class="node">
<title>12209492</title>
<ellipse fill="none" stroke="#000000" stroke-width="2" cx="55.8614" cy="-531.2132" rx="47.2526" ry="21.4286"/>
<text text-anchor="middle" x="55.8614" y="-526.2132" font-family="Helvetica,sans-Serif" font-size="20.00" fill="#000000">0.372</text>
</g>
<!-- 12209492&#45;&gt;762152757 -->
<g id="edge34" class="edge">
<title>12209492&#45;&gt;762152757</title>
<path fill="none" stroke="#0000ff" stroke-width="2" d="M87.4021,-547.1346C104.4628,-555.7467 125.4892,-566.3606 142.6338,-575.015"/>
<polygon fill="#0000ff" stroke="#0000ff" stroke-width="2" points="141.2051,-578.2144 151.7094,-579.5963 144.3595,-571.9654 141.2051,-578.2144"/>
</g>
<!-- 1870252780 -->
<g id="node30" class="node">
<title>1870252780</title>
<ellipse fill="none" stroke="#000000" stroke-width="2" cx="174.7229" cy="-531.2132" rx="27" ry="21.4286"/>
<text text-anchor="middle" x="174.7229" y="-526.2132" font-family="Helvetica,sans-Serif" font-size="20.00" fill="#000000">*</text>
</g>
<!-- 12209492&#45;&gt;1870252780 -->
<g id="edge35" class="edge">
<title>12209492&#45;&gt;1870252780</title>
<path fill="none" stroke="#0000ff" stroke-width="2" d="M103.5221,-531.2132C114.7601,-531.2132 126.583,-531.2132 137.2954,-531.2132"/>
<polygon fill="#0000ff" stroke="#0000ff" stroke-width="2" points="137.5748,-534.7133 147.5747,-531.2132 137.5747,-527.7133 137.5748,-534.7133"/>
</g>
<!-- 1870252780&#45;&gt;1282788025 -->
<g id="edge36" class="edge">
<title>1870252780&#45;&gt;1282788025</title>
<path fill="none" stroke="#ff0000" stroke-width="2" d="M192.0408,-514.8871C195.6784,-510.7251 199.1788,-506.0505 201.7229,-501.2132 233.6363,-440.5339 198.835,-407.6771 237.7229,-351.2132 240.9924,-346.466 245.2785,-342.2486 249.8901,-338.5853"/>
<polygon fill="#ff0000" stroke="#ff0000" stroke-width="2" points="252.2337,-341.2157 258.3929,-332.5951 248.2022,-335.4931 252.2337,-341.2157"/>
</g>
<!-- theta&#45;1 -->
<g id="node31" class="node">
<title>theta&#45;1</title>
<ellipse fill="none" stroke="#000000" stroke-width="2" cx="55.8614" cy="-591.2132" rx="55.7232" ry="21.4286"/>
<text text-anchor="middle" x="55.8614" y="-586.2132" font-family="Helvetica,sans-Serif" font-size="20.00" fill="#000000">theta&#45;1</text>
</g>
<!-- theta&#45;1&#45;&gt;762152757 -->
<g id="edge37" class="edge">
<title>theta&#45;1&#45;&gt;762152757</title>
<path fill="none" stroke="#ff0000" stroke-width="2" d="M111.8117,-591.2132C120.4362,-591.2132 129.1588,-591.2132 137.2497,-591.2132"/>
<polygon fill="#ff0000" stroke="#ff0000" stroke-width="2" points="137.4607,-594.7133 147.4606,-591.2132 137.4606,-587.7133 137.4607,-594.7133"/>
</g>
<!-- theta&#45;1&#45;&gt;1870252780 -->
<g id="edge38" class="edge">
<title>theta&#45;1&#45;&gt;1870252780</title>
<path fill="none" stroke="#ff0000" stroke-width="2" d="M89.6044,-574.1801C106.2428,-565.7812 126.2075,-555.7033 142.6185,-547.4192"/>
<polygon fill="#ff0000" stroke="#ff0000" stroke-width="2" points="144.4685,-550.406 151.8184,-542.7751 141.314,-544.157 144.4685,-550.406"/>
</g>
<!-- 1543727556 -->
<g id="node32" class="node">
<title>1543727556</title>
<ellipse fill="none" stroke="#000000" stroke-width="2" cx="174.7229" cy="-711.2132" rx="27" ry="21.4286"/>
<text text-anchor="middle" x="174.7229" y="-706.2132" font-family="Helvetica,sans-Serif" font-size="20.00" fill="#000000">*</text>
</g>
<!-- theta&#45;1&#45;&gt;1543727556 -->
<g id="edge39" class="edge">
<title>theta&#45;1&#45;&gt;1543727556</title>
<path fill="none" stroke="#ff0000" stroke-width="2" d="M75.7562,-611.2985C96.4189,-632.1592 128.7508,-664.8008 150.795,-687.0561"/>
<polygon fill="#ff0000" stroke="#ff0000" stroke-width="2" points="148.3208,-689.5317 157.8448,-694.1734 153.2941,-684.6056 148.3208,-689.5317"/>
</g>
<!-- 985934102 -->
<g id="node33" class="node">
<title>985934102</title>
<ellipse fill="none" stroke="#000000" stroke-width="2" cx="174.7229" cy="-651.2132" rx="27" ry="21.4286"/>
<text text-anchor="middle" x="174.7229" y="-646.2132" font-family="Helvetica,sans-Serif" font-size="20.00" fill="#000000">*</text>
</g>
<!-- theta&#45;1&#45;&gt;985934102 -->
<g id="edge40" class="edge">
<title>theta&#45;1&#45;&gt;985934102</title>
<path fill="none" stroke="#ff0000" stroke-width="2" d="M89.6044,-608.2463C106.2428,-616.6452 126.2075,-626.7231 142.6185,-635.0072"/>
<polygon fill="#ff0000" stroke="#ff0000" stroke-width="2" points="141.314,-638.2694 151.8184,-639.6513 144.4685,-632.0204 141.314,-638.2694"/>
</g>
<!-- 33524623 -->
<g id="node34" class="node">
<title>33524623</title>
<ellipse fill="none" stroke="#000000" stroke-width="2" cx="174.7229" cy="-471.2132" rx="27" ry="21.4286"/>
<text text-anchor="middle" x="174.7229" y="-466.2132" font-family="Helvetica,sans-Serif" font-size="20.00" fill="#000000">*</text>
</g>
<!-- theta&#45;1&#45;&gt;33524623 -->
<g id="edge41" class="edge">
<title>theta&#45;1&#45;&gt;33524623</title>
<path fill="none" stroke="#ff0000" stroke-width="2" d="M92.6451,-575.1371C99.4423,-571.1834 106.146,-566.5308 111.7229,-561.2132 134.2296,-539.7526 129.2355,-526.2198 147.7229,-501.2132 149.0428,-499.4278 150.4497,-497.6247 151.9017,-495.8357"/>
<polygon fill="#ff0000" stroke="#ff0000" stroke-width="2" points="154.6034,-498.0616 158.4275,-488.181 149.2764,-493.5203 154.6034,-498.0616"/>
</g>
<!-- 1595212853 -->
<g id="node35" class="node">
<title>1595212853</title>
<ellipse fill="none" stroke="#000000" stroke-width="2" cx="174.7229" cy="-411.2132" rx="27" ry="21.4286"/>
<text text-anchor="middle" x="174.7229" y="-406.2132" font-family="Helvetica,sans-Serif" font-size="20.00" fill="#000000">*</text>
</g>
<!-- theta&#45;1&#45;&gt;1595212853 -->
<g id="edge42" class="edge">
<title>theta&#45;1&#45;&gt;1595212853</title>
<path fill="none" stroke="#ff0000" stroke-width="2" d="M94.3329,-575.8201C100.8281,-571.8463 106.9886,-567.0116 111.7229,-561.2132 146.9385,-518.0819 120.4366,-489.7509 147.7229,-441.2132 148.8109,-439.2777 150.0433,-437.3617 151.3676,-435.4901"/>
<polygon fill="#ff0000" stroke="#ff0000" stroke-width="2" points="154.1199,-437.6523 157.5996,-427.6452 148.6389,-433.2981 154.1199,-437.6523"/>
</g>
<!-- 1543727556&#45;&gt;100555887 -->
<g id="edge43" class="edge">
<title>1543727556&#45;&gt;100555887</title>
<path fill="none" stroke="#ff0000" stroke-width="2" d="M200.3139,-704.0275C213.9571,-700.1965 230.9603,-695.4222 245.8809,-691.2326"/>
<polygon fill="#ff0000" stroke="#ff0000" stroke-width="2" points="247.1296,-694.5174 255.811,-688.4443 245.2372,-687.7781 247.1296,-694.5174"/>
</g>
<!-- 985934102&#45;&gt;1348949648 -->
<g id="edge44" class="edge">
<title>985934102&#45;&gt;1348949648</title>
<path fill="none" stroke="#ff0000" stroke-width="2" d="M191.1585,-634.1441C203.4926,-621.6935 221.0531,-604.7089 237.7229,-591.2132 242.2029,-587.5862 247.1085,-583.9421 251.9649,-580.5054"/>
<polygon fill="#ff0000" stroke="#ff0000" stroke-width="2" points="254.3004,-583.1467 260.5506,-574.5918 250.3297,-577.3818 254.3004,-583.1467"/>
</g>
<!-- 33524623&#45;&gt;959447386 -->
<g id="edge45" class="edge">
<title>33524623&#45;&gt;959447386</title>
<path fill="none" stroke="#ff0000" stroke-width="2" d="M192.2734,-455.0046C195.9015,-450.8378 199.3392,-446.1315 201.7229,-441.2132 243.0224,-355.999 186.6039,-310.925 237.7229,-231.2132 240.8345,-226.3611 245.0399,-222.09 249.6195,-218.4055"/>
<polygon fill="#ff0000" stroke="#ff0000" stroke-width="2" points="251.9624,-221.0358 258.1116,-212.408 247.9242,-215.318 251.9624,-221.0358"/>
</g>
<!-- 1595212853&#45;&gt;1911006827 -->
<g id="edge46" class="edge">
<title>1595212853&#45;&gt;1911006827</title>
<path fill="none" stroke="#ff0000" stroke-width="2" d="M192.4068,-395.0677C196.0294,-390.8983 199.4311,-386.1751 201.7229,-381.2132 252.4852,-271.3078 174.2783,-214.3189 237.7229,-111.2132 240.7437,-106.304 244.9026,-102.0037 249.4638,-98.3077"/>
<polygon fill="#ff0000" stroke="#ff0000" stroke-width="2" points="251.8061,-100.9381 257.9497,-92.3063 247.7642,-95.2229 251.8061,-100.9381"/>
</g>
<!-- 314337396 -->
<g id="node36" class="node">
<title>314337396</title>
<ellipse fill="none" stroke="#000000" stroke-width="2" cx="281.5635" cy="-381.2132" rx="43.6818" ry="21.4286"/>
<text text-anchor="middle" x="281.5635" y="-376.2132" font-family="Helvetica,sans-Serif" font-size="20.00" fill="#000000">&#45;2.99</text>
</g>
<!-- 314337396&#45;&gt;1634198 -->
<g id="edge47" class="edge">
<title>314337396&#45;&gt;1634198</title>
<path fill="none" stroke="#ff0000" stroke-width="2" d="M325.6365,-381.2132C334.124,-381.2132 342.9364,-381.2132 351.1804,-381.2132"/>
<polygon fill="#ff0000" stroke="#ff0000" stroke-width="2" points="351.2516,-384.7133 361.2516,-381.2132 351.2516,-377.7133 351.2516,-384.7133"/>
</g>
<!-- 1729199940 -->
<g id="node37" class="node">
<title>1729199940</title>
<ellipse fill="none" stroke="#000000" stroke-width="2" cx="281.5635" cy="-261.2132" rx="43.6818" ry="21.4286"/>
<text text-anchor="middle" x="281.5635" y="-256.2132" font-family="Helvetica,sans-Serif" font-size="20.00" fill="#000000">&#45;2.99</text>
</g>
<!-- 1729199940&#45;&gt;232824863 -->
<g id="edge48" class="edge">
<title>1729199940&#45;&gt;232824863</title>
<path fill="none" stroke="#ff0000" stroke-width="2" d="M310.1948,-277.2921C324.7321,-285.456 342.4164,-295.3872 357.2891,-303.7395"/>
<polygon fill="#ff0000" stroke="#ff0000" stroke-width="2" points="355.6998,-306.8611 366.1328,-308.706 359.1274,-300.7577 355.6998,-306.8611"/>
</g>
<!-- 1983747920 -->
<g id="node38" class="node">
<title>1983747920</title>
<ellipse fill="none" stroke="#000000" stroke-width="2" cx="55.8614" cy="-321.2132" rx="47.2526" ry="21.4286"/>
<text text-anchor="middle" x="55.8614" y="-316.2132" font-family="Helvetica,sans-Serif" font-size="20.00" fill="#000000">0.595</text>
</g>
<!-- 1983747920&#45;&gt;1769597131 -->
<g id="edge49" class="edge">
<title>1983747920&#45;&gt;1769597131</title>
<path fill="none" stroke="#0000ff" stroke-width="2" d="M97.4334,-331.7057C110.9564,-335.1189 125.8394,-338.8753 138.9044,-342.1728"/>
<polygon fill="#0000ff" stroke="#0000ff" stroke-width="2" points="138.3792,-345.65 148.9317,-344.7037 140.0923,-338.8628 138.3792,-345.65"/>
</g>
<!-- 1983747920&#45;&gt;834133664 -->
<g id="edge50" class="edge">
<title>1983747920&#45;&gt;834133664</title>
<path fill="none" stroke="#0000ff" stroke-width="2" d="M97.4334,-310.7207C110.9564,-307.3075 125.8394,-303.5511 138.9044,-300.2536"/>
<polygon fill="#0000ff" stroke="#0000ff" stroke-width="2" points="140.0923,-303.5636 148.9317,-297.7228 138.3792,-296.7765 140.0923,-303.5636"/>
</g>
<!-- 736709391 -->
<g id="node39" class="node">
<title>736709391</title>
<ellipse fill="none" stroke="#000000" stroke-width="2" cx="55.8614" cy="-681.2132" rx="47.2526" ry="21.4286"/>
<text text-anchor="middle" x="55.8614" y="-676.2132" font-family="Helvetica,sans-Serif" font-size="20.00" fill="#000000">0.653</text>
</g>
<!-- 736709391&#45;&gt;1543727556 -->
<g id="edge51" class="edge">
<title>736709391&#45;&gt;1543727556</title>
<path fill="none" stroke="#0000ff" stroke-width="2" d="M97.4334,-691.7057C110.9564,-695.1189 125.8394,-698.8753 138.9044,-702.1728"/>
<polygon fill="#0000ff" stroke="#0000ff" stroke-width="2" points="138.3792,-705.65 148.9317,-704.7037 140.0923,-698.8628 138.3792,-705.65"/>
</g>
<!-- 736709391&#45;&gt;985934102 -->
<g id="edge52" class="edge">
<title>736709391&#45;&gt;985934102</title>
<path fill="none" stroke="#0000ff" stroke-width="2" d="M97.4334,-670.7207C110.9564,-667.3075 125.8394,-663.5511 138.9044,-660.2536"/>
<polygon fill="#0000ff" stroke="#0000ff" stroke-width="2" points="140.0923,-663.5636 148.9317,-657.7228 138.3792,-656.7765 140.0923,-663.5636"/>
</g>
<!-- 225493257 -->
<g id="node40" class="node">
<title>225493257</title>
<ellipse fill="none" stroke="#000000" stroke-width="2" cx="281.5635" cy="-621.2132" rx="43.6818" ry="21.4286"/>
<text text-anchor="middle" x="281.5635" y="-616.2132" font-family="Helvetica,sans-Serif" font-size="20.00" fill="#000000">&#45;4.51</text>
</g>
<!-- 225493257&#45;&gt;611437735 -->
<g id="edge53" class="edge">
<title>225493257&#45;&gt;611437735</title>
<path fill="none" stroke="#ff0000" stroke-width="2" d="M325.6365,-621.2132C334.124,-621.2132 342.9364,-621.2132 351.1804,-621.2132"/>
<polygon fill="#ff0000" stroke="#ff0000" stroke-width="2" points="351.2516,-624.7133 361.2516,-621.2132 351.2516,-617.7133 351.2516,-624.7133"/>
</g>
<!-- 1205044462 -->
<g id="node41" class="node">
<title>1205044462</title>
<ellipse fill="none" stroke="#000000" stroke-width="2" cx="281.5635" cy="-501.2132" rx="43.6818" ry="21.4286"/>
<text text-anchor="middle" x="281.5635" y="-496.2132" font-family="Helvetica,sans-Serif" font-size="20.00" fill="#000000">&#45;4.51</text>
</g>
<!-- 1205044462&#45;&gt;401424608 -->
<g id="edge54" class="edge">
<title>1205044462&#45;&gt;401424608</title>
<path fill="none" stroke="#ff0000" stroke-width="2" d="M319.5323,-511.8746C330.4409,-514.9376 342.2901,-518.2648 353.0351,-521.2819"/>
<polygon fill="#ff0000" stroke="#ff0000" stroke-width="2" points="352.358,-524.727 362.9319,-524.0608 354.2504,-517.9877 352.358,-524.727"/>
</g>
<!-- 466002798 -->
<g id="node42" class="node">
<title>466002798</title>
<ellipse fill="none" stroke="#000000" stroke-width="2" cx="55.8614" cy="-81.2132" rx="47.2526" ry="21.4286"/>
<text text-anchor="middle" x="55.8614" y="-76.2132" font-family="Helvetica,sans-Serif" font-size="20.00" fill="#000000">0.356</text>
</g>
<!-- 466002798&#45;&gt;1654589030 -->
<g id="edge55" class="edge">
<title>466002798&#45;&gt;1654589030</title>
<path fill="none" stroke="#0000ff" stroke-width="2" d="M97.4334,-91.7057C110.9564,-95.1189 125.8394,-98.8753 138.9044,-102.1728"/>
<polygon fill="#0000ff" stroke="#0000ff" stroke-width="2" points="138.3792,-105.65 148.9317,-104.7037 140.0923,-98.8628 138.3792,-105.65"/>
</g>
<!-- 466002798&#45;&gt;717356484 -->
<g id="edge56" class="edge">
<title>466002798&#45;&gt;717356484</title>
<path fill="none" stroke="#0000ff" stroke-width="2" d="M97.4334,-70.7207C110.9564,-67.3075 125.8394,-63.5511 138.9044,-60.2536"/>
<polygon fill="#0000ff" stroke="#0000ff" stroke-width="2" points="140.0923,-63.5636 148.9317,-57.7228 138.3792,-56.7765 140.0923,-63.5636"/>
</g>
<!-- 947679291 -->
<g id="node43" class="node">
<title>947679291</title>
<ellipse fill="none" stroke="#000000" stroke-width="2" cx="55.8614" cy="-441.2132" rx="47.2526" ry="21.4286"/>
<text text-anchor="middle" x="55.8614" y="-436.2132" font-family="Helvetica,sans-Serif" font-size="20.00" fill="#000000">0.944</text>
</g>
<!-- 947679291&#45;&gt;33524623 -->
<g id="edge57" class="edge">
<title>947679291&#45;&gt;33524623</title>
<path fill="none" stroke="#0000ff" stroke-width="2" d="M97.4334,-451.7057C110.9564,-455.1189 125.8394,-458.8753 138.9044,-462.1728"/>
<polygon fill="#0000ff" stroke="#0000ff" stroke-width="2" points="138.3792,-465.65 148.9317,-464.7037 140.0923,-458.8628 138.3792,-465.65"/>
</g>
<!-- 947679291&#45;&gt;1595212853 -->
<g id="edge58" class="edge">
<title>947679291&#45;&gt;1595212853</title>
<path fill="none" stroke="#0000ff" stroke-width="2" d="M97.4334,-430.7207C110.9564,-427.3075 125.8394,-423.5511 138.9044,-420.2536"/>
<polygon fill="#0000ff" stroke="#0000ff" stroke-width="2" points="140.0923,-423.5636 148.9317,-417.7228 138.3792,-416.7765 140.0923,-423.5636"/>
</g>
<!-- 575335780 -->
<g id="node44" class="node">
<title>575335780</title>
<ellipse fill="none" stroke="#000000" stroke-width="2" cx="281.5635" cy="-141.2132" rx="43.6818" ry="21.4286"/>
<text text-anchor="middle" x="281.5635" y="-136.2132" font-family="Helvetica,sans-Serif" font-size="20.00" fill="#000000">&#45;3.36</text>
</g>
<!-- 575335780&#45;&gt;581374081 -->
<g id="edge59" class="edge">
<title>575335780&#45;&gt;581374081</title>
<path fill="none" stroke="#ff0000" stroke-width="2" d="M319.5323,-151.8746C330.4409,-154.9376 342.2901,-158.2648 353.0351,-161.2819"/>
<polygon fill="#ff0000" stroke="#ff0000" stroke-width="2" points="352.358,-164.727 362.9319,-164.0608 354.2504,-157.9877 352.358,-164.727"/>
</g>
<!-- 475266352 -->
<g id="node45" class="node">
<title>475266352</title>
<ellipse fill="none" stroke="#000000" stroke-width="2" cx="281.5635" cy="-21.2132" rx="43.6818" ry="21.4286"/>
<text text-anchor="middle" x="281.5635" y="-16.2132" font-family="Helvetica,sans-Serif" font-size="20.00" fill="#000000">&#45;3.36</text>
</g>
<!-- 475266352&#45;&gt;205125520 -->
<g id="edge60" class="edge">
<title>475266352&#45;&gt;205125520</title>
<path fill="none" stroke="#ff0000" stroke-width="2" d="M310.1948,-37.2921C324.7321,-45.456 342.4164,-55.3872 357.2891,-63.7395"/>
<polygon fill="#ff0000" stroke="#ff0000" stroke-width="2" points="355.6998,-66.8611 366.1328,-68.706 359.1274,-60.7577 355.6998,-66.8611"/>
</g>
<!-- 1355531311 -->
<g id="node46" class="node">
<title>1355531311</title>
<ellipse fill="none" stroke="#000000" stroke-width="2" cx="662.5168" cy="-234.2132" rx="31.2258" ry="21.4286"/>
<text text-anchor="middle" x="662.5168" y="-229.2132" font-family="Helvetica,sans-Serif" font-size="20.00" fill="#000000">0.5</text>
</g>
<!-- 1355531311&#45;&gt;1514322932 -->
<g id="edge61" class="edge">
<title>1355531311&#45;&gt;1514322932</title>
<path fill="none" stroke="#ff0000" stroke-width="2" d="M692.9233,-239.2345C721.6659,-243.9811 765.1822,-251.1674 798.1716,-256.6152"/>
<polygon fill="#ff0000" stroke="#ff0000" stroke-width="2" points="797.6071,-260.0693 808.0438,-258.2455 798.7477,-253.1629 797.6071,-260.0693"/>
</g>
<!-- 25126016{color=black, fontcolor=black, fontname=Helvetica, fontsize=20, style=setlinewidth(2)}&#45;&gt; -->
<g id="node47" class="node">
<title>25126016{color=black, fontcolor=black, fontname=Helvetica, fontsize=20, style=setlinewidth(2)}&#45;&gt;</title>
<ellipse fill="none" stroke="#000000" stroke-width="2" cx="844.1808" cy="-204.2132" rx="114.6026" ry="21.4286"/>
<text text-anchor="middle" x="844.1808" y="-199.2132" font-family="Helvetica,sans-Serif" font-size="20.00" fill="#000000">[theta&#45;0, theta&#45;1]</text>
</g>
<!-- 25126016{color=black, fontcolor=black, fontname=Helvetica, fontsize=20, style=setlinewidth(2)}&#45;&gt;&#45;&gt;25126016 -->
<g id="edge62" class="edge">
<title>25126016{color=black, fontcolor=black, fontname=Helvetica, fontsize=20, style=setlinewidth(2)}&#45;&gt;&#45;&gt;25126016</title>
<path fill="none" stroke="#000000" stroke-width="2" d="M931.7887,-217.984C950.4535,-220.9178 969.52,-223.9148 986.1063,-226.5219"/>
<polygon fill="#000000" stroke="#000000" stroke-width="2" points="985.6651,-229.9955 996.0873,-228.0908 986.7521,-223.0804 985.6651,-229.9955"/>
</g>
</g>
</svg>
