<svg class="plt-container" width="1000.0" height="500.0" xmlns="http://www.w3.org/2000/svg">
  <style type="text/css">
  .plt-container {
	font-family: "Lucida Grande", sans-serif;
}
text {
	font-size: 12px;
	fill: #3d3d3d;
}
.plt-glass-pane {
	cursor: crosshair;
}
.plt-data-tooltip text {
	font-size: 12px;
}
.plt-axis-tooltip text {
	font-size: 10px;
}
.plt-axis line {
	shape-rendering: crispedges;
}
.highlight {
	fill-opacity: 0.75;
}

.plt-plot-title {

  font-size: 16.0px;
  font-weight: bold;
}
.plt-axis .tick text {

  font-size: 10.0px;
}
.plt-axis.small-tick-font .tick text {

  font-size: 8.0px;
}
.plt-axis-title text {

  font-size: 12.0px;
}
.plt_legend .legend-title text {

  font-size: 12.0px;
  font-weight: bold;
}
.plt_legend text {

  font-size: 10.0px;
}

  </style>
  <g class="plt-plot">
    <g class="plt-plot-title" transform="translate(500.0 12.0 ) ">
      <text text-anchor="middle" dy="0.35em">
      Training Loss
      </text>
    </g>
    <g transform="translate(20.0 34.0 ) ">
      <g transform="translate(29.1 427.0 ) " class="plt-axis">
        <g class="tick" transform="translate(42.768181818181816 0.0 ) ">
          <line stroke-width="1.0" stroke="rgb(0,0,0)" stroke-opacity="1.0" x2="0.0" y2="6.0">
          </line>
          <g transform="translate(0.0 9.0 ) ">
            <text style="fill:#000000;" text-anchor="middle" dy="0.7em">
            0
            </text>
          </g>
        </g>
        <g class="tick" transform="translate(128.30454545454546 0.0 ) ">
          <line stroke-width="1.0" stroke="rgb(0,0,0)" stroke-opacity="1.0" x2="0.0" y2="6.0">
          </line>
          <g transform="translate(0.0 9.0 ) ">
            <text style="fill:#000000;" text-anchor="middle" dy="0.7em">
            10
            </text>
          </g>
        </g>
        <g class="tick" transform="translate(213.84090909090907 0.0 ) ">
          <line stroke-width="1.0" stroke="rgb(0,0,0)" stroke-opacity="1.0" x2="0.0" y2="6.0">
          </line>
          <g transform="translate(0.0 9.0 ) ">
            <text style="fill:#000000;" text-anchor="middle" dy="0.7em">
            20
            </text>
          </g>
        </g>
        <g class="tick" transform="translate(299.37727272727267 0.0 ) ">
          <line stroke-width="1.0" stroke="rgb(0,0,0)" stroke-opacity="1.0" x2="0.0" y2="6.0">
          </line>
          <g transform="translate(0.0 9.0 ) ">
            <text style="fill:#000000;" text-anchor="middle" dy="0.7em">
            30
            </text>
          </g>
        </g>
        <g class="tick" transform="translate(384.91363636363633 0.0 ) ">
          <line stroke-width="1.0" stroke="rgb(0,0,0)" stroke-opacity="1.0" x2="0.0" y2="6.0">
          </line>
          <g transform="translate(0.0 9.0 ) ">
            <text style="fill:#000000;" text-anchor="middle" dy="0.7em">
            40
            </text>
          </g>
        </g>
        <g class="tick" transform="translate(470.44999999999993 0.0 ) ">
          <line stroke-width="1.0" stroke="rgb(0,0,0)" stroke-opacity="1.0" x2="0.0" y2="6.0">
          </line>
          <g transform="translate(0.0 9.0 ) ">
            <text style="fill:#000000;" text-anchor="middle" dy="0.7em">
            50
            </text>
          </g>
        </g>
        <g class="tick" transform="translate(555.9863636363635 0.0 ) ">
          <line stroke-width="1.0" stroke="rgb(0,0,0)" stroke-opacity="1.0" x2="0.0" y2="6.0">
          </line>
          <g transform="translate(0.0 9.0 ) ">
            <text style="fill:#000000;" text-anchor="middle" dy="0.7em">
            60
            </text>
          </g>
        </g>
        <g class="tick" transform="translate(641.5227272727273 0.0 ) ">
          <line stroke-width="1.0" stroke="rgb(0,0,0)" stroke-opacity="1.0" x2="0.0" y2="6.0">
          </line>
          <g transform="translate(0.0 9.0 ) ">
            <text style="fill:#000000;" text-anchor="middle" dy="0.7em">
            70
            </text>
          </g>
        </g>
        <g class="tick" transform="translate(727.0590909090909 0.0 ) ">
          <line stroke-width="1.0" stroke="rgb(0,0,0)" stroke-opacity="1.0" x2="0.0" y2="6.0">
          </line>
          <g transform="translate(0.0 9.0 ) ">
            <text style="fill:#000000;" text-anchor="middle" dy="0.7em">
            80
            </text>
          </g>
        </g>
        <g class="tick" transform="translate(812.5954545454545 0.0 ) ">
          <line stroke-width="1.0" stroke="rgb(0,0,0)" stroke-opacity="1.0" x2="0.0" y2="6.0">
          </line>
          <g transform="translate(0.0 9.0 ) ">
            <text style="fill:#000000;" text-anchor="middle" dy="0.7em">
            90
            </text>
          </g>
        </g>
        <g class="tick" transform="translate(898.1318181818181 0.0 ) ">
          <line stroke-width="1.0" stroke="rgb(0,0,0)" stroke-opacity="1.0" x2="0.0" y2="6.0">
          </line>
          <g transform="translate(0.0 9.0 ) ">
            <text style="fill:#000000;" text-anchor="middle" dy="0.7em">
            100
            </text>
          </g>
        </g>
        <line x1="0.0" y1="0.0" x2="940.9" y2="0.0" stroke-width="1.0" stroke="rgb(0,0,0)" stroke-opacity="1.0">
        </line>
      </g>
      <g transform="translate(29.1 0.0 ) " class="plt-axis">
        <g class="tick" transform="translate(0.0 406.76286755706155 ) ">
          <line stroke-width="1.0" stroke="rgb(0,0,0)" stroke-opacity="1.0" x2="-6.0" y2="0.0">
          </line>
          <g transform="translate(-9.0 0.0 ) ">
            <text style="fill:#000000;" text-anchor="end" dy="0.35em">
            0.4
            </text>
          </g>
        </g>
        <g class="tick" transform="translate(0.0 366.2914743304269 ) ">
          <line stroke-width="1.0" stroke="rgb(0,0,0)" stroke-opacity="1.0" x2="-6.0" y2="0.0">
          </line>
          <g transform="translate(-9.0 0.0 ) ">
            <text style="fill:#000000;" text-anchor="end" dy="0.35em">
            0.6
            </text>
          </g>
        </g>
        <g class="tick" transform="translate(0.0 325.82008110379235 ) ">
          <line stroke-width="1.0" stroke="rgb(0,0,0)" stroke-opacity="1.0" x2="-6.0" y2="0.0">
          </line>
          <g transform="translate(-9.0 0.0 ) ">
            <text style="fill:#000000;" text-anchor="end" dy="0.35em">
            0.8
            </text>
          </g>
        </g>
        <g class="tick" transform="translate(0.0 285.3486878771578 ) ">
          <line stroke-width="1.0" stroke="rgb(0,0,0)" stroke-opacity="1.0" x2="-6.0" y2="0.0">
          </line>
          <g transform="translate(-9.0 0.0 ) ">
            <text style="fill:#000000;" text-anchor="end" dy="0.35em">
            1.0
            </text>
          </g>
        </g>
        <g class="tick" transform="translate(0.0 244.8772946505232 ) ">
          <line stroke-width="1.0" stroke="rgb(0,0,0)" stroke-opacity="1.0" x2="-6.0" y2="0.0">
          </line>
          <g transform="translate(-9.0 0.0 ) ">
            <text style="fill:#000000;" text-anchor="end" dy="0.35em">
            1.2
            </text>
          </g>
        </g>
        <g class="tick" transform="translate(0.0 204.40590142388862 ) ">
          <line stroke-width="1.0" stroke="rgb(0,0,0)" stroke-opacity="1.0" x2="-6.0" y2="0.0">
          </line>
          <g transform="translate(-9.0 0.0 ) ">
            <text style="fill:#000000;" text-anchor="end" dy="0.35em">
            1.4
            </text>
          </g>
        </g>
        <g class="tick" transform="translate(0.0 163.934508197254 ) ">
          <line stroke-width="1.0" stroke="rgb(0,0,0)" stroke-opacity="1.0" x2="-6.0" y2="0.0">
          </line>
          <g transform="translate(-9.0 0.0 ) ">
            <text style="fill:#000000;" text-anchor="end" dy="0.35em">
            1.6
            </text>
          </g>
        </g>
        <g class="tick" transform="translate(0.0 123.46311497061942 ) ">
          <line stroke-width="1.0" stroke="rgb(0,0,0)" stroke-opacity="1.0" x2="-6.0" y2="0.0">
          </line>
          <g transform="translate(-9.0 0.0 ) ">
            <text style="fill:#000000;" text-anchor="end" dy="0.35em">
            1.8
            </text>
          </g>
        </g>
        <g class="tick" transform="translate(0.0 82.99172174398484 ) ">
          <line stroke-width="1.0" stroke="rgb(0,0,0)" stroke-opacity="1.0" x2="-6.0" y2="0.0">
          </line>
          <g transform="translate(-9.0 0.0 ) ">
            <text style="fill:#000000;" text-anchor="end" dy="0.35em">
            2.0
            </text>
          </g>
        </g>
        <g class="tick" transform="translate(0.0 42.520328517350265 ) ">
          <line stroke-width="1.0" stroke="rgb(0,0,0)" stroke-opacity="1.0" x2="-6.0" y2="0.0">
          </line>
          <g transform="translate(-9.0 0.0 ) ">
            <text style="fill:#000000;" text-anchor="end" dy="0.35em">
            2.2
            </text>
          </g>
        </g>
        <g class="tick" transform="translate(0.0 2.048935290715633 ) ">
          <line stroke-width="1.0" stroke="rgb(0,0,0)" stroke-opacity="1.0" x2="-6.0" y2="0.0">
          </line>
          <g transform="translate(-9.0 0.0 ) ">
            <text style="fill:#000000;" text-anchor="end" dy="0.35em">
            2.4
            </text>
          </g>
        </g>
        <line x1="0.0" y1="0.0" x2="0.0" y2="427.0" stroke-width="1.0" stroke="rgb(0,0,0)" stroke-opacity="1.0">
        </line>
      </g>
      <g transform="translate(29.1 0.0 ) " clip-path="url(#lplt-clip22)" clip-bounds-jfx="[rect (0.0, 0.0), (940.9, 427.0)]">
        <defs>
          <clipPath id="lplt-clip22">
            <rect x="0.0" y="0.0" width="940.9" height="427.0">
            </rect>
          </clipPath>
        </defs>
        <g>
          <path d="M42.768181818181816 19.409090909090878 L42.768181818181816 19.409090909090878 L51.32181818181818 199.13851386070996 L59.875454545454545 220.67559977973025 L68.4290909090909 330.94821338015237 L76.98272727272726 151.63871262995832 L85.53636363636363 312.77610225317665 L94.08999999999999 130.1149438368767 L102.64363636363635 230.04241485857182 L111.19727272727272 318.74484261221323 L119.75090909090908 96.5646682491552 L128.30454545454546 280.4917513005985 L136.8581818181818 217.0766909178398 L145.41181818181815 135.803639044075 L153.96545454545452 82.59332781732138 L162.5190909090909 171.9493322361052 L171.07272727272726 326.9464641814025 L179.62636363636364 320.662089382624 L188.18 241.98006594834186 L196.73363636363632 378.25447057887226 L205.2872727272727 234.3617592659224 L213.84090909090907 223.54142700316578 L222.39454545454544 221.04069835377112 L230.9481818181818 337.014767158023 L239.50181818181818 107.09340811947044 L248.0554545454545 164.80985310442338 L256.60909090909087 273.43794750221525 L265.16272727272724 192.88248977733303 L273.7163636363636 407.59090909090907 L282.27 265.9265620714036 L290.82363636363635 256.0869710874034 L299.37727272727267 242.80724509219823 L307.93090909090904 230.0295867327942 L316.4845454545454 193.42030420345833 L325.0381818181818 290.2236096022418 L333.59181818181816 327.1653242170583 L342.1454545454545 297.9838950668352 L350.69909090909084 363.67174881258825 L359.2527272727272 282.1940128245979 L367.8063636363636 282.78999589059515 L376.35999999999996 275.5942838835885 L384.91363636363633 262.9892651513526 L393.4672727272727 269.8621221802473 L402.020909090909 256.9050829721703 L410.5745454545454 232.69260787362285 L419.12818181818176 233.59487414321313 L427.68181818181813 196.4491358935427 L436.2354545454545 283.2681593621261 L444.7890909090909 300.0938456935995 L453.3427272727272 265.797665319486 L461.89636363636356 292.49709731697726 L470.44999999999993 277.4485768683212 L479.0036363636363 295.1813235422027 L487.5572727272727 340.6400559878894 L496.11090909090905 360.09738775226344 L504.6645454545454 302.9457166365855 L513.2181818181817 283.1161460046552 L521.7718181818182 328.0129507975717 L530.3254545454545 312.74379107659854 L538.8790909090909 361.8073053468318 L547.4327272727272 356.95126722204054 L555.9863636363635 282.87282578145346 L564.54 276.0678908728139 L573.0936363636363 271.15625119446014 L581.6472727272727 291.55578500290505 L590.200909090909 311.3485089559209 L598.7545454545453 287.4902582146737 L607.3081818181818 321.72336178779346 L615.8618181818181 291.2435538875027 L624.4154545454545 391.8578114185908 L632.9690909090908 322.60117360098684 L641.5227272727273 290.42992297865607 L650.0763636363636 261.6413028070816 L658.6299999999999 340.7858665522484 L667.1836363636363 311.1150194047509 L675.7372727272726 304.3780669788054 L684.290909090909 327.47344369684265 L692.8445454545454 259.1303646501562 L701.3981818181817 244.28364069380916 L709.9518181818181 330.215325995801 L718.5054545454544 315.07820651582574 L727.0590909090909 345.0769784804004 L735.6127272727272 306.48914071979095 L744.1663636363636 296.9245596008976 L752.7199999999999 328.57409748369287 L761.2736363636362 281.0891811545274 L769.8272727272727 376.08553224743616 L778.380909090909 280.94829554732735 L786.9345454545454 316.23999740117745 L795.4881818181817 356.25498519210953 L804.0418181818181 334.42897342927483 L812.5954545454545 303.44164306186076 L821.1490909090908 321.892441852561 L829.7027272727272 289.0008378033285 L838.2563636363635 330.67907402862636 L846.81 361.0505511450971 L855.3636363636363 260.4486634913757 L863.9172727272726 273.0430625073834 L872.470909090909 308.75260842178307 L881.0245454545453 383.23694782491344 L889.5781818181817 321.4647603551822 L898.1318181818181 330.66354536966924 " fill="none" stroke-width="2.0" stroke="rgb(255,0,0)" stroke-opacity="1.0">
          </path>
        </g>
      </g>
    </g>
    <g class="plt-axis">
      <g transform="translate(4.0 247.5 ) rotate(-90.0 ) " class="plt-axis-title">
        <text text-anchor="middle" dy="0.7em">
        Average Loss
        </text>
      </g>
    </g>
    <g class="plt-axis">
      <g transform="translate(519.55 496.0 ) " class="plt-axis-title">
        <text text-anchor="middle">
        Epochs
        </text>
      </g>
    </g>
  </g>
  <g>
    <g>
    </g>
  </g>
  <rect class="plt-glass-pane" opacity="0.0" width="1000.0" height="500.0">
  </rect>
</svg>