<?xml version='1.0' encoding='utf-8'?>
<svg xmlns:xlink="http://www.w3.org/1999/xlink" xmlns="http://www.w3.org/2000/svg" version="1.1" baseProfile="full" width="220" height="165">
  <title>VFPt_charges_plus_minus_thumb</title>
  <desc>VFPt_charges_plus_minus_thumb
created with VectorFieldPlot 1.1
http://commons.wikimedia.org/wiki/User:Geek3/VectorFieldPlot

about: http://commons.wikimedia.org/wiki/File:VFPt_charges_plus_minus_thumb.svg
rights: GNU Free Documentation license,
        Creative Commons Attribution ShareAlike license
  </desc>
  <defs>
    <path id="arrow1" stroke="none" fill="#ffffff" transform="scale(0.0333333333333)" d="M 0.3,0 L -2.2,2.25 L 3.8,0 L -2.2,-2.25 L 0.3,0 Z"/>
  </defs>
  <rect id="background" x="0" y="0" width="220" height="165" fill="#000000"/>
  <g id="image" transform="translate(110.0,82.5) scale(30.0,-30.0)">
    <g id="fieldlines" fill="none" stroke="#ffffff" stroke-width="0.0333333333333" stroke-linejoin="round" stroke-linecap="round">
      <g id="fieldline1">
        <path d="M -1.0000,0.0000 L -0.7255,0.0539 L -0.5768,0.0812 L -0.4615,0.1002 L -0.3626,0.1143 L -0.2740,0.1248 L -0.1918,0.1322 L -0.1137,0.1370 L -0.0376,0.1393 L 0.0376,0.1393 L 0.1136,0.1370 L 0.1918,0.1322 L 0.2740,0.1248 L 0.3626,0.1143 L 0.4615,0.1002 L 0.5768,0.0812 L 0.7255,0.0539 L 1.0000,0.0000"/>
        <g id="arrows1">
          <use xlink:href="#arrow1" transform="translate(-0.0000,0.1386) rotate(-1.22) scale(1.4)"/>
        </g>
      </g>
      <g id="fieldline2">
        <path d="M -1.0000,0.0000 L -0.8252,0.1159 L -0.7248,0.1800 L -0.6443,0.2288 L -0.5739,0.2688 L -0.5102,0.3024 L -0.4510,0.3309 L -0.3951,0.3551 L -0.3417,0.3757 L -0.2901,0.3930 L -0.2399,0.4073 L -0.1908,0.4188 L -0.1424,0.4276 L -0.0947,0.4338 L -0.0472,0.4375 L -0.0000,0.4388 L 0.0472,0.4375 L 0.0946,0.4338 L 0.1424,0.4276 L 0.1908,0.4188 L 0.2399,0.4073 L 0.2901,0.3930 L 0.3417,0.3757 L 0.3951,0.3551 L 0.4510,0.3309 L 0.5101,0.3024 L 0.5739,0.2688 L 0.6443,0.2288 L 0.7248,0.1800 L 0.8252,0.1159 L 1.0000,0.0000"/>
        <g id="arrows2">
          <use xlink:href="#arrow1" transform="translate(-0.0001,0.4362) rotate(-3.13) scale(1.4)"/>
        </g>
      </g>
      <g id="fieldline3">
        <path d="M -1.0000,0.0000 L -0.8945,0.1566 L -0.8302,0.2482 L -0.7764,0.3211 L -0.7274,0.3835 L -0.6814,0.4383 L -0.6374,0.4872 L -0.5946,0.5311 L -0.5526,0.5707 L -0.5111,0.6066 L -0.4700,0.6390 L -0.4290,0.6681 L -0.3882,0.6942 L -0.3474,0.7174 L -0.3066,0.7378 L -0.2659,0.7555 L -0.2250,0.7706 L -0.1842,0.7831 L -0.1433,0.7930 L -0.1024,0.8004 L -0.0614,0.8053 L -0.0205,0.8078 L 0.0205,0.8078 L 0.0615,0.8053 L 0.1024,0.8004 L 0.1433,0.7930 L 0.1842,0.7831 L 0.2251,0.7706 L 0.2659,0.7555 L 0.3067,0.7378 L 0.3474,0.7174 L 0.3882,0.6942 L 0.4290,0.6681 L 0.4700,0.6389 L 0.5111,0.6066 L 0.5526,0.5707 L 0.5946,0.5310 L 0.6374,0.4871 L 0.6814,0.4383 L 0.7274,0.3835 L 0.7764,0.3211 L 0.8302,0.2482 L 0.8945,0.1566 L 1.0000,0.0000"/>
        <g id="arrows3">
          <use xlink:href="#arrow1" transform="translate(-0.2924,0.7410) rotate(20.28) scale(1.4)"/>
          <use xlink:href="#arrow1" transform="translate(0.2922,0.7415) rotate(-27.46) scale(1.4)"/>
        </g>
      </g>
      <g id="fieldline4">
        <path d="M -1.0000,0.0000 L -0.9629,0.1824 L -0.9378,0.2948 L -0.9145,0.3882 L -0.8915,0.4705 L -0.8681,0.5453 L -0.8438,0.6144 L -0.8186,0.6787 L -0.7923,0.7390 L -0.7648,0.7957 L -0.7362,0.8490 L -0.7063,0.8993 L -0.6753,0.9465 L -0.6432,0.9909 L -0.6100,1.0326 L -0.5757,1.0715 L -0.5404,1.1077 L -0.5042,1.1413 L -0.4671,1.1722 L -0.4292,1.2005 L -0.3906,1.2262 L -0.3513,1.2493 L -0.3114,1.2699 L -0.2709,1.2878 L -0.2300,1.3032 L -0.1887,1.3160 L -0.1471,1.3262 L -0.1053,1.3339 L -0.0632,1.3390 L -0.0211,1.3416 L 0.0211,1.3416 L 0.0632,1.3390 L 0.1052,1.3339 L 0.1471,1.3262 L 0.1887,1.3160 L 0.2300,1.3032 L 0.2709,1.2878 L 0.3114,1.2699 L 0.3513,1.2493 L 0.3906,1.2262 L 0.4292,1.2005 L 0.4671,1.1722 L 0.5042,1.1413 L 0.5404,1.1077 L 0.5757,1.0715 L 0.6100,1.0326 L 0.6432,0.9909 L 0.6753,0.9465 L 0.7063,0.8993 L 0.7362,0.8490 L 0.7648,0.7957 L 0.7923,0.7390 L 0.8186,0.6787 L 0.8438,0.6144 L 0.8681,0.5453 L 0.8915,0.4705 L 0.9145,0.3882 L 0.9378,0.2948 L 0.9629,0.1824 L 1.0000,0.0000"/>
        <g id="arrows4">
          <use xlink:href="#arrow1" transform="translate(-0.6553,0.9715) rotate(51.27) scale(1.4)"/>
          <use xlink:href="#arrow1" transform="translate(0.6552,0.9716) rotate(-56.26) scale(1.4)"/>
        </g>
      </g>
      <g id="fieldline5">
        <path d="M -1.0000,0.0000 L -1.0364,0.1871 L -1.0577,0.3080 L -1.0737,0.4124 L -1.0858,0.5075 L -1.0948,0.5967 L -1.1008,0.6816 L -1.1041,0.7631 L -1.1048,0.8418 L -1.1031,0.9181 L -1.0989,0.9922 L -1.0923,1.0643 L -1.0834,1.1345 L -1.0722,1.2028 L -1.0589,1.2693 L -1.0433,1.3340 L -1.0256,1.3968 L -1.0059,1.4577 L -0.9841,1.5168 L -0.9604,1.5740 L -0.9349,1.6291 L -0.9075,1.6823 L -0.8783,1.7335 L -0.8475,1.7825 L -0.8150,1.8294 L -0.7811,1.8741 L -0.7457,1.9166 L -0.7089,1.9569 L -0.6708,1.9949 L -0.6315,2.0306 L -0.5911,2.0639 L -0.5496,2.0948 L -0.5072,2.1234 L -0.4638,2.1495 L -0.4197,2.1732 L -0.3749,2.1944 L -0.3294,2.2132 L -0.2834,2.2295 L -0.2369,2.2432 L -0.1900,2.2545 L -0.1428,2.2633 L -0.0953,2.2696 L -0.0477,2.2734 L -0.0000,2.2746 L 0.0477,2.2734 L 0.0953,2.2696 L 0.1428,2.2633 L 0.1899,2.2545 L 0.2369,2.2432 L 0.2833,2.2295 L 0.3294,2.2132 L 0.3749,2.1944 L 0.4197,2.1732 L 0.4638,2.1495 L 0.5071,2.1234 L 0.5496,2.0948 L 0.5911,2.0639 L 0.6315,2.0306 L 0.6708,1.9949 L 0.7089,1.9569 L 0.7457,1.9166 L 0.7811,1.8741 L 0.8150,1.8294 L 0.8475,1.7825 L 0.8783,1.7334 L 0.9075,1.6823 L 0.9349,1.6291 L 0.9604,1.5740 L 0.9841,1.5168 L 1.0059,1.4577 L 1.0256,1.3968 L 1.0433,1.3340 L 1.0589,1.2693 L 1.0722,1.2028 L 1.0834,1.1345 L 1.0923,1.0643 L 1.0989,0.9922 L 1.1031,0.9181 L 1.1048,0.8418 L 1.1041,0.7631 L 1.1008,0.6816 L 1.0948,0.5967 L 1.0858,0.5075 L 1.0737,0.4124 L 1.0577,0.3080 L 1.0364,0.1871 L 1.0000,0.0000"/>
        <g id="arrows5">
          <use xlink:href="#arrow1" transform="translate(-1.0944,1.0315) rotate(83.21) scale(1.4)"/>
          <use xlink:href="#arrow1" transform="translate(-0.0001,2.2720) rotate(-3.16) scale(1.4)"/>
          <use xlink:href="#arrow1" transform="translate(1.0945,1.0316) rotate(-86.12) scale(1.4)"/>
        </g>
      </g>
      <g id="fieldline6">
        <path d="M -1.0000,0.0000 L -1.1144,0.1728 L -1.1894,0.2899 L -1.2536,0.3947 L -1.3111,0.4932 L -1.3638,0.5882 L -1.4124,0.6811 L -1.4576,0.7727 L -1.4995,0.8634 L -1.5384,0.9535 L -1.5745,1.0433 L -1.6078,1.1328 L -1.6383,1.2221 L -1.6661,1.3113 L -1.6913,1.4003 L -1.7138,1.4891 L -1.7337,1.5778 L -1.7510,1.6662 L -1.7657,1.7544 L -1.7778,1.8422 L -1.7873,1.9297 L -1.7942,2.0166 L -1.7986,2.1031 L -1.8005,2.1889 L -1.7998,2.2741 L -1.7967,2.3585 L -1.7910,2.4421 L -1.7830,2.5248 L -1.7725,2.6065 L -1.7596,2.6872 L -1.7444,2.7667 M 1.7444,2.7667 L 1.7596,2.6872 L 1.7725,2.6065 L 1.7830,2.5248 L 1.7910,2.4421 L 1.7967,2.3585 L 1.7998,2.2741 L 1.8005,2.1889 L 1.7986,2.1031 L 1.7942,2.0166 L 1.7873,1.9297 L 1.7778,1.8422 L 1.7657,1.7544 L 1.7510,1.6662 L 1.7337,1.5778 L 1.7138,1.4891 L 1.6913,1.4003 L 1.6661,1.3113 L 1.6383,1.2221 L 1.6078,1.1328 L 1.5745,1.0433 L 1.5384,0.9535 L 1.4995,0.8634 L 1.4576,0.7727 L 1.4124,0.6812 L 1.3638,0.5882 L 1.3111,0.4932 L 1.2536,0.3947 L 1.1894,0.2899 L 1.1144,0.1728 L 1.0000,0.0000"/>
        <g id="arrows6">
          <use xlink:href="#arrow1" transform="translate(-1.5155,0.9014) rotate(112.68) scale(1.4)"/>
          <use xlink:href="#arrow1" transform="translate(-1.7988,2.1340) rotate(90.46) scale(1.4)"/>
          <use xlink:href="#arrow1" transform="translate(1.7986,2.1341) rotate(-92.42) scale(1.4)"/>
          <use xlink:href="#arrow1" transform="translate(1.5154,0.9014) rotate(-114.17) scale(1.4)"/>
        </g>
      </g>
      <g id="fieldline7">
        <path d="M -1.0000,0.0000 L -1.2019,0.1359 L -1.3428,0.2334 L -1.4685,0.3233 L -1.5863,0.4106 L -1.6992,0.4973 L -1.8084,0.5842 L -1.9148,0.6720 L -2.0187,0.7611 L -2.1206,0.8515 L -2.2204,0.9436 L -2.3185,1.0373 L -2.4147,1.1327 L -2.5092,1.2299 L -2.6019,1.3289 L -2.6930,1.4296 L -2.7822,1.5321 L -2.8697,1.6363 L -2.9554,1.7423 L -3.0393,1.8500 L -3.1213,1.9592 L -3.2014,2.0701 L -3.2796,2.1826 L -3.3558,2.2966 L -3.4300,2.4120 L -3.5022,2.5289 L -3.5723,2.6471 L -3.6403,2.7667 M 3.6403,2.7667 L 3.5723,2.6471 L 3.5022,2.5289 L 3.4300,2.4120 L 3.3558,2.2966 L 3.2796,2.1826 L 3.2014,2.0701 L 3.1213,1.9592 L 3.0393,1.8499 L 2.9554,1.7423 L 2.8697,1.6363 L 2.7822,1.5321 L 2.6930,1.4296 L 2.6019,1.3289 L 2.5092,1.2299 L 2.4147,1.1327 L 2.3185,1.0373 L 2.2204,0.9436 L 2.1206,0.8515 L 2.0187,0.7610 L 1.9148,0.6720 L 1.8084,0.5842 L 1.6992,0.4973 L 1.5863,0.4106 L 1.4684,0.3233 L 1.3428,0.2334 L 1.2019,0.1359 L 1.0000,0.0000"/>
        <g id="arrows7">
          <use xlink:href="#arrow1" transform="translate(-1.8409,0.6112) rotate(140.22) scale(1.4)"/>
          <use xlink:href="#arrow1" transform="translate(-3.1322,1.9747) rotate(125.83) scale(1.4)"/>
          <use xlink:href="#arrow1" transform="translate(3.1321,1.9748) rotate(-126.56) scale(1.4)"/>
          <use xlink:href="#arrow1" transform="translate(1.8408,0.6113) rotate(-141.02) scale(1.4)"/>
        </g>
      </g>
      <g id="fieldline8">
        <path d="M -1.0000,0.0000 L -1.3405,0.0685 L -1.5945,0.1217 L -1.8317,0.1736 L -2.0629,0.2264 L -2.2920,0.2809 L -2.5208,0.3377 L -2.7503,0.3970 L -2.9810,0.4589 L -3.2134,0.5234 L -3.4474,0.5908 L -3.6833,0.6610 M 3.6833,0.6610 L 3.4474,0.5908 L 3.2134,0.5234 L 2.9810,0.4589 L 2.7503,0.3970 L 2.5208,0.3377 L 2.2920,0.2809 L 2.0629,0.2264 L 1.8317,0.1736 L 1.5945,0.1217 L 1.3404,0.0685 L 1.0000,0.0000"/>
        <g id="arrows8">
          <use xlink:href="#arrow1" transform="translate(-2.0172,0.2161) rotate(166.86) scale(1.4)"/>
          <use xlink:href="#arrow1" transform="translate(-3.1312,0.5007) rotate(164.31) scale(1.4)"/>
          <use xlink:href="#arrow1" transform="translate(3.1312,0.5006) rotate(-164.46) scale(1.4)"/>
          <use xlink:href="#arrow1" transform="translate(2.0173,0.2159) rotate(-167.13) scale(1.4)"/>
        </g>
      </g>
      <g id="fieldline9">
        <path d="M -1.0000,0.0000 L -1.3405,-0.0685 L -1.5945,-0.1217 L -1.8317,-0.1736 L -2.0629,-0.2264 L -2.2920,-0.2809 L -2.5208,-0.3377 L -2.7503,-0.3970 L -2.9810,-0.4589 L -3.2134,-0.5234 L -3.4474,-0.5908 L -3.6833,-0.6610 M 3.6833,-0.6610 L 3.4474,-0.5908 L 3.2134,-0.5234 L 2.9810,-0.4589 L 2.7503,-0.3970 L 2.5208,-0.3377 L 2.2920,-0.2809 L 2.0629,-0.2264 L 1.8317,-0.1736 L 1.5945,-0.1217 L 1.3404,-0.0685 L 1.0000,0.0000"/>
        <g id="arrows9">
          <use xlink:href="#arrow1" transform="translate(-2.0172,-0.2161) rotate(-166.86) scale(1.4)"/>
          <use xlink:href="#arrow1" transform="translate(-3.1312,-0.5007) rotate(-164.31) scale(1.4)"/>
          <use xlink:href="#arrow1" transform="translate(3.1312,-0.5006) rotate(164.46) scale(1.4)"/>
          <use xlink:href="#arrow1" transform="translate(2.0173,-0.2159) rotate(167.13) scale(1.4)"/>
        </g>
      </g>
      <g id="fieldline10">
        <path d="M -1.0000,0.0000 L -1.2019,-0.1359 L -1.3428,-0.2334 L -1.4685,-0.3233 L -1.5863,-0.4106 L -1.6992,-0.4973 L -1.8084,-0.5842 L -1.9148,-0.6720 L -2.0187,-0.7611 L -2.1206,-0.8515 L -2.2204,-0.9436 L -2.3185,-1.0373 L -2.4147,-1.1327 L -2.5092,-1.2299 L -2.6019,-1.3289 L -2.6930,-1.4296 L -2.7822,-1.5321 L -2.8697,-1.6363 L -2.9554,-1.7423 L -3.0393,-1.8500 L -3.1213,-1.9592 L -3.2014,-2.0701 L -3.2796,-2.1826 L -3.3558,-2.2966 L -3.4300,-2.4120 L -3.5022,-2.5289 L -3.5723,-2.6471 L -3.6403,-2.7667 M 3.6403,-2.7667 L 3.5723,-2.6471 L 3.5022,-2.5289 L 3.4300,-2.4120 L 3.3558,-2.2966 L 3.2796,-2.1826 L 3.2014,-2.0701 L 3.1213,-1.9592 L 3.0393,-1.8499 L 2.9554,-1.7423 L 2.8697,-1.6363 L 2.7822,-1.5321 L 2.6930,-1.4296 L 2.6019,-1.3289 L 2.5092,-1.2299 L 2.4147,-1.1327 L 2.3185,-1.0373 L 2.2204,-0.9436 L 2.1206,-0.8515 L 2.0187,-0.7610 L 1.9148,-0.6720 L 1.8084,-0.5842 L 1.6992,-0.4973 L 1.5863,-0.4106 L 1.4684,-0.3233 L 1.3428,-0.2334 L 1.2019,-0.1359 L 1.0000,0.0000"/>
        <g id="arrows10">
          <use xlink:href="#arrow1" transform="translate(-1.8409,-0.6112) rotate(-140.22) scale(1.4)"/>
          <use xlink:href="#arrow1" transform="translate(-3.1322,-1.9747) rotate(-125.83) scale(1.4)"/>
          <use xlink:href="#arrow1" transform="translate(3.1321,-1.9748) rotate(126.56) scale(1.4)"/>
          <use xlink:href="#arrow1" transform="translate(1.8408,-0.6113) rotate(141.02) scale(1.4)"/>
        </g>
      </g>
      <g id="fieldline11">
        <path d="M -1.0000,0.0000 L -1.1144,-0.1728 L -1.1894,-0.2899 L -1.2536,-0.3947 L -1.3111,-0.4932 L -1.3638,-0.5882 L -1.4124,-0.6811 L -1.4576,-0.7727 L -1.4995,-0.8634 L -1.5384,-0.9535 L -1.5745,-1.0433 L -1.6078,-1.1328 L -1.6383,-1.2221 L -1.6661,-1.3113 L -1.6913,-1.4003 L -1.7138,-1.4891 L -1.7337,-1.5778 L -1.7510,-1.6662 L -1.7657,-1.7544 L -1.7778,-1.8422 L -1.7873,-1.9297 L -1.7942,-2.0166 L -1.7986,-2.1031 L -1.8005,-2.1889 L -1.7998,-2.2741 L -1.7967,-2.3585 L -1.7910,-2.4421 L -1.7830,-2.5248 L -1.7725,-2.6065 L -1.7596,-2.6872 L -1.7444,-2.7667 M 1.7444,-2.7667 L 1.7596,-2.6872 L 1.7725,-2.6065 L 1.7830,-2.5248 L 1.7910,-2.4421 L 1.7967,-2.3585 L 1.7998,-2.2741 L 1.8005,-2.1889 L 1.7986,-2.1031 L 1.7942,-2.0166 L 1.7873,-1.9297 L 1.7778,-1.8422 L 1.7657,-1.7544 L 1.7510,-1.6662 L 1.7337,-1.5778 L 1.7138,-1.4891 L 1.6913,-1.4003 L 1.6661,-1.3113 L 1.6383,-1.2221 L 1.6078,-1.1328 L 1.5745,-1.0433 L 1.5384,-0.9535 L 1.4995,-0.8634 L 1.4576,-0.7727 L 1.4124,-0.6812 L 1.3638,-0.5882 L 1.3111,-0.4932 L 1.2536,-0.3947 L 1.1894,-0.2899 L 1.1144,-0.1728 L 1.0000,0.0000"/>
        <g id="arrows11">
          <use xlink:href="#arrow1" transform="translate(-1.5155,-0.9014) rotate(-112.68) scale(1.4)"/>
          <use xlink:href="#arrow1" transform="translate(-1.7988,-2.1340) rotate(-90.46) scale(1.4)"/>
          <use xlink:href="#arrow1" transform="translate(1.7986,-2.1341) rotate(92.42) scale(1.4)"/>
          <use xlink:href="#arrow1" transform="translate(1.5154,-0.9014) rotate(114.17) scale(1.4)"/>
        </g>
      </g>
      <g id="fieldline12">
        <path d="M -1.0000,0.0000 L -1.0364,-0.1871 L -1.0577,-0.3080 L -1.0737,-0.4124 L -1.0858,-0.5075 L -1.0948,-0.5967 L -1.1008,-0.6816 L -1.1041,-0.7631 L -1.1048,-0.8418 L -1.1031,-0.9181 L -1.0989,-0.9922 L -1.0923,-1.0643 L -1.0834,-1.1345 L -1.0722,-1.2028 L -1.0589,-1.2693 L -1.0433,-1.3340 L -1.0256,-1.3968 L -1.0059,-1.4577 L -0.9841,-1.5168 L -0.9604,-1.5740 L -0.9349,-1.6291 L -0.9075,-1.6823 L -0.8783,-1.7335 L -0.8475,-1.7825 L -0.8150,-1.8294 L -0.7811,-1.8741 L -0.7457,-1.9166 L -0.7089,-1.9569 L -0.6708,-1.9949 L -0.6315,-2.0306 L -0.5911,-2.0639 L -0.5496,-2.0948 L -0.5072,-2.1234 L -0.4638,-2.1495 L -0.4197,-2.1732 L -0.3749,-2.1944 L -0.3294,-2.2132 L -0.2834,-2.2295 L -0.2369,-2.2432 L -0.1900,-2.2545 L -0.1428,-2.2633 L -0.0953,-2.2696 L -0.0477,-2.2734 L -0.0000,-2.2746 L 0.0477,-2.2734 L 0.0953,-2.2696 L 0.1428,-2.2633 L 0.1899,-2.2545 L 0.2369,-2.2432 L 0.2833,-2.2295 L 0.3294,-2.2132 L 0.3749,-2.1944 L 0.4197,-2.1732 L 0.4638,-2.1495 L 0.5071,-2.1234 L 0.5496,-2.0948 L 0.5911,-2.0639 L 0.6315,-2.0306 L 0.6708,-1.9949 L 0.7089,-1.9569 L 0.7457,-1.9166 L 0.7811,-1.8741 L 0.8150,-1.8294 L 0.8475,-1.7825 L 0.8783,-1.7334 L 0.9075,-1.6823 L 0.9349,-1.6291 L 0.9604,-1.5740 L 0.9841,-1.5168 L 1.0059,-1.4577 L 1.0256,-1.3968 L 1.0433,-1.3340 L 1.0589,-1.2693 L 1.0722,-1.2028 L 1.0834,-1.1345 L 1.0923,-1.0643 L 1.0989,-0.9922 L 1.1031,-0.9181 L 1.1048,-0.8418 L 1.1041,-0.7631 L 1.1008,-0.6816 L 1.0948,-0.5967 L 1.0858,-0.5075 L 1.0737,-0.4124 L 1.0577,-0.3080 L 1.0364,-0.1871 L 1.0000,0.0000"/>
        <g id="arrows12">
          <use xlink:href="#arrow1" transform="translate(-1.0944,-1.0315) rotate(-83.21) scale(1.4)"/>
          <use xlink:href="#arrow1" transform="translate(-0.0001,-2.2720) rotate(3.16) scale(1.4)"/>
          <use xlink:href="#arrow1" transform="translate(1.0945,-1.0316) rotate(86.12) scale(1.4)"/>
        </g>
      </g>
      <g id="fieldline13">
        <path d="M -1.0000,0.0000 L -0.9629,-0.1824 L -0.9378,-0.2948 L -0.9145,-0.3882 L -0.8915,-0.4705 L -0.8681,-0.5453 L -0.8438,-0.6144 L -0.8186,-0.6787 L -0.7923,-0.7390 L -0.7648,-0.7957 L -0.7362,-0.8490 L -0.7063,-0.8993 L -0.6753,-0.9465 L -0.6432,-0.9909 L -0.6100,-1.0326 L -0.5757,-1.0715 L -0.5404,-1.1077 L -0.5042,-1.1413 L -0.4671,-1.1722 L -0.4292,-1.2005 L -0.3906,-1.2262 L -0.3513,-1.2493 L -0.3114,-1.2699 L -0.2709,-1.2878 L -0.2300,-1.3032 L -0.1887,-1.3160 L -0.1471,-1.3262 L -0.1053,-1.3339 L -0.0632,-1.3390 L -0.0211,-1.3416 L 0.0211,-1.3416 L 0.0632,-1.3390 L 0.1052,-1.3339 L 0.1471,-1.3262 L 0.1887,-1.3160 L 0.2300,-1.3032 L 0.2709,-1.2878 L 0.3114,-1.2699 L 0.3513,-1.2493 L 0.3906,-1.2262 L 0.4292,-1.2005 L 0.4671,-1.1722 L 0.5042,-1.1413 L 0.5404,-1.1077 L 0.5757,-1.0715 L 0.6100,-1.0326 L 0.6432,-0.9909 L 0.6753,-0.9465 L 0.7063,-0.8993 L 0.7362,-0.8490 L 0.7648,-0.7957 L 0.7923,-0.7390 L 0.8186,-0.6787 L 0.8438,-0.6144 L 0.8681,-0.5453 L 0.8915,-0.4705 L 0.9145,-0.3882 L 0.9378,-0.2948 L 0.9629,-0.1824 L 1.0000,0.0000"/>
        <g id="arrows13">
          <use xlink:href="#arrow1" transform="translate(-0.6553,-0.9715) rotate(-51.27) scale(1.4)"/>
          <use xlink:href="#arrow1" transform="translate(0.6552,-0.9716) rotate(56.26) scale(1.4)"/>
        </g>
      </g>
      <g id="fieldline14">
        <path d="M -1.0000,0.0000 L -0.8945,-0.1566 L -0.8302,-0.2482 L -0.7764,-0.3211 L -0.7274,-0.3835 L -0.6814,-0.4383 L -0.6374,-0.4872 L -0.5946,-0.5311 L -0.5526,-0.5707 L -0.5111,-0.6066 L -0.4700,-0.6390 L -0.4290,-0.6681 L -0.3882,-0.6942 L -0.3474,-0.7174 L -0.3066,-0.7378 L -0.2659,-0.7555 L -0.2250,-0.7706 L -0.1842,-0.7831 L -0.1433,-0.7930 L -0.1024,-0.8004 L -0.0614,-0.8053 L -0.0205,-0.8078 L 0.0205,-0.8078 L 0.0615,-0.8053 L 0.1024,-0.8004 L 0.1433,-0.7930 L 0.1842,-0.7831 L 0.2251,-0.7706 L 0.2659,-0.7555 L 0.3067,-0.7378 L 0.3474,-0.7174 L 0.3882,-0.6942 L 0.4290,-0.6681 L 0.4700,-0.6389 L 0.5111,-0.6066 L 0.5526,-0.5707 L 0.5946,-0.5310 L 0.6374,-0.4871 L 0.6814,-0.4383 L 0.7274,-0.3835 L 0.7764,-0.3211 L 0.8302,-0.2482 L 0.8945,-0.1566 L 1.0000,0.0000"/>
        <g id="arrows14">
          <use xlink:href="#arrow1" transform="translate(-0.2924,-0.7410) rotate(-20.28) scale(1.4)"/>
          <use xlink:href="#arrow1" transform="translate(0.2922,-0.7415) rotate(27.46) scale(1.4)"/>
        </g>
      </g>
      <g id="fieldline15">
        <path d="M -1.0000,0.0000 L -0.8252,-0.1159 L -0.7248,-0.1800 L -0.6443,-0.2288 L -0.5739,-0.2688 L -0.5102,-0.3024 L -0.4510,-0.3309 L -0.3951,-0.3551 L -0.3417,-0.3757 L -0.2901,-0.3930 L -0.2399,-0.4073 L -0.1908,-0.4188 L -0.1424,-0.4276 L -0.0947,-0.4338 L -0.0472,-0.4375 L -0.0000,-0.4388 L 0.0472,-0.4375 L 0.0946,-0.4338 L 0.1424,-0.4276 L 0.1908,-0.4188 L 0.2399,-0.4073 L 0.2901,-0.3930 L 0.3417,-0.3757 L 0.3951,-0.3551 L 0.4510,-0.3309 L 0.5101,-0.3024 L 0.5739,-0.2688 L 0.6443,-0.2288 L 0.7248,-0.1800 L 0.8252,-0.1159 L 1.0000,0.0000"/>
        <g id="arrows15">
          <use xlink:href="#arrow1" transform="translate(-0.0001,-0.4362) rotate(3.13) scale(1.4)"/>
        </g>
      </g>
      <g id="fieldline16">
        <path d="M -1.0000,0.0000 L -0.7255,-0.0539 L -0.5768,-0.0812 L -0.4615,-0.1002 L -0.3626,-0.1143 L -0.2740,-0.1248 L -0.1918,-0.1322 L -0.1137,-0.1370 L -0.0376,-0.1393 L 0.0376,-0.1393 L 0.1136,-0.1370 L 0.1918,-0.1322 L 0.2740,-0.1248 L 0.3626,-0.1143 L 0.4615,-0.1002 L 0.5768,-0.0812 L 0.7255,-0.0539 L 1.0000,0.0000"/>
        <g id="arrows16">
          <use xlink:href="#arrow1" transform="translate(-0.0000,-0.1386) rotate(1.22) scale(1.4)"/>
        </g>
      </g>
    </g>
    <g id="symbols">
      <g id="charge1" transform="translate(-1.0,0.0) scale(0.0261904761905,0.0261904761905)">
        <circle style="fill:#ff0000; stroke:none" cx="0" cy="0" r="14"/>
        <circle cx="0" cy="0" r="14" style="stroke:#ffffff; stroke-width:2"/>
        <path d="M 2,2 V 8 H -2 V 2 H -8 V -2 H -2 V -8 H 2 V -2 H 8 V 2 H 2 Z" style="fill:#ffffff; stroke:none"/>
      </g>
      <g id="charge2" transform="translate(1.0,0.0) scale(0.0261904761905,0.0261904761905)">
        <circle style="fill:#0000ff; stroke:none" cx="0" cy="0" r="14"/>
        <circle cx="0" cy="0" r="14" style="stroke:#ffffff; stroke-width:2"/>
        <path d="M 8,2 H -8 V -2 H 8 V 2 Z" style="fill:#ffffff; stroke:none"/>
      </g>
    </g>
  </g>
</svg>
