<?xml version="1.0" encoding="UTF-8" standalone="no"?>
<!-- Created with Inkscape (http://www.inkscape.org/) -->
<svg xmlns:dc="http://purl.org/dc/elements/1.1/" xmlns:cc="http://web.resource.org/cc/" xmlns:rdf="http://www.w3.org/1999/02/22-rdf-syntax-ns#" xmlns:svg="http://www.w3.org/2000/svg" xmlns="http://www.w3.org/2000/svg" xmlns:sodipodi="http://sodipodi.sourceforge.net/DTD/sodipodi-0.dtd" xmlns:inkscape="http://www.inkscape.org/namespaces/inkscape" id="svg2" sodipodi:version="0.32" inkscape:version="0.45.1" width="500.10916" height="299.34848" version="1.0" sodipodi:docbase="c:\temp" sodipodi:docname="DFAexample.svg" inkscape:output_extension="org.inkscape.output.svg.inkscape">
  <metadata id="metadata7">
    <rdf:RDF>
      <cc:Work rdf:about="">
        <dc:format>image/svg+xml</dc:format>
        <dc:type rdf:resource="http://purl.org/dc/dcmitype/StillImage"/>
      </cc:Work>
    </rdf:RDF>
  </metadata>
  <defs id="defs5"/>
  <sodipodi:namedview inkscape:window-height="1031" inkscape:window-width="1920" inkscape:pageshadow="2" inkscape:pageopacity="0.0" guidetolerance="10.0" gridtolerance="10.0" objecttolerance="10.0" borderopacity="1.0" bordercolor="#666666" pagecolor="#000000" id="base" width="200px" height="120px" inkscape:zoom="1.3876971" inkscape:cx="466.5123" inkscape:cy="139.43848" inkscape:window-x="0" inkscape:window-y="22" inkscape:current-layer="svg2"/>
  <path sodipodi:type="arc" style="fill:#000000;fill-opacity:1;fill-rule:nonzero;stroke:#ffffff;stroke-width:1;stroke-miterlimit:4;stroke-dasharray:none;stroke-opacity:1" id="path2764" sodipodi:cx="9.5626535" sodipodi:cy="77.355034" sodipodi:rx="32.444717" sodipodi:ry="35.347668" d="M 42.007371 77.355034 A 32.444717 35.347668 0 1 1  -22.882064,77.355034 A 32.444717 35.347668 0 1 1  42.007371 77.355034 z" transform="matrix(1.8887994,0,0,1.7336817,132.08161,28.28968)"/>
  <path sodipodi:type="arc" style="fill:none;fill-opacity:1;fill-rule:nonzero;stroke:#ffffff;stroke-width:1;stroke-miterlimit:4;stroke-dasharray:none;stroke-opacity:1" id="path1873" sodipodi:cx="9.5626535" sodipodi:cy="77.355034" sodipodi:rx="32.444717" sodipodi:ry="35.347668" d="M 42.007371 77.355034 A 32.444717 35.347668 0 1 1  -22.882064,77.355034 A 32.444717 35.347668 0 1 1  42.007371 77.355034 z" transform="matrix(1.5110395,0,0,1.3869453,135.69399,55.11148)"/>
  <path sodipodi:type="arc" style="opacity:1;color:#ffffff;fill:#000000;fill-opacity:1;fill-rule:nonzero;stroke:#ffffff;stroke-width:1;stroke-linecap:butt;stroke-linejoin:miter;marker:none;marker-start:none;marker-mid:none;marker-end:none;stroke-miterlimit:4;stroke-dasharray:none;stroke-dashoffset:0;stroke-opacity:1;visibility:visible;display:inline;overflow:visible" id="path2762" sodipodi:cx="9.5626535" sodipodi:cy="77.355034" sodipodi:rx="32.444717" sodipodi:ry="35.347668" d="M 42.007371 77.355034 A 32.444717 35.347668 0 1 1  -22.882064,77.355034 A 32.444717 35.347668 0 1 1  42.007371 77.355034 z" transform="matrix(1.8887994,0,0,1.7336817,405.70174,28.28968)"/>
  <path style="font-size:14px;font-style:normal;font-weight:normal;fill:#ffffff;fill-opacity:1;stroke:none;stroke-width:1px;stroke-linecap:butt;stroke-linejoin:miter;stroke-opacity:1;font-family:Bitstream Vera Sans" d="M 431.16898,150.52132 L 431.16898,153.87113 C 429.8653,153.24766 428.63533,152.78289 427.47908,152.47679 C 426.32279,152.17074 425.2062,152.0177 424.12928,152.01768 C 422.25881,152.0177 420.81348,152.38046 419.79322,153.10594 C 418.78431,153.83147 418.27985,154.86305 418.27988,156.20069 C 418.27985,157.32297 418.61426,158.17318 419.28312,158.7513 C 419.96326,159.31812 421.24423,159.77723 423.12604,160.12863 L 425.20053,160.55373 C 427.76245,161.0412 429.64991,161.90274 430.8629,163.13836 C 432.08717,164.36266 432.69931,166.00639 432.69933,168.06954 C 432.69931,170.52947 431.87178,172.39425 430.21673,173.66389 C 428.57299,174.93353 426.15842,175.56834 422.97299,175.56834 C 421.77137,175.56834 420.49038,175.43231 419.13007,175.16024 C 417.78107,174.88818 416.38108,174.48575 414.93007,173.95296 L 414.93007,170.4161 C 416.32439,171.1983 417.69038,171.78777 419.02805,172.18453 C 420.36568,172.5813 421.68068,172.77967 422.97299,172.77967 C 424.93412,172.77967 426.44749,172.39425 427.51309,171.62339 C 428.57866,170.85255 429.11145,169.75295 429.11148,168.3246 C 429.11145,167.07764 428.72603,166.10274 427.95518,165.3999 C 427.19567,164.69707 425.94303,164.16995 424.19729,163.81852 L 422.10579,163.41042 C 419.54383,162.90031 417.69038,162.10112 416.54545,161.01284 C 415.4005,159.9246 414.82804,158.41124 414.82804,156.47275 C 414.82804,154.22823 415.61589,152.45981 417.19161,151.16748 C 418.77864,149.87519 420.96083,149.22904 423.73818,149.22901 C 424.92845,149.22904 426.1414,149.33673 427.37705,149.55209 C 428.61267,149.7675 429.87664,150.09058 431.16898,150.52132" id="text2766"/>
  <path style="font-size:14px;font-style:normal;font-weight:normal;fill:#ffffff;fill-opacity:1;stroke:none;stroke-width:1px;stroke-linecap:butt;stroke-linejoin:miter;stroke-opacity:1;font-family:Bitstream Vera Sans" d="M 157.54882,150.52134 L 157.54882,153.87114 C 156.24516,153.24768 155.0152,152.78291 153.85894,152.47681 C 152.70264,152.17076 151.58604,152.01772 150.50913,152.0177 C 148.63867,152.01772 147.19332,152.38048 146.17308,153.10596 C 145.16417,153.83149 144.65972,154.86307 144.65973,156.20071 C 144.65972,157.32299 144.99413,158.1732 145.66296,158.75132 C 146.34312,159.31814 147.6241,159.77725 149.50589,160.12865 L 151.58039,160.55375 C 154.14232,161.04122 156.02977,161.90276 157.24275,163.13837 C 158.46702,164.36268 159.07917,166.00641 159.07919,168.06956 C 159.07917,170.52949 158.25164,172.39427 156.59659,173.66391 C 154.95285,174.93354 152.53827,175.56836 149.35285,175.56836 C 148.15122,175.56836 146.87025,175.43233 145.50993,175.16026 C 144.16093,174.8882 142.76093,174.48577 141.30991,173.95297 L 141.30991,170.41612 C 142.70424,171.19831 144.07024,171.78779 145.4079,172.18455 C 146.74555,172.58131 148.06053,172.77969 149.35285,172.77969 C 151.31397,172.77969 152.82734,172.39427 153.89294,171.62341 C 154.95851,170.85257 155.49131,169.75297 155.49133,168.32462 C 155.49131,167.07766 155.10588,166.10276 154.33505,165.39992 C 153.57552,164.69709 152.32289,164.16996 150.57715,163.81854 L 148.48564,163.41044 C 145.92369,162.90033 144.07024,162.10114 142.9253,161.01286 C 141.78036,159.92462 141.20789,158.41125 141.20789,156.47277 C 141.20789,154.22825 141.99575,152.45983 143.57146,151.16749 C 145.1585,149.87521 147.34069,149.22905 150.11804,149.22903 C 151.30831,149.22905 152.52126,149.33675 153.75691,149.55211 C 154.99253,149.76752 156.25649,150.09059 157.54882,150.52134" id="text2770"/>
  <path style="font-size:12px;font-style:normal;font-weight:normal;fill:#ffffff;fill-opacity:1;stroke:none;stroke-width:1px;stroke-linecap:butt;stroke-linejoin:miter;stroke-opacity:1;font-family:Bitstream Vera Sans" d="M 417.70779,28.37844 L 422.51754,28.37844 L 422.51754,11.77759 L 417.28512,12.82699 L 417.28512,10.1452 L 422.48838,9.0957997 L 425.43251,9.0957997 L 425.43251,28.37844 L 430.24225,28.37844 L 430.24225,30.85617 L 417.70779,30.85617 L 417.70779,28.37844" id="text2804"/>
  <path style="font-size:12px;font-style:normal;font-weight:normal;fill:#ffffff;fill-opacity:1;stroke:none;stroke-width:1px;stroke-linecap:butt;stroke-linejoin:miter;stroke-opacity:1;font-family:Bitstream Vera Sans" d="M 286.95361,269.06945 C 285.4378,269.06945 284.29611,269.81765 283.52851,271.31398 C 282.77061,272.80063 282.39164,275.04031 282.39167,278.03302 C 282.39164,281.01603 282.77061,283.25571 283.52851,284.75206 C 284.29611,286.23871 285.4378,286.98204 286.95361,286.98204 C 288.47912,286.98204 289.62081,286.23871 290.37871,284.75206 C 291.14631,283.25571 291.53013,281.01603 291.53013,278.03302 C 291.53013,275.04031 291.14631,272.80063 290.37871,271.31398 C 289.62081,269.81765 288.47912,269.06945 286.95361,269.06945 M 286.95361,266.73746 C 289.39246,266.73749 291.2532,267.70429 292.5358,269.63786 C 293.82811,271.56178 294.47426,274.36017 294.47428,278.03302 C 294.47426,281.6962 293.82811,284.49458 292.5358,286.42819 C 291.2532,288.35208 289.39246,289.31403 286.95361,289.31403 C 284.51473,289.31403 282.64914,288.35208 281.35683,286.42819 C 280.07423,284.49458 279.43294,281.6962 279.43294,278.03302 C 279.43294,274.36017 280.07423,271.56178 281.35683,269.63786 C 282.64914,267.70429 284.51473,266.73749 286.95361,266.73746" id="text2808"/>
  <path style="fill:#ffffff;fill-opacity:1;fill-rule:nonzero;stroke:none;stroke-width:1;stroke-miterlimit:4;stroke-opacity:1" d="M 186.22784,67.4251 C 181.09706,48.27679 161.3392,36.91069 142.21428,42.0352 C 123.08937,47.1597 111.73548,66.86217 116.86625,86.010481 L 112.83171,87.091539 L 120.52693,94.944775 L 123.26456,84.296062 L 119.23002,85.37712 C 114.45034,67.53914 124.99399,49.21373 142.85538,44.42778 C 160.71677,39.64184 179.08441,50.22049 183.86408,68.05847 C 186.2539,76.97746 184.79444,86.023257 180.50487,93.43755 C 180.50487,93.43755 182.61276,94.681574 182.61276,94.681574 C 187.21896,86.716902 188.79322,76.99926 186.22784,67.4251 z " id="path2812" sodipodi:nodetypes="cscccccssccc"/>
  <path style="fill:#ffffff;fill-opacity:1;fill-rule:nonzero;stroke:none;stroke-width:1;stroke-miterlimit:4;stroke-opacity:1" d="M 387.6794,67.42511 C 392.81017,48.27679 412.56803,36.91069 431.69293,42.0352 C 450.81786,47.1597 462.17172,66.86217 457.04097,86.010489 L 461.0755,87.091539 L 453.38031,94.944775 L 450.64267,84.29607 L 454.67719,85.377128 C 459.45689,67.53914 448.91324,49.21373 431.05184,44.42778 C 413.19047,39.64184 394.82282,50.22049 390.04318,68.05847 C 387.65331,76.97747 389.11278,86.023265 393.40237,93.437559 C 393.40237,93.437559 391.29447,94.681574 391.29447,94.681574 C 386.68825,86.71691 385.11402,76.99926 387.6794,67.42511 z " id="path2819" sodipodi:nodetypes="cscccccssccc"/>
  <path style="font-size:12px;font-style:normal;font-weight:normal;fill:#ffffff;fill-opacity:1;stroke:none;stroke-width:1px;stroke-linecap:butt;stroke-linejoin:miter;stroke-opacity:1;font-family:Bitstream Vera Sans" d="M 286.95361,37.81291 C 285.4378,37.81294 284.29611,38.56112 283.52851,40.05746 C 282.77061,41.54411 282.39164,43.7838 282.39167,46.7765 C 282.39164,49.75951 282.77061,51.99919 283.52851,53.49554 C 284.29611,54.98219 285.4378,55.72551 286.95361,55.72551 C 288.47912,55.72551 289.62081,54.98219 290.37871,53.49554 C 291.14631,51.99919 291.53013,49.75951 291.53013,46.7765 C 291.53013,43.7838 291.14631,41.54411 290.37871,40.05746 C 289.62081,38.56112 288.47912,37.81294 286.95361,37.81291 M 286.95361,35.48093 C 289.39246,35.48095 291.2532,36.44775 292.5358,38.38134 C 293.82811,40.30525 294.47426,43.10363 294.47428,46.7765 C 294.47426,50.43968 293.82811,53.23805 292.5358,55.17166 C 291.2532,57.09556 289.39246,58.0575 286.95361,58.0575 C 284.51473,58.0575 282.64914,57.09556 281.35683,55.17166 C 280.07423,53.23805 279.43294,50.43968 279.43294,46.7765 C 279.43294,43.10363 280.07423,40.30525 281.35683,38.38134 C 282.64914,36.44775 284.51473,35.48095 286.95361,35.48093" id="text2821"/>
  <path style="font-size:12px;font-style:normal;font-weight:normal;fill:#ffffff;fill-opacity:1;stroke:none;stroke-width:1px;stroke-linecap:butt;stroke-linejoin:miter;stroke-opacity:1;font-family:Bitstream Vera Sans" d="M 144.08765,28.37845 L 148.89739,28.37845 L 148.89739,11.7776 L 143.66498,12.82699 L 143.66498,10.1452 L 148.86823,9.0957997 L 151.81237,9.0957997 L 151.81237,28.37845 L 156.6221,28.37845 L 156.6221,30.85618 L 144.08765,30.85618 L 144.08765,28.37845" id="text2825"/>
  <path style="fill:#ffffff;fill-opacity:1;fill-rule:nonzero;stroke:none;stroke-width:0.07586141;stroke-miterlimit:4;stroke-opacity:1" d="M 374.01454,103.52541 C 351.28316,80.794033 319.0444,68.00732 287.93996,68.00732 C 256.8355,68.00731 224.65149,80.939204 201.9225,103.66821 L 197.87611,99.509795 L 197.44043,109.54447 L 208.37136,109.78098 L 203.76481,105.51053 C 226.4954,82.779928 257.63226,70.1858 288.20032,70.18579 C 318.76836,70.18578 349.42841,82.551419 372.20843,105.33147 C 372.20843,105.33147 374.01454,103.52541 374.01454,103.52541 z " id="path2849" sodipodi:nodetypes="cscccccscc" inkscape:transform-center-y="-19.30594" inkscape:transform-center-x="-20.320853"/>
  <path style="fill:#ffffff;fill-opacity:1;fill-rule:nonzero;stroke:none;stroke-width:0.07586141;stroke-miterlimit:4;stroke-opacity:1" d="M 199.89267,221.26959 C 222.62405,244.00095 254.8628,256.78764 285.96726,256.78767 C 317.07175,256.78767 349.25573,243.85578 371.98473,221.12678 L 375.72619,224.83144 L 375.90499,216.01717 L 366.31212,215.51018 L 370.1424,219.28445 C 347.41183,242.01504 316.27496,254.60918 285.70689,254.60918 C 255.13883,254.6092 224.47881,242.24356 201.69876,219.4635 C 201.69876,219.4635 199.89267,221.26959 199.89267,221.26959 z " id="path3744" sodipodi:nodetypes="cscccccscc" inkscape:transform-center-y="19.305937" inkscape:transform-center-x="20.320846"/>
  <path style="font-size:8px;font-style:normal;font-weight:normal;fill:#ffffff;fill-opacity:1;stroke:none;stroke-width:1px;stroke-linecap:butt;stroke-linejoin:miter;stroke-opacity:1;font-family:Bitstream Vera Sans" d="M 159.36097,188.42345 L 162.56746,188.42345 L 162.56746,177.35622 L 159.07919,178.05582 L 159.07919,176.26796 L 162.54802,175.56836 L 164.51078,175.56836 L 164.51078,188.42345 L 167.71727,188.42345 L 167.71727,190.07528 L 159.36097,190.07528 L 159.36097,188.42345" id="text3808"/>
  <path style="font-size:8px;font-style:normal;font-weight:normal;fill:#ffffff;fill-opacity:1;stroke:none;stroke-width:1px;stroke-linecap:butt;stroke-linejoin:miter;stroke-opacity:1;font-family:Bitstream Vera Sans" d="M 435.06047,188.68578 L 441.91071,188.68578 L 441.91071,190.33761 L 432.69933,190.33761 L 432.69933,188.68578 C 433.44428,187.91493 434.45804,186.88173 435.74064,185.58618 C 437.0297,184.28416 437.83941,183.44529 438.16979,183.06958 C 438.79813,182.36351 439.23537,181.76756 439.48153,181.28172 C 439.73415,180.78942 439.86047,180.30683 439.86049,179.83394 C 439.86047,179.0631 439.58841,178.43476 439.04428,177.94892 C 438.50662,177.4631 437.80379,177.22018 436.93579,177.22017 C 436.3204,177.22018 435.66938,177.32706 434.98274,177.54082 C 434.30257,177.7546 433.57382,178.07848 432.79649,178.51248 L 432.79649,176.53029 C 433.58679,176.21289 434.32526,175.97322 435.01189,175.81126 C 435.69853,175.64933 436.32687,175.56836 436.89691,175.56834 C 438.39974,175.56836 439.59811,175.94407 440.49206,176.69547 C 441.38598,177.4469 441.83295,178.45095 441.83297,179.70762 C 441.83295,180.30359 441.71959,180.87039 441.49289,181.40803 C 441.27262,181.93922 440.86776,182.56756 440.27832,183.29306 C 440.11635,183.48092 439.60138,184.02505 438.73335,184.92545 C 437.86533,185.81938 436.64103,187.07283 435.06047,188.68578" id="text3812"/>
  <path style="color:#ffffff;fill:#ffffff;fill-opacity:1;fill-rule:nonzero;stroke:none;stroke-width:0.72748214;stroke-linecap:butt;stroke-linejoin:miter;marker:none;marker-start:none;marker-mid:none;marker-end:none;stroke-miterlimit:4;stroke-dashoffset:0;stroke-opacity:1;visibility:visible;display:inline;overflow:visible" d="M 21.064808,160.97085 L 64.70197,160.97085 L 64.70197,157.1215 L 74.102939,162.39868 L 64.70197,167.67587 L 64.70197,163.8265 L 21.064808,163.8265 L 21.064808,160.97085 z " id="rect2826" sodipodi:nodetypes="cccccccc"/>
</svg>