<?xml version="1.0" encoding="UTF-8" standalone="no"?>
<!-- Created with Inkscape (http://www.inkscape.org/) -->
<svg xmlns:dc="http://purl.org/dc/elements/1.1/" xmlns:cc="http://web.resource.org/cc/" xmlns:rdf="http://www.w3.org/1999/02/22-rdf-syntax-ns#" xmlns:svg="http://www.w3.org/2000/svg" xmlns="http://www.w3.org/2000/svg" xmlns:sodipodi="http://sodipodi.sourceforge.net/DTD/sodipodi-0.dtd" xmlns:inkscape="http://www.inkscape.org/namespaces/inkscape" width="550" height="130" id="svg3282" sodipodi:version="0.32" inkscape:version="0.45.1" version="1.0" sodipodi:docbase="C:\Documents and Settings\Alex\My Documents\Desktop" sodipodi:docname="Turing_machine_2b.svg" inkscape:output_extension="org.inkscape.output.svg.inkscape">
  <defs id="defs3284"/>
  <sodipodi:namedview id="base" pagecolor="#ffffff" bordercolor="#666666" borderopacity="1.0" gridtolerance="10000" guidetolerance="10" objecttolerance="10" inkscape:pageopacity="0.0" inkscape:pageshadow="2" inkscape:zoom="1.5004828" inkscape:cx="257.49958" inkscape:cy="57.738431" inkscape:document-units="px" inkscape:current-layer="layer1" width="550px" height="130px" inkscape:window-width="1376" inkscape:window-height="862" inkscape:window-x="66" inkscape:window-y="7"/>
  <metadata id="metadata3287">
    <rdf:RDF>
      <cc:Work rdf:about="">
        <dc:format>image/svg+xml</dc:format>
        <dc:type rdf:resource="http://purl.org/dc/dcmitype/StillImage"/>
      </cc:Work>
    </rdf:RDF>
  </metadata>
  <g inkscape:label="Layer 1" inkscape:groupmode="layer" id="layer1" transform="translate(-19.493564,-27.459454)">
    <rect style="opacity:1;color:#ffffff;fill:#b3b3b3;fill-opacity:1;fill-rule:nonzero;stroke:none;stroke-width:1;stroke-linecap:butt;stroke-linejoin:miter;marker:none;marker-start:none;marker-mid:none;marker-end:none;stroke-miterlimit:4;stroke-dasharray:none;stroke-dashoffset:0;stroke-opacity:1;visibility:visible;display:inline;overflow:visible" id="rect7559" width="220.54633" height="54.665329" x="240.03989" y="33.713634"/>
    <path id="path6528" style="fill:none;fill-rule:evenodd;stroke:#ffffff;stroke-width:1px;stroke-linecap:butt;stroke-linejoin:miter;stroke-opacity:1" d="M 77.4749,34.156155 L 77.4749,88.80523 M 132.12397,88.80523 L 132.12397,34.156155 M 186.10659,34.001383 L 186.10659,88.80523 M 240.08922,33.960956 L 240.56047,88.80523 M 295.40474,34.196582 L 295.40474,88.886084 M 351.38672,34.196582 L 351.38672,88.80523 M 404.03644,34.137676 L 404.03644,88.529176 M 460.68488,34.237009 L 460.68488,88.80523 M 514.00105,34.351354 L 514.00105,88.845657 M 31.593836,34.156155 C 30.163236,36.386253 30.4809,37.884664 30.331212,40.422613 C 30.34095,42.3036 32.471598,44.418373 33.895219,45.925997 C 36.595422,51.928735 26.563751,50.261931 26.721415,55.558909 C 26.767103,58.004412 29.692301,57.077754 31.090656,58.777726 C 33.247987,62.324226 28.444595,64.358454 30.616511,67.907804 C 32.163306,70.783254 34.856521,71.152254 34.557327,74.355211 C 33.749075,76.558743 29.610347,81.191623 30.239823,83.606109 C 29.766538,81.160932 30.894179,88.23559 30.844077,88.80523 L 559.15318,88.85403 C 558.28181,87.022651 556.13932,86.78887 556.99175,84.291458 C 556.92279,81.502041 559.54528,79.952595 560.8512,77.842066 C 561.85012,75.119048 559.57784,72.767433 558.64702,70.3859 C 556.88579,68.178114 556.63452,65.204021 558.96944,63.284859 C 560.25815,61.555271 562.76091,60.744373 563.14074,58.410951 C 563.91654,55.781515 561.63368,53.726503 559.48963,52.704876 C 556.92894,51.75942 556.5573,48.058249 559.38061,47.20818 C 562.55102,46.300058 560.44471,42.797275 558.36247,41.945514 C 555.73257,40.115865 556.58109,35.552399 559.23649,34.114502 L 295.41516,34.135329 L 31.593836,34.156155 z " sodipodi:nodetypes="ccccccccccccccccccccccccccccccccccccccc"/>
    <path style="fill:none;fill-rule:evenodd;stroke:#ffffff;stroke-width:1px;stroke-linecap:butt;stroke-linejoin:miter;stroke-opacity:1" d="M 313.39895,124.12719 L 268.74666,88.138778 C 222.76146,124.79365 222.76146,124.79365 222.76146,124.79365 C 222.76146,152.11818 222.76146,152.11818 222.76146,152.11818 C 313.39895,152.11818 313.39895,152.11818 313.39895,152.11818 C 313.39895,124.12719 313.39895,131.12494 313.39895,124.12719 z " id="path6573" sodipodi:nodetypes="cccccc"/>
    <text xml:space="preserve" style="font-size:32px;font-style:normal;font-weight:normal;fill:#ffffff;fill-opacity:1;stroke:none;stroke-width:1px;stroke-linecap:butt;stroke-linejoin:miter;stroke-opacity:1;font-family:Arial" x="46.151649" y="74.068832" id="text6576"><tspan sodipodi:role="line" id="tspan6578" x="46.151649" y="74.068832">0</tspan></text>
    <text xml:space="preserve" style="font-size:32px;font-style:normal;font-weight:normal;fill:#ffffff;fill-opacity:1;stroke:none;stroke-width:1px;stroke-linecap:butt;stroke-linejoin:miter;stroke-opacity:1;font-family:Arial" x="254.75116" y="132.79108" id="text6582"><tspan sodipodi:role="line" id="tspan6584" x="254.75116" y="132.79108">q</tspan></text>
    <text xml:space="preserve" style="font-size:22px;font-style:normal;font-weight:normal;fill:#ffffff;fill-opacity:1;stroke:none;stroke-width:1px;stroke-linecap:butt;stroke-linejoin:miter;stroke-opacity:1;font-family:Arial" x="275.41116" y="148.78592" id="text6586"><tspan sodipodi:role="line" id="tspan6588" x="275.41116" y="148.78592">1</tspan></text>
    <text xml:space="preserve" style="font-size:32px;font-style:normal;font-weight:normal;fill:#ffffff;fill-opacity:1;stroke:none;stroke-width:1px;stroke-linecap:butt;stroke-linejoin:miter;stroke-opacity:1;font-family:Arial" x="96.002563" y="74.068832" id="text2166"><tspan sodipodi:role="line" id="tspan2168" x="96.002563" y="74.068832">0</tspan></text>
    <text xml:space="preserve" style="font-size:32px;font-style:normal;font-weight:normal;fill:#ffffff;fill-opacity:1;stroke:none;stroke-width:1px;stroke-linecap:butt;stroke-linejoin:miter;stroke-opacity:1;font-family:Arial" x="150.00256" y="74.068832" id="text2178"><tspan sodipodi:role="line" id="tspan2180" x="150.00256" y="74.068832">0</tspan></text>
    <text xml:space="preserve" style="font-size:32px;font-style:normal;font-weight:normal;fill:#ffffff;fill-opacity:1;stroke:none;stroke-width:1px;stroke-linecap:butt;stroke-linejoin:miter;stroke-opacity:1;font-family:Arial" x="204.00256" y="74.068832" id="text2182"><tspan sodipodi:role="line" id="tspan2184" x="204.00256" y="74.068832">0</tspan></text>
    <text xml:space="preserve" style="font-size:32px;font-style:normal;font-weight:normal;fill:#ffffff;fill-opacity:1;stroke:none;stroke-width:1px;stroke-linecap:butt;stroke-linejoin:miter;stroke-opacity:1;font-family:Arial" x="258.00256" y="74.068832" id="text2186"><tspan sodipodi:role="line" id="tspan2188" x="258.00256" y="74.068832">0</tspan></text>
    <text xml:space="preserve" style="font-size:32px;font-style:normal;font-weight:normal;fill:#ffffff;fill-opacity:1;stroke:none;stroke-width:1px;stroke-linecap:butt;stroke-linejoin:miter;stroke-opacity:1;font-family:Arial" x="316.00256" y="74.068832" id="text2190"><tspan sodipodi:role="line" id="tspan2192" x="316.00256" y="74.068832">1</tspan></text>
    <text xml:space="preserve" style="font-size:32px;font-style:normal;font-weight:normal;fill:#ffffff;fill-opacity:1;stroke:none;stroke-width:1px;stroke-linecap:butt;stroke-linejoin:miter;stroke-opacity:1;font-family:Arial" x="366.00256" y="74.068832" id="text2194"><tspan sodipodi:role="line" id="tspan2196" x="366.00256" y="74.068832">1</tspan></text>
    <text xml:space="preserve" style="font-size:32px;font-style:normal;font-weight:normal;fill:#ffffff;fill-opacity:1;stroke:none;stroke-width:1px;stroke-linecap:butt;stroke-linejoin:miter;stroke-opacity:1;font-family:Arial" x="424.00256" y="74.068832" id="text2198"><tspan sodipodi:role="line" id="tspan2200" x="424.00256" y="74.068832">B</tspan></text>
    <text xml:space="preserve" style="font-size:32px;font-style:normal;font-weight:normal;fill:#ffffff;fill-opacity:1;stroke:none;stroke-width:1px;stroke-linecap:butt;stroke-linejoin:miter;stroke-opacity:1;font-family:Arial" x="478.00256" y="74.068832" id="text2202"><tspan sodipodi:role="line" id="tspan2204" x="478.00256" y="74.068832">0</tspan></text>
    <text xml:space="preserve" style="font-size:32px;font-style:normal;font-weight:normal;fill:#ffffff;fill-opacity:1;stroke:none;stroke-width:1px;stroke-linecap:butt;stroke-linejoin:miter;stroke-opacity:1;font-family:Arial" x="528.00256" y="74.068832" id="text2206"><tspan sodipodi:role="line" id="tspan2208" x="528.00256" y="74.068832">0</tspan></text>
  </g>
</svg>