<?xml version="1.0" encoding="UTF-8" standalone="no"?>
<svg xmlns:dc="http://purl.org/dc/elements/1.1/" xmlns:cc="http://creativecommons.org/ns#" xmlns:rdf="http://www.w3.org/1999/02/22-rdf-syntax-ns#" xmlns:svg="http://www.w3.org/2000/svg" xmlns="http://www.w3.org/2000/svg" xmlns:xlink="http://www.w3.org/1999/xlink" version="1.1" width="350" height="280">
 <defs>
 
<style type="text/css">
<![CDATA[
 path {
  stroke: white;stroke-width:1;
 }
 path.arrow {
  fill:none;stroke-linecap:butt;stroke-linejoin:miter;stroke-miterlimit:4;stroke-dasharray:2, 1;stroke-dashoffset:0;marker-end:url(#Arrow1Mend)
 }
]]>
</style>
<marker refX="0" refY="0" orient="auto" id="Arrow1Mend" style="overflow:visible">
 <path d="M 0,0 5,-5 -12.5,0 5,5 0,0 z" transform="matrix(-0.4,0,0,-0.4,-4,0)" style="fill-rule:evenodd;"/>
 </marker>
 <marker refX="0" refY="0" orient="auto" id="Arrow1Mstart" style="overflow:visible">
 <path d="M 0,0 5,-5 -12.5,0 5,5 0,0 z" transform="matrix(0.4,0,0,0.4,4,0)" style="fill-rule:evenodd;"/>
 </marker>
 </defs>
 <metadata>
 <rdf:RDF>
 <cc:Work rdf:about="">
 <dc:format>image/svg+xml</dc:format>
 <dc:type rdf:resource="http://purl.org/dc/dcmitype/StillImage"/>
 <dc:title/>
 </cc:Work>
 </rdf:RDF>
 </metadata>
 <g transform="translate(17.60,5.77)">
 <path d="M 84.625,175.65625 48.126278,203.55059 90.625,220.15625 c 8.55071,-4.5769 14.15625,-12.27474 14.15625,-21 0,-10.62738 -8.33574,-19.70425 -20.15625,-23.5 z" fill="#0eedff"/>
 <path d="M 92.28671,11.72034 C 55.48767,-2.6824199 53.60663,85.89189 18.937561,104.8567 -36.981315,135.44567 215.4623,106.04135 260.81917,150.91314 292.79114,182.54319 339.89636,34.89653 261.84265,51.29477 129.39487,79.12062 171.57076,42.7513 92.28671,11.72034 z" style="fill:none;stroke-linejoin:miter"/>
 <path d="m 233.46214,103.34811 c -4.63763,21.30895 -20.43939,24.34043 -45.29038,19.22305 -23.0037,-4.73698 -28.02355,-5.68115 -26.64951,-19.75777 1.2398,-12.70138 20.26455,-40.34626 42.2423,-31.39799 28.58945,11.64023 32.33516,19.81364 29.69759,31.93271 z" fill="#9f9fff"/>
 <path d="m 114.8365,86.07553 c 0,12.51346 21.52046,23.37144 37.50147,29.45105 15.98101,6.07962 23.73518,-0.94168 28.93042,-11.62801 7.79031,-16.02424 5.90646,-25.23528 -10.07455,-31.31489 -15.9294,-5.74149 -55.05202,-7.64236 -56.35734,13.49185 z" fill="#00ffa0"/>
 <path d="m 24.549449,156.68787 0,85.28971 91.089411,0" id="p1" style="fill:none;stroke-linejoin:miter;marker-start:url(#Arrow1Mstart);marker-end:url(#Arrow1Mend)"/>
 <path d="m 84.625,175.65625 c -3.79247,-1.21782 -7.9344,-2.12551 -12.28125,-1.90625 -23.815195,1.20128 -31.180004,8.16797 -32.4375,25.40625 -1.236626,16.95219 14.58672,23.88673 32.4375,25.4375 10.0566,0.87366 13.07572,-1.65116 18.28125,-4.4375 -4.8143,-3.19634 -12.97095,-8.41796 -14.72098,-13.10099 -3.32773,-10.84001 2.29901,-22.72042 8.72098,-31.39901 z" fill="#00ffa0"/>
 <use transform="translate(129,0)" xlink:href="#p1"/>
 <path d="m 193.94965,223.44794 32.335,-43.49498 -48.11625,-2.19252 c -3.48845,4.87654 -5.53125,10.77492 -5.53125,17.15625 0,13.32035 8.95206,24.51711 21.3125,28.53125 z" fill="#0eedff"/>
 <path d="m 198.50082,165.28959 c -10.58019,1.08599 -14.7025,4.60075 -20.33242,12.47085 7.23715,1.28328 18.61428,8.76276 21.73435,17.53236 3.21541,9.03758 -0.23343,20.00085 -5.9531,28.15514 3.11751,1.01244 11.87624,2.13244 16.20901,1.14146 15.75303,-3.60295 21.23167,-10.304 23.17228,-26.8707 2.18414,-18.6457 -16.78508,-34.28131 -34.83012,-32.42911 z" fill="#9f9fff"/>
 <path d="m 178.25,76.0625 c -9.53182,7.4039 -16.01137,19.50313 -16.71875,26.75 -0.7838,8.02982 0.53386,11.78133 6.0625,14.40625 6.37405,-1.6424 10.51429,-6.78537 13.6875,-13.3125 6.43618,-13.23887 6.23339,-21.82961 -3.03125,-27.84375 z" fill="#0eedff"/>
 <path d="M 148.18289,95.11051 C 99.45806,114.00984 67.12249,143.98299 64.46477,203.634" class="arrow"/>
 <path d="m 210.92618,95.80178 c 27.16778,32.92617 28.16275,77.6661 4.39094,106.6057" class="arrow"/>
 <path d="m 90.32244,194.86129 c 13.21017,-29.7173 77.48209,-29.92374 91.37095,0" id="p2" class="arrow"/>
 <use transform="matrix(-1,0,0,-1,272,397)" xlink:href="#p2"/>
 </g>
</svg>